G04 #@! TF.FileFunction,Legend,Bot*
%FSLAX46Y46*%
G04 Gerber Fmt 4.6, Leading zero omitted, Abs format (unit mm)*
G04 Created by KiCad (PCBNEW 4.0.7) date Fri Jan 12 23:49:52 2018*
%MOMM*%
%LPD*%
G01*
G04 APERTURE LIST*
%ADD10C,0.100000*%
%ADD11C,0.150000*%
G04 APERTURE END LIST*
D10*
D11*
X64925000Y-105370000D02*
X64925000Y-94630000D01*
X64925000Y-94630000D02*
X134235000Y-94630000D01*
X134235000Y-94630000D02*
X134235000Y-98400000D01*
X134235000Y-98400000D02*
X135075000Y-98400000D01*
X135075000Y-98400000D02*
X135075000Y-101600000D01*
X135075000Y-101600000D02*
X134235000Y-101600000D01*
X134235000Y-101600000D02*
X134235000Y-105370000D01*
X134235000Y-105370000D02*
X64925000Y-105370000D01*
X101252494Y-106797861D02*
X101252494Y-107512147D01*
X101300114Y-107655004D01*
X101395352Y-107750242D01*
X101538209Y-107797861D01*
X101633447Y-107797861D01*
X100871542Y-106797861D02*
X100252494Y-106797861D01*
X100585828Y-107178813D01*
X100442970Y-107178813D01*
X100347732Y-107226432D01*
X100300113Y-107274051D01*
X100252494Y-107369290D01*
X100252494Y-107607385D01*
X100300113Y-107702623D01*
X100347732Y-107750242D01*
X100442970Y-107797861D01*
X100728685Y-107797861D01*
X100823923Y-107750242D01*
X100871542Y-107702623D01*
X99633447Y-106797861D02*
X99538208Y-106797861D01*
X99442970Y-106845480D01*
X99395351Y-106893099D01*
X99347732Y-106988337D01*
X99300113Y-107178813D01*
X99300113Y-107416909D01*
X99347732Y-107607385D01*
X99395351Y-107702623D01*
X99442970Y-107750242D01*
X99538208Y-107797861D01*
X99633447Y-107797861D01*
X99728685Y-107750242D01*
X99776304Y-107702623D01*
X99823923Y-107607385D01*
X99871542Y-107416909D01*
X99871542Y-107178813D01*
X99823923Y-106988337D01*
X99776304Y-106893099D01*
X99728685Y-106845480D01*
X99633447Y-106797861D01*
X98919161Y-106893099D02*
X98871542Y-106845480D01*
X98776304Y-106797861D01*
X98538208Y-106797861D01*
X98442970Y-106845480D01*
X98395351Y-106893099D01*
X98347732Y-106988337D01*
X98347732Y-107083575D01*
X98395351Y-107226432D01*
X98966780Y-107797861D01*
X98347732Y-107797861D01*
M02*
