G04 #@! TF.FileFunction,Copper,L2,Bot,Signal*
%FSLAX46Y46*%
G04 Gerber Fmt 4.6, Leading zero omitted, Abs format (unit mm)*
G04 Created by KiCad (PCBNEW 4.0.7) date Fri Jan 12 23:49:52 2018*
%MOMM*%
%LPD*%
G01*
G04 APERTURE LIST*
%ADD10C,0.100000*%
%ADD11C,7.000000*%
%ADD12C,0.640000*%
%ADD13C,2.700000*%
%ADD14C,0.685800*%
%ADD15C,0.635000*%
%ADD16C,1.016000*%
%ADD17C,0.254000*%
G04 APERTURE END LIST*
D10*
D11*
X139500000Y-138600000D03*
X60500000Y-138600000D03*
X139500000Y-96600000D03*
D12*
X68885000Y-104445000D03*
X70155000Y-104445000D03*
X71425000Y-104445000D03*
X72695000Y-104445000D03*
X73965000Y-104445000D03*
X75235000Y-104445000D03*
X76505000Y-104445000D03*
X77775000Y-104445000D03*
X79045000Y-104445000D03*
X80315000Y-104445000D03*
X81585000Y-104445000D03*
X82855000Y-104445000D03*
X84125000Y-104445000D03*
X85395000Y-104445000D03*
X86665000Y-104445000D03*
X87935000Y-104445000D03*
X89205000Y-104445000D03*
X90475000Y-104445000D03*
X91745000Y-104445000D03*
X93015000Y-104445000D03*
X94285000Y-104445000D03*
X95555000Y-104445000D03*
X96825000Y-104445000D03*
X98095000Y-104445000D03*
X99365000Y-104445000D03*
X100635000Y-104445000D03*
X101905000Y-104445000D03*
X103175000Y-104445000D03*
X104445000Y-104445000D03*
X105715000Y-104445000D03*
X106985000Y-104445000D03*
X108255000Y-104445000D03*
X109525000Y-104445000D03*
X110795000Y-104445000D03*
X112065000Y-104445000D03*
X113335000Y-104445000D03*
X114605000Y-104445000D03*
X115875000Y-104445000D03*
X117145000Y-104445000D03*
X118415000Y-104445000D03*
X119685000Y-104445000D03*
X120955000Y-104445000D03*
X122225000Y-104445000D03*
X123495000Y-104445000D03*
X124765000Y-104445000D03*
X126035000Y-104445000D03*
X127305000Y-104445000D03*
X128575000Y-104445000D03*
X129845000Y-104445000D03*
X131115000Y-104445000D03*
X68885000Y-103175000D03*
X70155000Y-103175000D03*
X71425000Y-103175000D03*
X72695000Y-103175000D03*
X73965000Y-103175000D03*
X75235000Y-103175000D03*
X76505000Y-103175000D03*
X77775000Y-103175000D03*
X79045000Y-103175000D03*
X80315000Y-103175000D03*
X81585000Y-103175000D03*
X82855000Y-103175000D03*
X84125000Y-103175000D03*
X85395000Y-103175000D03*
X86665000Y-103175000D03*
X87935000Y-103175000D03*
X89205000Y-103175000D03*
X90475000Y-103175000D03*
X91745000Y-103175000D03*
X93015000Y-103175000D03*
X94285000Y-103175000D03*
X95555000Y-103175000D03*
X96825000Y-103175000D03*
X98095000Y-103175000D03*
X99365000Y-103175000D03*
X100635000Y-103175000D03*
X101905000Y-103175000D03*
X103175000Y-103175000D03*
X104445000Y-103175000D03*
X105715000Y-103175000D03*
X106985000Y-103175000D03*
X108255000Y-103175000D03*
X109525000Y-103175000D03*
X110795000Y-103175000D03*
X112065000Y-103175000D03*
X113335000Y-103175000D03*
X114605000Y-103175000D03*
X115875000Y-103175000D03*
X117145000Y-103175000D03*
X118415000Y-103175000D03*
X119685000Y-103175000D03*
X120955000Y-103175000D03*
X122225000Y-103175000D03*
X123495000Y-103175000D03*
X124765000Y-103175000D03*
X126035000Y-103175000D03*
X127305000Y-103175000D03*
X128575000Y-103175000D03*
X129845000Y-103175000D03*
X131115000Y-103175000D03*
X68885000Y-101905000D03*
X70155000Y-101905000D03*
X71425000Y-101905000D03*
X72695000Y-101905000D03*
X73965000Y-101905000D03*
X75235000Y-101905000D03*
X76505000Y-101905000D03*
X77775000Y-101905000D03*
X79045000Y-101905000D03*
X80315000Y-101905000D03*
X81585000Y-101905000D03*
X82855000Y-101905000D03*
X84125000Y-101905000D03*
X85395000Y-101905000D03*
X86665000Y-101905000D03*
X87935000Y-101905000D03*
X89205000Y-101905000D03*
X90475000Y-101905000D03*
X91745000Y-101905000D03*
X93015000Y-101905000D03*
X94285000Y-101905000D03*
X95555000Y-101905000D03*
X96825000Y-101905000D03*
X98095000Y-101905000D03*
X99365000Y-101905000D03*
X100635000Y-101905000D03*
X101905000Y-101905000D03*
X103175000Y-101905000D03*
X104445000Y-101905000D03*
X105715000Y-101905000D03*
X106985000Y-101905000D03*
X108255000Y-101905000D03*
X109525000Y-101905000D03*
X110795000Y-101905000D03*
X112065000Y-101905000D03*
X113335000Y-101905000D03*
X114605000Y-101905000D03*
X115875000Y-101905000D03*
X117145000Y-101905000D03*
X118415000Y-101905000D03*
X119685000Y-101905000D03*
X120955000Y-101905000D03*
X122225000Y-101905000D03*
X123495000Y-101905000D03*
X124765000Y-101905000D03*
X126035000Y-101905000D03*
X127305000Y-101905000D03*
X128575000Y-101905000D03*
X129845000Y-101905000D03*
X131115000Y-101905000D03*
X68885000Y-100635000D03*
X70155000Y-100635000D03*
X71425000Y-100635000D03*
X72695000Y-100635000D03*
X73965000Y-100635000D03*
X75235000Y-100635000D03*
X76505000Y-100635000D03*
X77775000Y-100635000D03*
X79045000Y-100635000D03*
X80315000Y-100635000D03*
X81585000Y-100635000D03*
X82855000Y-100635000D03*
X84125000Y-100635000D03*
X85395000Y-100635000D03*
X86665000Y-100635000D03*
X87935000Y-100635000D03*
X89205000Y-100635000D03*
X90475000Y-100635000D03*
X91745000Y-100635000D03*
X93015000Y-100635000D03*
X94285000Y-100635000D03*
X95555000Y-100635000D03*
X96825000Y-100635000D03*
X98095000Y-100635000D03*
X99365000Y-100635000D03*
X100635000Y-100635000D03*
X101905000Y-100635000D03*
X103175000Y-100635000D03*
X104445000Y-100635000D03*
X105715000Y-100635000D03*
X106985000Y-100635000D03*
X108255000Y-100635000D03*
X109525000Y-100635000D03*
X110795000Y-100635000D03*
X112065000Y-100635000D03*
X113335000Y-100635000D03*
X114605000Y-100635000D03*
X115875000Y-100635000D03*
X117145000Y-100635000D03*
X118415000Y-100635000D03*
X119685000Y-100635000D03*
X120955000Y-100635000D03*
X122225000Y-100635000D03*
X123495000Y-100635000D03*
X124765000Y-100635000D03*
X126035000Y-100635000D03*
X127305000Y-100635000D03*
X128575000Y-100635000D03*
X129845000Y-100635000D03*
X131115000Y-100635000D03*
X68885000Y-99365000D03*
X70155000Y-99365000D03*
X71425000Y-99365000D03*
X72695000Y-99365000D03*
X73965000Y-99365000D03*
X75235000Y-99365000D03*
X76505000Y-99365000D03*
X77775000Y-99365000D03*
X79045000Y-99365000D03*
X80315000Y-99365000D03*
X81585000Y-99365000D03*
X82855000Y-99365000D03*
X84125000Y-99365000D03*
X85395000Y-99365000D03*
X86665000Y-99365000D03*
X87935000Y-99365000D03*
X89205000Y-99365000D03*
X90475000Y-99365000D03*
X91745000Y-99365000D03*
X93015000Y-99365000D03*
X94285000Y-99365000D03*
X95555000Y-99365000D03*
X96825000Y-99365000D03*
X98095000Y-99365000D03*
X99365000Y-99365000D03*
X100635000Y-99365000D03*
X101905000Y-99365000D03*
X103175000Y-99365000D03*
X104445000Y-99365000D03*
X105715000Y-99365000D03*
X106985000Y-99365000D03*
X108255000Y-99365000D03*
X109525000Y-99365000D03*
X110795000Y-99365000D03*
X112065000Y-99365000D03*
X113335000Y-99365000D03*
X114605000Y-99365000D03*
X115875000Y-99365000D03*
X117145000Y-99365000D03*
X118415000Y-99365000D03*
X119685000Y-99365000D03*
X120955000Y-99365000D03*
X122225000Y-99365000D03*
X123495000Y-99365000D03*
X124765000Y-99365000D03*
X126035000Y-99365000D03*
X127305000Y-99365000D03*
X128575000Y-99365000D03*
X129845000Y-99365000D03*
X131115000Y-99365000D03*
X68885000Y-98095000D03*
X70155000Y-98095000D03*
X71425000Y-98095000D03*
X72695000Y-98095000D03*
X73965000Y-98095000D03*
X75235000Y-98095000D03*
X76505000Y-98095000D03*
X77775000Y-98095000D03*
X79045000Y-98095000D03*
X80315000Y-98095000D03*
X81585000Y-98095000D03*
X82855000Y-98095000D03*
X84125000Y-98095000D03*
X85395000Y-98095000D03*
X86665000Y-98095000D03*
X87935000Y-98095000D03*
X89205000Y-98095000D03*
X90475000Y-98095000D03*
X91745000Y-98095000D03*
X93015000Y-98095000D03*
X94285000Y-98095000D03*
X95555000Y-98095000D03*
X96825000Y-98095000D03*
X98095000Y-98095000D03*
X99365000Y-98095000D03*
X100635000Y-98095000D03*
X101905000Y-98095000D03*
X103175000Y-98095000D03*
X104445000Y-98095000D03*
X105715000Y-98095000D03*
X106985000Y-98095000D03*
X108255000Y-98095000D03*
X109525000Y-98095000D03*
X110795000Y-98095000D03*
X112065000Y-98095000D03*
X113335000Y-98095000D03*
X114605000Y-98095000D03*
X115875000Y-98095000D03*
X117145000Y-98095000D03*
X118415000Y-98095000D03*
X119685000Y-98095000D03*
X120955000Y-98095000D03*
X122225000Y-98095000D03*
X123495000Y-98095000D03*
X124765000Y-98095000D03*
X126035000Y-98095000D03*
X127305000Y-98095000D03*
X128575000Y-98095000D03*
X129845000Y-98095000D03*
X131115000Y-98095000D03*
X68885000Y-96825000D03*
X70155000Y-96825000D03*
X71425000Y-96825000D03*
X72695000Y-96825000D03*
X73965000Y-96825000D03*
X75235000Y-96825000D03*
X76505000Y-96825000D03*
X77775000Y-96825000D03*
X79045000Y-96825000D03*
X80315000Y-96825000D03*
X81585000Y-96825000D03*
X82855000Y-96825000D03*
X84125000Y-96825000D03*
X85395000Y-96825000D03*
X86665000Y-96825000D03*
X87935000Y-96825000D03*
X89205000Y-96825000D03*
X90475000Y-96825000D03*
X91745000Y-96825000D03*
X93015000Y-96825000D03*
X94285000Y-96825000D03*
X95555000Y-96825000D03*
X96825000Y-96825000D03*
X98095000Y-96825000D03*
X99365000Y-96825000D03*
X100635000Y-96825000D03*
X101905000Y-96825000D03*
X103175000Y-96825000D03*
X104445000Y-96825000D03*
X105715000Y-96825000D03*
X106985000Y-96825000D03*
X108255000Y-96825000D03*
X109525000Y-96825000D03*
X110795000Y-96825000D03*
X112065000Y-96825000D03*
X113335000Y-96825000D03*
X114605000Y-96825000D03*
X115875000Y-96825000D03*
X117145000Y-96825000D03*
X118415000Y-96825000D03*
X119685000Y-96825000D03*
X120955000Y-96825000D03*
X122225000Y-96825000D03*
X123495000Y-96825000D03*
X124765000Y-96825000D03*
X126035000Y-96825000D03*
X127305000Y-96825000D03*
X128575000Y-96825000D03*
X129845000Y-96825000D03*
X131115000Y-96825000D03*
X68885000Y-95555000D03*
X70155000Y-95555000D03*
X71425000Y-95555000D03*
X72695000Y-95555000D03*
X73965000Y-95555000D03*
X75235000Y-95555000D03*
X76505000Y-95555000D03*
X77775000Y-95555000D03*
X79045000Y-95555000D03*
X80315000Y-95555000D03*
X81585000Y-95555000D03*
X82855000Y-95555000D03*
X84125000Y-95555000D03*
X85395000Y-95555000D03*
X86665000Y-95555000D03*
X87935000Y-95555000D03*
X89205000Y-95555000D03*
X90475000Y-95555000D03*
X91745000Y-95555000D03*
X93015000Y-95555000D03*
X94285000Y-95555000D03*
X95555000Y-95555000D03*
X96825000Y-95555000D03*
X98095000Y-95555000D03*
X99365000Y-95555000D03*
X100635000Y-95555000D03*
X101905000Y-95555000D03*
X103175000Y-95555000D03*
X104445000Y-95555000D03*
X105715000Y-95555000D03*
X106985000Y-95555000D03*
X108255000Y-95555000D03*
X109525000Y-95555000D03*
X110795000Y-95555000D03*
X112065000Y-95555000D03*
X113335000Y-95555000D03*
X114605000Y-95555000D03*
X115875000Y-95555000D03*
X117145000Y-95555000D03*
X118415000Y-95555000D03*
X119685000Y-95555000D03*
X120955000Y-95555000D03*
X122225000Y-95555000D03*
X123495000Y-95555000D03*
X124765000Y-95555000D03*
X126035000Y-95555000D03*
X127305000Y-95555000D03*
X128575000Y-95555000D03*
X129845000Y-95555000D03*
X131115000Y-95555000D03*
D13*
X87540000Y-147000000D03*
X82460000Y-147000000D03*
X112850000Y-146900000D03*
X107770000Y-146900000D03*
D11*
X60500000Y-96600000D03*
D14*
X68885000Y-95555000D03*
X70155000Y-95555000D03*
X71425000Y-95555000D03*
X72695000Y-95555000D03*
X73965000Y-95555000D03*
X75235000Y-95555000D03*
X76505000Y-95555000D03*
X79045000Y-95555000D03*
X80315000Y-95555000D03*
X82855000Y-95555000D03*
X84125000Y-95555000D03*
X86665000Y-95555000D03*
X87935000Y-95555000D03*
X89205000Y-95555000D03*
X90475000Y-95555000D03*
X91745000Y-95555000D03*
X93015000Y-95555000D03*
X94285000Y-95555000D03*
X95555000Y-95555000D03*
X98095000Y-95555000D03*
X99365000Y-95555000D03*
X100635000Y-95555000D03*
X101905000Y-95555000D03*
X103175000Y-95555000D03*
X104445000Y-95555000D03*
X105715000Y-95555000D03*
X106985000Y-95555000D03*
X108255000Y-95555000D03*
X109525000Y-95555000D03*
X110795000Y-95555000D03*
X112065000Y-95555000D03*
X113335000Y-95555000D03*
X114605000Y-95555000D03*
X115875000Y-95555000D03*
X117145000Y-95555000D03*
X118415000Y-95555000D03*
X119685000Y-95555000D03*
X120955000Y-95555000D03*
X122225000Y-95555000D03*
X123495000Y-95555000D03*
X124765000Y-95555000D03*
X126035000Y-95555000D03*
X68885000Y-96825000D03*
X70155000Y-96825000D03*
X71425000Y-96825000D03*
X73965000Y-96825000D03*
X75235000Y-96825000D03*
X77775000Y-96825000D03*
X79045000Y-96825000D03*
X81585000Y-96825000D03*
X82855000Y-96825000D03*
X85395000Y-96825000D03*
X86665000Y-96825000D03*
X87935000Y-96825000D03*
X89205000Y-96825000D03*
X90475000Y-96825000D03*
X91745000Y-96825000D03*
X94285000Y-96825000D03*
X95555000Y-96825000D03*
X96825000Y-96825000D03*
X98095000Y-96825000D03*
X99365000Y-96825000D03*
X100635000Y-96825000D03*
X101905000Y-96825000D03*
X103175000Y-96825000D03*
X104445000Y-96825000D03*
X105715000Y-96825000D03*
X106985000Y-96825000D03*
X108255000Y-96825000D03*
X109525000Y-96825000D03*
X110795000Y-96825000D03*
X112065000Y-96825000D03*
X113335000Y-96825000D03*
X115875000Y-96825000D03*
X117145000Y-96825000D03*
X118415000Y-96825000D03*
X119685000Y-96825000D03*
X120955000Y-96825000D03*
X122225000Y-96825000D03*
X123495000Y-96825000D03*
X124765000Y-96825000D03*
X126035000Y-96825000D03*
X68885000Y-98095000D03*
X70155000Y-98095000D03*
X71425000Y-98095000D03*
X72695000Y-98095000D03*
X73965000Y-98095000D03*
X76505000Y-98095000D03*
X77775000Y-98095000D03*
X80315000Y-98095000D03*
X81585000Y-98095000D03*
X84125000Y-98095000D03*
X85395000Y-98095000D03*
X87935000Y-98095000D03*
X89205000Y-98095000D03*
X91745000Y-98095000D03*
X93015000Y-98095000D03*
X95555000Y-98095000D03*
X96825000Y-98095000D03*
X99365000Y-98095000D03*
X100635000Y-98095000D03*
X103175000Y-98095000D03*
X104445000Y-98095000D03*
X106985000Y-98095000D03*
X108255000Y-98095000D03*
X110795000Y-98072091D03*
X112065000Y-98095000D03*
X113335000Y-98095000D03*
X114605000Y-98095000D03*
X115875000Y-98095000D03*
X117145000Y-98095000D03*
X118415000Y-98095000D03*
X119685000Y-98095000D03*
X120955000Y-98095000D03*
X122225000Y-98095000D03*
X123495000Y-98095000D03*
X124765000Y-98095000D03*
X126035000Y-98095000D03*
X68885000Y-99365000D03*
X70155000Y-99365000D03*
X71425000Y-99365000D03*
X72695000Y-99365000D03*
X73965000Y-99365000D03*
X75235000Y-99365000D03*
X77775000Y-99365000D03*
X79045000Y-99365000D03*
X81585000Y-99365000D03*
X82855000Y-99365000D03*
X85395000Y-99365000D03*
X86665000Y-99365000D03*
X89205000Y-99365000D03*
X90475000Y-99365000D03*
X93015000Y-99365000D03*
X94285000Y-99365000D03*
X96825000Y-99365000D03*
X98095000Y-99365000D03*
X100635000Y-99365000D03*
X101905000Y-99365000D03*
X104445000Y-99365000D03*
X105715000Y-99365000D03*
X112087909Y-99365000D03*
X113335000Y-99365000D03*
X114605000Y-99365000D03*
X115875000Y-99365000D03*
X117145000Y-99365000D03*
X118415000Y-99365000D03*
X119685000Y-99365000D03*
X120955000Y-99365000D03*
X122225000Y-99365000D03*
X123495000Y-99365000D03*
X124765000Y-99365000D03*
X126035000Y-99365000D03*
X127305000Y-99365000D03*
X128575000Y-99365000D03*
X129845000Y-99365000D03*
X131115000Y-99365000D03*
X68885000Y-100635000D03*
X70155000Y-100635000D03*
X71425000Y-100635000D03*
X72695000Y-100635000D03*
X75235000Y-100635000D03*
X76505000Y-100635000D03*
X79045000Y-100635000D03*
X80315000Y-100635000D03*
X82855000Y-100635000D03*
X84125000Y-100635000D03*
X86665000Y-100635000D03*
X87935000Y-100635000D03*
X90475000Y-100635000D03*
X91745000Y-100635000D03*
X94285000Y-100635000D03*
X95555000Y-100635000D03*
X98095000Y-100635000D03*
X99365000Y-100635000D03*
X101905000Y-100635000D03*
X103175000Y-100635000D03*
X105715000Y-100635000D03*
X106962091Y-100635000D03*
X109525000Y-100635000D03*
X110777690Y-100641837D03*
X112087909Y-100635000D03*
X113335000Y-100635000D03*
X114605000Y-100635000D03*
X115875000Y-100635000D03*
X117145000Y-100635000D03*
X118415000Y-100635000D03*
X119685000Y-100635000D03*
X120955000Y-100635000D03*
X122225000Y-100635000D03*
X123495000Y-100635000D03*
X124765000Y-100635000D03*
X126035000Y-100635000D03*
X127305000Y-100635000D03*
X128575000Y-100635000D03*
X129845000Y-100635000D03*
X131115000Y-100635000D03*
X68885000Y-101905000D03*
X71425000Y-101905000D03*
X72695000Y-101905000D03*
X73965000Y-101905000D03*
X76505000Y-101905000D03*
X77775000Y-101905000D03*
X80315000Y-101905000D03*
X81585000Y-101905000D03*
X84125000Y-101905000D03*
X85395000Y-101905000D03*
X87935000Y-101905000D03*
X89205000Y-101905000D03*
X91745000Y-101905000D03*
X93015000Y-101905000D03*
X95555000Y-101905000D03*
X96825000Y-101905000D03*
X99365000Y-101905000D03*
X100635000Y-101905000D03*
X103175000Y-101905000D03*
X104445000Y-101905000D03*
X106962091Y-101905000D03*
X108272310Y-101905000D03*
X109525000Y-101905000D03*
X110777690Y-101910130D03*
X112087909Y-101905000D03*
X114605000Y-101905000D03*
X115875000Y-101905000D03*
X117145000Y-101905000D03*
X118415000Y-101905000D03*
X120955000Y-101905000D03*
X122225000Y-101905000D03*
X123495000Y-101905000D03*
X124765000Y-101905000D03*
X126035000Y-101905000D03*
X127305000Y-101905000D03*
X128575000Y-101905000D03*
X129845000Y-101905000D03*
X131115000Y-101905000D03*
X70155000Y-103175000D03*
X71425000Y-103175000D03*
X73965000Y-103175000D03*
X75235000Y-103175000D03*
X77775000Y-103175000D03*
X79045000Y-103175000D03*
X81585000Y-103175000D03*
X82855000Y-103175000D03*
X85395000Y-103175000D03*
X86665000Y-103175000D03*
X89205000Y-103175000D03*
X90475000Y-103175000D03*
X93015000Y-103175000D03*
X94285000Y-103175000D03*
X96825000Y-103175000D03*
X98095000Y-103175000D03*
X100635000Y-103175000D03*
X101905000Y-103175000D03*
X104445000Y-103175000D03*
X105715000Y-103175000D03*
X108272310Y-103175000D03*
X109525000Y-103175000D03*
X112087909Y-103175000D03*
X113335000Y-103175000D03*
X114605000Y-103175000D03*
X115875000Y-103175000D03*
X117145000Y-103175000D03*
X118415000Y-103175000D03*
X119685000Y-103175000D03*
X120955000Y-103175000D03*
X122225000Y-103175000D03*
X123495000Y-103175000D03*
X124765000Y-103175000D03*
X126035000Y-103175000D03*
X127305000Y-103175000D03*
X129845000Y-103175000D03*
X131115000Y-103175000D03*
X68885000Y-104445000D03*
X71425000Y-104445000D03*
X72695000Y-104445000D03*
X75235000Y-104445000D03*
X76505000Y-104445000D03*
X79045000Y-104445000D03*
X80315000Y-104445000D03*
X82855000Y-104445000D03*
X84125000Y-104445000D03*
X86665000Y-104445000D03*
X87935000Y-104445000D03*
X90475000Y-104445000D03*
X91745000Y-104445000D03*
X94285000Y-104445000D03*
X95555000Y-104445000D03*
X98095000Y-104445000D03*
X99365000Y-104445000D03*
X101905000Y-104445000D03*
X103175000Y-104445000D03*
X105715000Y-104445000D03*
X106962091Y-104445000D03*
X109525000Y-104445000D03*
X110777690Y-104451732D03*
X112087909Y-104445000D03*
X113335000Y-104445000D03*
X114605000Y-104445000D03*
X115875000Y-104445000D03*
X117145000Y-104445000D03*
X118415000Y-104445000D03*
X119685000Y-104445000D03*
X120955000Y-104445000D03*
X122225000Y-104445000D03*
X123495000Y-104445000D03*
X124765000Y-104445000D03*
X126035000Y-104445000D03*
X127305000Y-104445000D03*
X128575000Y-104445000D03*
X129845000Y-104445000D03*
X131115000Y-104445000D03*
X100850000Y-128050000D03*
X100800000Y-130450000D03*
X136646240Y-120185180D03*
X129700000Y-125450000D03*
X127305000Y-96825000D03*
X128575000Y-96825000D03*
X127305000Y-95555000D03*
X128575000Y-95555000D03*
X127305000Y-98095000D03*
X128575000Y-98095000D03*
X83250000Y-120500000D03*
X109300000Y-120200000D03*
X118750000Y-124300000D03*
X108255000Y-99365000D03*
X109525000Y-99365000D03*
X129845000Y-96825000D03*
X131115000Y-96825000D03*
X129845000Y-98095000D03*
X131115000Y-98095000D03*
X129845000Y-95555000D03*
X131115000Y-95555000D03*
X109525000Y-98095000D03*
X110777690Y-99365424D03*
X77775000Y-95555000D03*
X81585000Y-95555000D03*
X85395000Y-95555000D03*
X96825000Y-95555000D03*
X72695000Y-96825000D03*
X76505000Y-96825000D03*
X80315000Y-96825000D03*
X84125000Y-96825000D03*
X93015000Y-96825000D03*
X114605000Y-96825000D03*
X75235000Y-98095000D03*
X79045000Y-98095000D03*
X82855000Y-98095000D03*
X86665000Y-98095000D03*
X90475000Y-98095000D03*
X94285000Y-98095000D03*
X98095000Y-98095000D03*
X101905000Y-98095000D03*
X105715000Y-98095000D03*
X76505000Y-99365000D03*
X80315000Y-99365000D03*
X84125000Y-99365000D03*
X87935000Y-99365000D03*
X91745000Y-99365000D03*
X95555000Y-99365000D03*
X99365000Y-99365000D03*
X103175000Y-99365000D03*
X106985000Y-99365000D03*
X73965000Y-100635000D03*
X77775000Y-100635000D03*
X81585000Y-100635000D03*
X85395000Y-100635000D03*
X89205000Y-100635000D03*
X93015000Y-100635000D03*
X96825000Y-100635000D03*
X100635000Y-100635000D03*
X104445000Y-100635000D03*
X108232091Y-100635000D03*
X70155000Y-101905000D03*
X75235000Y-101905000D03*
X79045000Y-101905000D03*
X82855000Y-101905000D03*
X86665000Y-101905000D03*
X90475000Y-101905000D03*
X94285000Y-101905000D03*
X98095000Y-101905000D03*
X101905000Y-101905000D03*
X105715000Y-101905000D03*
X113335000Y-101905000D03*
X119685000Y-101905000D03*
X68885000Y-103175000D03*
X72695000Y-103175000D03*
X76505000Y-103175000D03*
X80315000Y-103175000D03*
X84125000Y-103175000D03*
X87935000Y-103175000D03*
X91745000Y-103175000D03*
X95555000Y-103175000D03*
X99365000Y-103175000D03*
X103175000Y-103175000D03*
X106962091Y-103175000D03*
X110777690Y-103179042D03*
X128575000Y-103175000D03*
X70155000Y-104445000D03*
X73965000Y-104445000D03*
X77775000Y-104445000D03*
X81585000Y-104445000D03*
X85395000Y-104445000D03*
X89205000Y-104445000D03*
X93015000Y-104445000D03*
X96825000Y-104445000D03*
X100635000Y-104445000D03*
X104445000Y-104445000D03*
X108272310Y-104445000D03*
D15*
X100800000Y-130450000D02*
X100800000Y-128100000D01*
X100800000Y-128100000D02*
X100850000Y-128050000D01*
D16*
X129700000Y-125450000D02*
X131381420Y-125450000D01*
X131381420Y-125450000D02*
X136646240Y-120185180D01*
D15*
X109300000Y-120200000D02*
X83550000Y-120200000D01*
X83550000Y-120200000D02*
X83250000Y-120500000D01*
D16*
X118750000Y-124300000D02*
X114650000Y-120200000D01*
X114650000Y-120200000D02*
X109300000Y-120200000D01*
D17*
G36*
X135996562Y-94254653D02*
X135365720Y-95773889D01*
X135364284Y-97418894D01*
X135992474Y-98939229D01*
X137154653Y-100103438D01*
X138673889Y-100734280D01*
X140318894Y-100735716D01*
X141839229Y-100107526D01*
X142790000Y-99158413D01*
X142790000Y-136042865D01*
X141845347Y-135096562D01*
X140326111Y-134465720D01*
X138681106Y-134464284D01*
X137160771Y-135092474D01*
X135996562Y-136254653D01*
X135365720Y-137773889D01*
X135364284Y-139418894D01*
X135992474Y-140939229D01*
X136941587Y-141890000D01*
X120750000Y-141890000D01*
X120478295Y-141944046D01*
X120247954Y-142097954D01*
X120094046Y-142328295D01*
X120040000Y-142600000D01*
X120040000Y-151790000D01*
X75060000Y-151790000D01*
X75060000Y-147393109D01*
X80474657Y-147393109D01*
X80776218Y-148122943D01*
X81334120Y-148681819D01*
X82063427Y-148984654D01*
X82853109Y-148985343D01*
X83582943Y-148683782D01*
X84141819Y-148125880D01*
X84444654Y-147396573D01*
X84444657Y-147393109D01*
X85554657Y-147393109D01*
X85856218Y-148122943D01*
X86414120Y-148681819D01*
X87143427Y-148984654D01*
X87933109Y-148985343D01*
X88662943Y-148683782D01*
X89221819Y-148125880D01*
X89524654Y-147396573D01*
X89524744Y-147293109D01*
X105784657Y-147293109D01*
X106086218Y-148022943D01*
X106644120Y-148581819D01*
X107373427Y-148884654D01*
X108163109Y-148885343D01*
X108892943Y-148583782D01*
X109451819Y-148025880D01*
X109754654Y-147296573D01*
X109754657Y-147293109D01*
X110864657Y-147293109D01*
X111166218Y-148022943D01*
X111724120Y-148581819D01*
X112453427Y-148884654D01*
X113243109Y-148885343D01*
X113972943Y-148583782D01*
X114531819Y-148025880D01*
X114834654Y-147296573D01*
X114835343Y-146506891D01*
X114533782Y-145777057D01*
X113975880Y-145218181D01*
X113246573Y-144915346D01*
X112456891Y-144914657D01*
X111727057Y-145216218D01*
X111168181Y-145774120D01*
X110865346Y-146503427D01*
X110864657Y-147293109D01*
X109754657Y-147293109D01*
X109755343Y-146506891D01*
X109453782Y-145777057D01*
X108895880Y-145218181D01*
X108166573Y-144915346D01*
X107376891Y-144914657D01*
X106647057Y-145216218D01*
X106088181Y-145774120D01*
X105785346Y-146503427D01*
X105784657Y-147293109D01*
X89524744Y-147293109D01*
X89525343Y-146606891D01*
X89223782Y-145877057D01*
X88665880Y-145318181D01*
X87936573Y-145015346D01*
X87146891Y-145014657D01*
X86417057Y-145316218D01*
X85858181Y-145874120D01*
X85555346Y-146603427D01*
X85554657Y-147393109D01*
X84444657Y-147393109D01*
X84445343Y-146606891D01*
X84143782Y-145877057D01*
X83585880Y-145318181D01*
X82856573Y-145015346D01*
X82066891Y-145014657D01*
X81337057Y-145316218D01*
X80778181Y-145874120D01*
X80475346Y-146603427D01*
X80474657Y-147393109D01*
X75060000Y-147393109D01*
X75060000Y-142600000D01*
X75005954Y-142328295D01*
X74852046Y-142097954D01*
X74621705Y-141944046D01*
X74350000Y-141890000D01*
X63057135Y-141890000D01*
X64003438Y-140945347D01*
X64634280Y-139426111D01*
X64635716Y-137781106D01*
X64007526Y-136260771D01*
X62845347Y-135096562D01*
X61326111Y-134465720D01*
X59681106Y-134464284D01*
X58160771Y-135092474D01*
X57210000Y-136041587D01*
X57210000Y-120693663D01*
X82271931Y-120693663D01*
X82420493Y-121053212D01*
X82695341Y-121328540D01*
X83054630Y-121477730D01*
X83443663Y-121478069D01*
X83803212Y-121329507D01*
X83980528Y-121152500D01*
X108707703Y-121152500D01*
X108862593Y-121255994D01*
X109300000Y-121343000D01*
X114176554Y-121343000D01*
X117941777Y-125108223D01*
X118312593Y-125355994D01*
X118750000Y-125443000D01*
X119187407Y-125355994D01*
X119558223Y-125108223D01*
X119805994Y-124737407D01*
X119893000Y-124300000D01*
X119805994Y-123862593D01*
X119558223Y-123491777D01*
X115458223Y-119391777D01*
X115087407Y-119144006D01*
X114650000Y-119057000D01*
X109300000Y-119057000D01*
X108862593Y-119144006D01*
X108707703Y-119247500D01*
X83550000Y-119247500D01*
X83185494Y-119320005D01*
X82876481Y-119526481D01*
X82757593Y-119645369D01*
X82696788Y-119670493D01*
X82421460Y-119945341D01*
X82272270Y-120304630D01*
X82271931Y-120693663D01*
X57210000Y-120693663D01*
X57210000Y-103301510D01*
X65188780Y-103301510D01*
X65381718Y-103768458D01*
X65738663Y-104126026D01*
X66205273Y-104319779D01*
X66710510Y-104320220D01*
X67177458Y-104127282D01*
X67535026Y-103770337D01*
X67728779Y-103303727D01*
X67729220Y-102798490D01*
X67536282Y-102331542D01*
X67179337Y-101973974D01*
X66712727Y-101780221D01*
X66207490Y-101779780D01*
X65740542Y-101972718D01*
X65382974Y-102329663D01*
X65189221Y-102796273D01*
X65188780Y-103301510D01*
X57210000Y-103301510D01*
X57210000Y-99157135D01*
X58154653Y-100103438D01*
X59673889Y-100734280D01*
X61318894Y-100735716D01*
X62490761Y-100251510D01*
X65188780Y-100251510D01*
X65381718Y-100718458D01*
X65738663Y-101076026D01*
X66205273Y-101269779D01*
X66710510Y-101270220D01*
X67177458Y-101077282D01*
X67535026Y-100720337D01*
X67728779Y-100253727D01*
X67729220Y-99748490D01*
X67536282Y-99281542D01*
X67179337Y-98923974D01*
X66712727Y-98730221D01*
X66207490Y-98729780D01*
X65740542Y-98922718D01*
X65382974Y-99279663D01*
X65189221Y-99746273D01*
X65188780Y-100251510D01*
X62490761Y-100251510D01*
X62839229Y-100107526D01*
X64003438Y-98945347D01*
X64634280Y-97426111D01*
X64635716Y-95781106D01*
X64209672Y-94750000D01*
X67873000Y-94750000D01*
X67873000Y-105500000D01*
X67881685Y-105546159D01*
X67908965Y-105588553D01*
X67950590Y-105616994D01*
X68000000Y-105627000D01*
X131750000Y-105627000D01*
X131796159Y-105618315D01*
X131838553Y-105591035D01*
X131866994Y-105549410D01*
X131877000Y-105500000D01*
X131877000Y-105066083D01*
X131943540Y-104999659D01*
X132092730Y-104640370D01*
X132093069Y-104251337D01*
X131944507Y-103891788D01*
X131877000Y-103824163D01*
X131877000Y-103796083D01*
X131943540Y-103729659D01*
X132092730Y-103370370D01*
X132093069Y-102981337D01*
X131944507Y-102621788D01*
X131877000Y-102554163D01*
X131877000Y-102526083D01*
X131943540Y-102459659D01*
X132092730Y-102100370D01*
X132093069Y-101711337D01*
X131944507Y-101351788D01*
X131877000Y-101284163D01*
X131877000Y-101256083D01*
X131943540Y-101189659D01*
X132092730Y-100830370D01*
X132093069Y-100441337D01*
X132014635Y-100251510D01*
X132268780Y-100251510D01*
X132461718Y-100718458D01*
X132818663Y-101076026D01*
X133285273Y-101269779D01*
X133790510Y-101270220D01*
X134257458Y-101077282D01*
X134615026Y-100720337D01*
X134808779Y-100253727D01*
X134809220Y-99748490D01*
X134616282Y-99281542D01*
X134259337Y-98923974D01*
X133792727Y-98730221D01*
X133287490Y-98729780D01*
X132820542Y-98922718D01*
X132462974Y-99279663D01*
X132269221Y-99746273D01*
X132268780Y-100251510D01*
X132014635Y-100251510D01*
X131944507Y-100081788D01*
X131877000Y-100014163D01*
X131877000Y-99986083D01*
X131943540Y-99919659D01*
X132092730Y-99560370D01*
X132093069Y-99171337D01*
X131944507Y-98811788D01*
X131877000Y-98744163D01*
X131877000Y-98716083D01*
X131943540Y-98649659D01*
X132092730Y-98290370D01*
X132093069Y-97901337D01*
X131944507Y-97541788D01*
X131877000Y-97474163D01*
X131877000Y-97446083D01*
X131943540Y-97379659D01*
X132017514Y-97201510D01*
X132268780Y-97201510D01*
X132461718Y-97668458D01*
X132818663Y-98026026D01*
X133285273Y-98219779D01*
X133790510Y-98220220D01*
X134257458Y-98027282D01*
X134615026Y-97670337D01*
X134808779Y-97203727D01*
X134809220Y-96698490D01*
X134616282Y-96231542D01*
X134259337Y-95873974D01*
X133792727Y-95680221D01*
X133287490Y-95679780D01*
X132820542Y-95872718D01*
X132462974Y-96229663D01*
X132269221Y-96696273D01*
X132268780Y-97201510D01*
X132017514Y-97201510D01*
X132092730Y-97020370D01*
X132093069Y-96631337D01*
X131944507Y-96271788D01*
X131877000Y-96204163D01*
X131877000Y-96176083D01*
X131943540Y-96109659D01*
X132092730Y-95750370D01*
X132093069Y-95361337D01*
X131944507Y-95001788D01*
X131877000Y-94934163D01*
X131877000Y-94750000D01*
X131868315Y-94703841D01*
X131841035Y-94661447D01*
X131799410Y-94633006D01*
X131750000Y-94623000D01*
X131420500Y-94623000D01*
X131310370Y-94577270D01*
X130921337Y-94576931D01*
X130809841Y-94623000D01*
X130150500Y-94623000D01*
X130040370Y-94577270D01*
X129651337Y-94576931D01*
X129539841Y-94623000D01*
X128793949Y-94623000D01*
X128676875Y-94586635D01*
X128298542Y-94621362D01*
X128294587Y-94623000D01*
X127523949Y-94623000D01*
X127406875Y-94586635D01*
X127028542Y-94621362D01*
X127024587Y-94623000D01*
X126340500Y-94623000D01*
X126230370Y-94577270D01*
X125841337Y-94576931D01*
X125729841Y-94623000D01*
X125070500Y-94623000D01*
X124960370Y-94577270D01*
X124571337Y-94576931D01*
X124459841Y-94623000D01*
X123800500Y-94623000D01*
X123690370Y-94577270D01*
X123301337Y-94576931D01*
X123189841Y-94623000D01*
X122530500Y-94623000D01*
X122420370Y-94577270D01*
X122031337Y-94576931D01*
X121919841Y-94623000D01*
X121260500Y-94623000D01*
X121150370Y-94577270D01*
X120761337Y-94576931D01*
X120649841Y-94623000D01*
X119990500Y-94623000D01*
X119880370Y-94577270D01*
X119491337Y-94576931D01*
X119379841Y-94623000D01*
X118720500Y-94623000D01*
X118610370Y-94577270D01*
X118221337Y-94576931D01*
X118109841Y-94623000D01*
X117450500Y-94623000D01*
X117340370Y-94577270D01*
X116951337Y-94576931D01*
X116839841Y-94623000D01*
X116180500Y-94623000D01*
X116070370Y-94577270D01*
X115681337Y-94576931D01*
X115569841Y-94623000D01*
X114910500Y-94623000D01*
X114800370Y-94577270D01*
X114411337Y-94576931D01*
X114299841Y-94623000D01*
X113640500Y-94623000D01*
X113530370Y-94577270D01*
X113141337Y-94576931D01*
X113029841Y-94623000D01*
X112370500Y-94623000D01*
X112260370Y-94577270D01*
X111871337Y-94576931D01*
X111759841Y-94623000D01*
X111100500Y-94623000D01*
X110990370Y-94577270D01*
X110601337Y-94576931D01*
X110489841Y-94623000D01*
X109830500Y-94623000D01*
X109720370Y-94577270D01*
X109331337Y-94576931D01*
X109219841Y-94623000D01*
X108560500Y-94623000D01*
X108450370Y-94577270D01*
X108061337Y-94576931D01*
X107949841Y-94623000D01*
X107290500Y-94623000D01*
X107180370Y-94577270D01*
X106791337Y-94576931D01*
X106679841Y-94623000D01*
X106020500Y-94623000D01*
X105910370Y-94577270D01*
X105521337Y-94576931D01*
X105409841Y-94623000D01*
X104750500Y-94623000D01*
X104640370Y-94577270D01*
X104251337Y-94576931D01*
X104139841Y-94623000D01*
X103480500Y-94623000D01*
X103370370Y-94577270D01*
X102981337Y-94576931D01*
X102869841Y-94623000D01*
X102210500Y-94623000D01*
X102100370Y-94577270D01*
X101711337Y-94576931D01*
X101599841Y-94623000D01*
X100940500Y-94623000D01*
X100830370Y-94577270D01*
X100441337Y-94576931D01*
X100329841Y-94623000D01*
X99670500Y-94623000D01*
X99560370Y-94577270D01*
X99171337Y-94576931D01*
X99059841Y-94623000D01*
X98400500Y-94623000D01*
X98290370Y-94577270D01*
X97901337Y-94576931D01*
X97789841Y-94623000D01*
X97130500Y-94623000D01*
X97020370Y-94577270D01*
X96631337Y-94576931D01*
X96519841Y-94623000D01*
X95860500Y-94623000D01*
X95750370Y-94577270D01*
X95361337Y-94576931D01*
X95249841Y-94623000D01*
X94590500Y-94623000D01*
X94480370Y-94577270D01*
X94091337Y-94576931D01*
X93979841Y-94623000D01*
X93320500Y-94623000D01*
X93210370Y-94577270D01*
X92821337Y-94576931D01*
X92709841Y-94623000D01*
X92050500Y-94623000D01*
X91940370Y-94577270D01*
X91551337Y-94576931D01*
X91439841Y-94623000D01*
X90780500Y-94623000D01*
X90670370Y-94577270D01*
X90281337Y-94576931D01*
X90169841Y-94623000D01*
X89510500Y-94623000D01*
X89400370Y-94577270D01*
X89011337Y-94576931D01*
X88899841Y-94623000D01*
X88240500Y-94623000D01*
X88130370Y-94577270D01*
X87741337Y-94576931D01*
X87629841Y-94623000D01*
X86970500Y-94623000D01*
X86860370Y-94577270D01*
X86471337Y-94576931D01*
X86359841Y-94623000D01*
X85700500Y-94623000D01*
X85590370Y-94577270D01*
X85201337Y-94576931D01*
X85089841Y-94623000D01*
X84430500Y-94623000D01*
X84320370Y-94577270D01*
X83931337Y-94576931D01*
X83819841Y-94623000D01*
X83160500Y-94623000D01*
X83050370Y-94577270D01*
X82661337Y-94576931D01*
X82549841Y-94623000D01*
X81890500Y-94623000D01*
X81780370Y-94577270D01*
X81391337Y-94576931D01*
X81279841Y-94623000D01*
X80620500Y-94623000D01*
X80510370Y-94577270D01*
X80121337Y-94576931D01*
X80009841Y-94623000D01*
X79350500Y-94623000D01*
X79240370Y-94577270D01*
X78851337Y-94576931D01*
X78739841Y-94623000D01*
X78080500Y-94623000D01*
X77970370Y-94577270D01*
X77581337Y-94576931D01*
X77469841Y-94623000D01*
X76810500Y-94623000D01*
X76700370Y-94577270D01*
X76311337Y-94576931D01*
X76199841Y-94623000D01*
X75540500Y-94623000D01*
X75430370Y-94577270D01*
X75041337Y-94576931D01*
X74929841Y-94623000D01*
X74270500Y-94623000D01*
X74160370Y-94577270D01*
X73771337Y-94576931D01*
X73659841Y-94623000D01*
X73000500Y-94623000D01*
X72890370Y-94577270D01*
X72501337Y-94576931D01*
X72389841Y-94623000D01*
X71730500Y-94623000D01*
X71620370Y-94577270D01*
X71231337Y-94576931D01*
X71119841Y-94623000D01*
X70460500Y-94623000D01*
X70350370Y-94577270D01*
X69961337Y-94576931D01*
X69849841Y-94623000D01*
X69190500Y-94623000D01*
X69080370Y-94577270D01*
X68691337Y-94576931D01*
X68579841Y-94623000D01*
X68000000Y-94623000D01*
X67953841Y-94631685D01*
X67911447Y-94658965D01*
X67883006Y-94700590D01*
X67873000Y-94750000D01*
X64209672Y-94750000D01*
X64007526Y-94260771D01*
X63059191Y-93310780D01*
X136942084Y-93310780D01*
X135996562Y-94254653D01*
X135996562Y-94254653D01*
G37*
X135996562Y-94254653D02*
X135365720Y-95773889D01*
X135364284Y-97418894D01*
X135992474Y-98939229D01*
X137154653Y-100103438D01*
X138673889Y-100734280D01*
X140318894Y-100735716D01*
X141839229Y-100107526D01*
X142790000Y-99158413D01*
X142790000Y-136042865D01*
X141845347Y-135096562D01*
X140326111Y-134465720D01*
X138681106Y-134464284D01*
X137160771Y-135092474D01*
X135996562Y-136254653D01*
X135365720Y-137773889D01*
X135364284Y-139418894D01*
X135992474Y-140939229D01*
X136941587Y-141890000D01*
X120750000Y-141890000D01*
X120478295Y-141944046D01*
X120247954Y-142097954D01*
X120094046Y-142328295D01*
X120040000Y-142600000D01*
X120040000Y-151790000D01*
X75060000Y-151790000D01*
X75060000Y-147393109D01*
X80474657Y-147393109D01*
X80776218Y-148122943D01*
X81334120Y-148681819D01*
X82063427Y-148984654D01*
X82853109Y-148985343D01*
X83582943Y-148683782D01*
X84141819Y-148125880D01*
X84444654Y-147396573D01*
X84444657Y-147393109D01*
X85554657Y-147393109D01*
X85856218Y-148122943D01*
X86414120Y-148681819D01*
X87143427Y-148984654D01*
X87933109Y-148985343D01*
X88662943Y-148683782D01*
X89221819Y-148125880D01*
X89524654Y-147396573D01*
X89524744Y-147293109D01*
X105784657Y-147293109D01*
X106086218Y-148022943D01*
X106644120Y-148581819D01*
X107373427Y-148884654D01*
X108163109Y-148885343D01*
X108892943Y-148583782D01*
X109451819Y-148025880D01*
X109754654Y-147296573D01*
X109754657Y-147293109D01*
X110864657Y-147293109D01*
X111166218Y-148022943D01*
X111724120Y-148581819D01*
X112453427Y-148884654D01*
X113243109Y-148885343D01*
X113972943Y-148583782D01*
X114531819Y-148025880D01*
X114834654Y-147296573D01*
X114835343Y-146506891D01*
X114533782Y-145777057D01*
X113975880Y-145218181D01*
X113246573Y-144915346D01*
X112456891Y-144914657D01*
X111727057Y-145216218D01*
X111168181Y-145774120D01*
X110865346Y-146503427D01*
X110864657Y-147293109D01*
X109754657Y-147293109D01*
X109755343Y-146506891D01*
X109453782Y-145777057D01*
X108895880Y-145218181D01*
X108166573Y-144915346D01*
X107376891Y-144914657D01*
X106647057Y-145216218D01*
X106088181Y-145774120D01*
X105785346Y-146503427D01*
X105784657Y-147293109D01*
X89524744Y-147293109D01*
X89525343Y-146606891D01*
X89223782Y-145877057D01*
X88665880Y-145318181D01*
X87936573Y-145015346D01*
X87146891Y-145014657D01*
X86417057Y-145316218D01*
X85858181Y-145874120D01*
X85555346Y-146603427D01*
X85554657Y-147393109D01*
X84444657Y-147393109D01*
X84445343Y-146606891D01*
X84143782Y-145877057D01*
X83585880Y-145318181D01*
X82856573Y-145015346D01*
X82066891Y-145014657D01*
X81337057Y-145316218D01*
X80778181Y-145874120D01*
X80475346Y-146603427D01*
X80474657Y-147393109D01*
X75060000Y-147393109D01*
X75060000Y-142600000D01*
X75005954Y-142328295D01*
X74852046Y-142097954D01*
X74621705Y-141944046D01*
X74350000Y-141890000D01*
X63057135Y-141890000D01*
X64003438Y-140945347D01*
X64634280Y-139426111D01*
X64635716Y-137781106D01*
X64007526Y-136260771D01*
X62845347Y-135096562D01*
X61326111Y-134465720D01*
X59681106Y-134464284D01*
X58160771Y-135092474D01*
X57210000Y-136041587D01*
X57210000Y-120693663D01*
X82271931Y-120693663D01*
X82420493Y-121053212D01*
X82695341Y-121328540D01*
X83054630Y-121477730D01*
X83443663Y-121478069D01*
X83803212Y-121329507D01*
X83980528Y-121152500D01*
X108707703Y-121152500D01*
X108862593Y-121255994D01*
X109300000Y-121343000D01*
X114176554Y-121343000D01*
X117941777Y-125108223D01*
X118312593Y-125355994D01*
X118750000Y-125443000D01*
X119187407Y-125355994D01*
X119558223Y-125108223D01*
X119805994Y-124737407D01*
X119893000Y-124300000D01*
X119805994Y-123862593D01*
X119558223Y-123491777D01*
X115458223Y-119391777D01*
X115087407Y-119144006D01*
X114650000Y-119057000D01*
X109300000Y-119057000D01*
X108862593Y-119144006D01*
X108707703Y-119247500D01*
X83550000Y-119247500D01*
X83185494Y-119320005D01*
X82876481Y-119526481D01*
X82757593Y-119645369D01*
X82696788Y-119670493D01*
X82421460Y-119945341D01*
X82272270Y-120304630D01*
X82271931Y-120693663D01*
X57210000Y-120693663D01*
X57210000Y-103301510D01*
X65188780Y-103301510D01*
X65381718Y-103768458D01*
X65738663Y-104126026D01*
X66205273Y-104319779D01*
X66710510Y-104320220D01*
X67177458Y-104127282D01*
X67535026Y-103770337D01*
X67728779Y-103303727D01*
X67729220Y-102798490D01*
X67536282Y-102331542D01*
X67179337Y-101973974D01*
X66712727Y-101780221D01*
X66207490Y-101779780D01*
X65740542Y-101972718D01*
X65382974Y-102329663D01*
X65189221Y-102796273D01*
X65188780Y-103301510D01*
X57210000Y-103301510D01*
X57210000Y-99157135D01*
X58154653Y-100103438D01*
X59673889Y-100734280D01*
X61318894Y-100735716D01*
X62490761Y-100251510D01*
X65188780Y-100251510D01*
X65381718Y-100718458D01*
X65738663Y-101076026D01*
X66205273Y-101269779D01*
X66710510Y-101270220D01*
X67177458Y-101077282D01*
X67535026Y-100720337D01*
X67728779Y-100253727D01*
X67729220Y-99748490D01*
X67536282Y-99281542D01*
X67179337Y-98923974D01*
X66712727Y-98730221D01*
X66207490Y-98729780D01*
X65740542Y-98922718D01*
X65382974Y-99279663D01*
X65189221Y-99746273D01*
X65188780Y-100251510D01*
X62490761Y-100251510D01*
X62839229Y-100107526D01*
X64003438Y-98945347D01*
X64634280Y-97426111D01*
X64635716Y-95781106D01*
X64209672Y-94750000D01*
X67873000Y-94750000D01*
X67873000Y-105500000D01*
X67881685Y-105546159D01*
X67908965Y-105588553D01*
X67950590Y-105616994D01*
X68000000Y-105627000D01*
X131750000Y-105627000D01*
X131796159Y-105618315D01*
X131838553Y-105591035D01*
X131866994Y-105549410D01*
X131877000Y-105500000D01*
X131877000Y-105066083D01*
X131943540Y-104999659D01*
X132092730Y-104640370D01*
X132093069Y-104251337D01*
X131944507Y-103891788D01*
X131877000Y-103824163D01*
X131877000Y-103796083D01*
X131943540Y-103729659D01*
X132092730Y-103370370D01*
X132093069Y-102981337D01*
X131944507Y-102621788D01*
X131877000Y-102554163D01*
X131877000Y-102526083D01*
X131943540Y-102459659D01*
X132092730Y-102100370D01*
X132093069Y-101711337D01*
X131944507Y-101351788D01*
X131877000Y-101284163D01*
X131877000Y-101256083D01*
X131943540Y-101189659D01*
X132092730Y-100830370D01*
X132093069Y-100441337D01*
X132014635Y-100251510D01*
X132268780Y-100251510D01*
X132461718Y-100718458D01*
X132818663Y-101076026D01*
X133285273Y-101269779D01*
X133790510Y-101270220D01*
X134257458Y-101077282D01*
X134615026Y-100720337D01*
X134808779Y-100253727D01*
X134809220Y-99748490D01*
X134616282Y-99281542D01*
X134259337Y-98923974D01*
X133792727Y-98730221D01*
X133287490Y-98729780D01*
X132820542Y-98922718D01*
X132462974Y-99279663D01*
X132269221Y-99746273D01*
X132268780Y-100251510D01*
X132014635Y-100251510D01*
X131944507Y-100081788D01*
X131877000Y-100014163D01*
X131877000Y-99986083D01*
X131943540Y-99919659D01*
X132092730Y-99560370D01*
X132093069Y-99171337D01*
X131944507Y-98811788D01*
X131877000Y-98744163D01*
X131877000Y-98716083D01*
X131943540Y-98649659D01*
X132092730Y-98290370D01*
X132093069Y-97901337D01*
X131944507Y-97541788D01*
X131877000Y-97474163D01*
X131877000Y-97446083D01*
X131943540Y-97379659D01*
X132017514Y-97201510D01*
X132268780Y-97201510D01*
X132461718Y-97668458D01*
X132818663Y-98026026D01*
X133285273Y-98219779D01*
X133790510Y-98220220D01*
X134257458Y-98027282D01*
X134615026Y-97670337D01*
X134808779Y-97203727D01*
X134809220Y-96698490D01*
X134616282Y-96231542D01*
X134259337Y-95873974D01*
X133792727Y-95680221D01*
X133287490Y-95679780D01*
X132820542Y-95872718D01*
X132462974Y-96229663D01*
X132269221Y-96696273D01*
X132268780Y-97201510D01*
X132017514Y-97201510D01*
X132092730Y-97020370D01*
X132093069Y-96631337D01*
X131944507Y-96271788D01*
X131877000Y-96204163D01*
X131877000Y-96176083D01*
X131943540Y-96109659D01*
X132092730Y-95750370D01*
X132093069Y-95361337D01*
X131944507Y-95001788D01*
X131877000Y-94934163D01*
X131877000Y-94750000D01*
X131868315Y-94703841D01*
X131841035Y-94661447D01*
X131799410Y-94633006D01*
X131750000Y-94623000D01*
X131420500Y-94623000D01*
X131310370Y-94577270D01*
X130921337Y-94576931D01*
X130809841Y-94623000D01*
X130150500Y-94623000D01*
X130040370Y-94577270D01*
X129651337Y-94576931D01*
X129539841Y-94623000D01*
X128793949Y-94623000D01*
X128676875Y-94586635D01*
X128298542Y-94621362D01*
X128294587Y-94623000D01*
X127523949Y-94623000D01*
X127406875Y-94586635D01*
X127028542Y-94621362D01*
X127024587Y-94623000D01*
X126340500Y-94623000D01*
X126230370Y-94577270D01*
X125841337Y-94576931D01*
X125729841Y-94623000D01*
X125070500Y-94623000D01*
X124960370Y-94577270D01*
X124571337Y-94576931D01*
X124459841Y-94623000D01*
X123800500Y-94623000D01*
X123690370Y-94577270D01*
X123301337Y-94576931D01*
X123189841Y-94623000D01*
X122530500Y-94623000D01*
X122420370Y-94577270D01*
X122031337Y-94576931D01*
X121919841Y-94623000D01*
X121260500Y-94623000D01*
X121150370Y-94577270D01*
X120761337Y-94576931D01*
X120649841Y-94623000D01*
X119990500Y-94623000D01*
X119880370Y-94577270D01*
X119491337Y-94576931D01*
X119379841Y-94623000D01*
X118720500Y-94623000D01*
X118610370Y-94577270D01*
X118221337Y-94576931D01*
X118109841Y-94623000D01*
X117450500Y-94623000D01*
X117340370Y-94577270D01*
X116951337Y-94576931D01*
X116839841Y-94623000D01*
X116180500Y-94623000D01*
X116070370Y-94577270D01*
X115681337Y-94576931D01*
X115569841Y-94623000D01*
X114910500Y-94623000D01*
X114800370Y-94577270D01*
X114411337Y-94576931D01*
X114299841Y-94623000D01*
X113640500Y-94623000D01*
X113530370Y-94577270D01*
X113141337Y-94576931D01*
X113029841Y-94623000D01*
X112370500Y-94623000D01*
X112260370Y-94577270D01*
X111871337Y-94576931D01*
X111759841Y-94623000D01*
X111100500Y-94623000D01*
X110990370Y-94577270D01*
X110601337Y-94576931D01*
X110489841Y-94623000D01*
X109830500Y-94623000D01*
X109720370Y-94577270D01*
X109331337Y-94576931D01*
X109219841Y-94623000D01*
X108560500Y-94623000D01*
X108450370Y-94577270D01*
X108061337Y-94576931D01*
X107949841Y-94623000D01*
X107290500Y-94623000D01*
X107180370Y-94577270D01*
X106791337Y-94576931D01*
X106679841Y-94623000D01*
X106020500Y-94623000D01*
X105910370Y-94577270D01*
X105521337Y-94576931D01*
X105409841Y-94623000D01*
X104750500Y-94623000D01*
X104640370Y-94577270D01*
X104251337Y-94576931D01*
X104139841Y-94623000D01*
X103480500Y-94623000D01*
X103370370Y-94577270D01*
X102981337Y-94576931D01*
X102869841Y-94623000D01*
X102210500Y-94623000D01*
X102100370Y-94577270D01*
X101711337Y-94576931D01*
X101599841Y-94623000D01*
X100940500Y-94623000D01*
X100830370Y-94577270D01*
X100441337Y-94576931D01*
X100329841Y-94623000D01*
X99670500Y-94623000D01*
X99560370Y-94577270D01*
X99171337Y-94576931D01*
X99059841Y-94623000D01*
X98400500Y-94623000D01*
X98290370Y-94577270D01*
X97901337Y-94576931D01*
X97789841Y-94623000D01*
X97130500Y-94623000D01*
X97020370Y-94577270D01*
X96631337Y-94576931D01*
X96519841Y-94623000D01*
X95860500Y-94623000D01*
X95750370Y-94577270D01*
X95361337Y-94576931D01*
X95249841Y-94623000D01*
X94590500Y-94623000D01*
X94480370Y-94577270D01*
X94091337Y-94576931D01*
X93979841Y-94623000D01*
X93320500Y-94623000D01*
X93210370Y-94577270D01*
X92821337Y-94576931D01*
X92709841Y-94623000D01*
X92050500Y-94623000D01*
X91940370Y-94577270D01*
X91551337Y-94576931D01*
X91439841Y-94623000D01*
X90780500Y-94623000D01*
X90670370Y-94577270D01*
X90281337Y-94576931D01*
X90169841Y-94623000D01*
X89510500Y-94623000D01*
X89400370Y-94577270D01*
X89011337Y-94576931D01*
X88899841Y-94623000D01*
X88240500Y-94623000D01*
X88130370Y-94577270D01*
X87741337Y-94576931D01*
X87629841Y-94623000D01*
X86970500Y-94623000D01*
X86860370Y-94577270D01*
X86471337Y-94576931D01*
X86359841Y-94623000D01*
X85700500Y-94623000D01*
X85590370Y-94577270D01*
X85201337Y-94576931D01*
X85089841Y-94623000D01*
X84430500Y-94623000D01*
X84320370Y-94577270D01*
X83931337Y-94576931D01*
X83819841Y-94623000D01*
X83160500Y-94623000D01*
X83050370Y-94577270D01*
X82661337Y-94576931D01*
X82549841Y-94623000D01*
X81890500Y-94623000D01*
X81780370Y-94577270D01*
X81391337Y-94576931D01*
X81279841Y-94623000D01*
X80620500Y-94623000D01*
X80510370Y-94577270D01*
X80121337Y-94576931D01*
X80009841Y-94623000D01*
X79350500Y-94623000D01*
X79240370Y-94577270D01*
X78851337Y-94576931D01*
X78739841Y-94623000D01*
X78080500Y-94623000D01*
X77970370Y-94577270D01*
X77581337Y-94576931D01*
X77469841Y-94623000D01*
X76810500Y-94623000D01*
X76700370Y-94577270D01*
X76311337Y-94576931D01*
X76199841Y-94623000D01*
X75540500Y-94623000D01*
X75430370Y-94577270D01*
X75041337Y-94576931D01*
X74929841Y-94623000D01*
X74270500Y-94623000D01*
X74160370Y-94577270D01*
X73771337Y-94576931D01*
X73659841Y-94623000D01*
X73000500Y-94623000D01*
X72890370Y-94577270D01*
X72501337Y-94576931D01*
X72389841Y-94623000D01*
X71730500Y-94623000D01*
X71620370Y-94577270D01*
X71231337Y-94576931D01*
X71119841Y-94623000D01*
X70460500Y-94623000D01*
X70350370Y-94577270D01*
X69961337Y-94576931D01*
X69849841Y-94623000D01*
X69190500Y-94623000D01*
X69080370Y-94577270D01*
X68691337Y-94576931D01*
X68579841Y-94623000D01*
X68000000Y-94623000D01*
X67953841Y-94631685D01*
X67911447Y-94658965D01*
X67883006Y-94700590D01*
X67873000Y-94750000D01*
X64209672Y-94750000D01*
X64007526Y-94260771D01*
X63059191Y-93310780D01*
X136942084Y-93310780D01*
X135996562Y-94254653D01*
M02*
