M48
;DRILL file {KiCad 4.0.7} date Fri Jan 12 23:49:56 2018
;FORMAT={-:-/ absolute / inch / decimal}
FMAT,2
INCH,TZ
T1C0.013
T2C0.067
T3C0.138
%
G90
G05
M72
T1
X2.712Y-3.762
X2.712Y-3.812
X2.712Y-3.862
X2.712Y-3.912
X2.712Y-3.962
X2.712Y-4.012
X2.712Y-4.062
X2.712Y-4.112
X2.762Y-3.762
X2.762Y-3.812
X2.762Y-3.862
X2.762Y-3.912
X2.762Y-3.962
X2.762Y-4.012
X2.762Y-4.062
X2.762Y-4.112
X2.812Y-3.762
X2.812Y-3.812
X2.812Y-3.862
X2.812Y-3.912
X2.812Y-3.962
X2.812Y-4.012
X2.812Y-4.062
X2.812Y-4.112
X2.862Y-3.762
X2.862Y-3.812
X2.862Y-3.862
X2.862Y-3.912
X2.862Y-3.962
X2.862Y-4.012
X2.862Y-4.062
X2.862Y-4.112
X2.912Y-3.762
X2.912Y-3.812
X2.912Y-3.862
X2.912Y-3.912
X2.912Y-3.962
X2.912Y-4.012
X2.912Y-4.062
X2.912Y-4.112
X2.962Y-3.762
X2.962Y-3.812
X2.962Y-3.862
X2.962Y-3.912
X2.962Y-3.962
X2.962Y-4.012
X2.962Y-4.062
X2.962Y-4.112
X3.012Y-3.762
X3.012Y-3.812
X3.012Y-3.862
X3.012Y-3.912
X3.012Y-3.962
X3.012Y-4.012
X3.012Y-4.062
X3.012Y-4.112
X3.062Y-3.762
X3.062Y-3.812
X3.062Y-3.862
X3.062Y-3.912
X3.062Y-3.962
X3.062Y-4.012
X3.062Y-4.062
X3.062Y-4.112
X3.112Y-3.762
X3.112Y-3.812
X3.112Y-3.862
X3.112Y-3.912
X3.112Y-3.962
X3.112Y-4.012
X3.112Y-4.062
X3.112Y-4.112
X3.162Y-3.762
X3.162Y-3.812
X3.162Y-3.862
X3.162Y-3.912
X3.162Y-3.962
X3.162Y-4.012
X3.162Y-4.062
X3.162Y-4.112
X3.212Y-3.762
X3.212Y-3.812
X3.212Y-3.862
X3.212Y-3.912
X3.212Y-3.962
X3.212Y-4.012
X3.212Y-4.062
X3.212Y-4.112
X3.262Y-3.762
X3.262Y-3.812
X3.262Y-3.862
X3.262Y-3.912
X3.262Y-3.962
X3.262Y-4.012
X3.262Y-4.062
X3.262Y-4.112
X3.2776Y-4.7441
X3.312Y-3.762
X3.312Y-3.812
X3.312Y-3.862
X3.312Y-3.912
X3.312Y-3.962
X3.312Y-4.012
X3.312Y-4.062
X3.312Y-4.112
X3.362Y-3.762
X3.362Y-3.812
X3.362Y-3.862
X3.362Y-3.912
X3.362Y-3.962
X3.362Y-4.012
X3.362Y-4.062
X3.362Y-4.112
X3.412Y-3.762
X3.412Y-3.812
X3.412Y-3.862
X3.412Y-3.912
X3.412Y-3.962
X3.412Y-4.012
X3.412Y-4.062
X3.412Y-4.112
X3.462Y-3.762
X3.462Y-3.812
X3.462Y-3.862
X3.462Y-3.912
X3.462Y-3.962
X3.462Y-4.012
X3.462Y-4.062
X3.462Y-4.112
X3.512Y-3.762
X3.512Y-3.812
X3.512Y-3.862
X3.512Y-3.912
X3.512Y-3.962
X3.512Y-4.012
X3.512Y-4.062
X3.512Y-4.112
X3.562Y-3.762
X3.562Y-3.812
X3.562Y-3.862
X3.562Y-3.912
X3.562Y-3.962
X3.562Y-4.012
X3.562Y-4.062
X3.562Y-4.112
X3.612Y-3.762
X3.612Y-3.812
X3.612Y-3.862
X3.612Y-3.912
X3.612Y-3.962
X3.612Y-4.012
X3.612Y-4.062
X3.612Y-4.112
X3.662Y-3.762
X3.662Y-3.812
X3.662Y-3.862
X3.662Y-3.912
X3.662Y-3.962
X3.662Y-4.012
X3.662Y-4.062
X3.662Y-4.112
X3.712Y-3.762
X3.712Y-3.812
X3.712Y-3.862
X3.712Y-3.912
X3.712Y-3.962
X3.712Y-4.012
X3.712Y-4.062
X3.712Y-4.112
X3.762Y-3.762
X3.762Y-3.812
X3.762Y-3.862
X3.762Y-3.912
X3.762Y-3.962
X3.762Y-4.012
X3.762Y-4.062
X3.762Y-4.112
X3.812Y-3.762
X3.812Y-3.812
X3.812Y-3.862
X3.812Y-3.912
X3.812Y-3.962
X3.812Y-4.012
X3.812Y-4.062
X3.812Y-4.112
X3.862Y-3.762
X3.862Y-3.812
X3.862Y-3.862
X3.862Y-3.912
X3.862Y-3.962
X3.862Y-4.012
X3.862Y-4.062
X3.862Y-4.112
X3.912Y-3.762
X3.912Y-3.812
X3.912Y-3.862
X3.912Y-3.912
X3.912Y-3.962
X3.912Y-4.012
X3.912Y-4.062
X3.912Y-4.112
X3.962Y-3.762
X3.962Y-3.812
X3.962Y-3.862
X3.962Y-3.912
X3.962Y-3.962
X3.962Y-4.012
X3.962Y-4.062
X3.962Y-4.112
X3.9685Y-5.1358
X3.9705Y-5.0413
X4.012Y-3.762
X4.012Y-3.812
X4.012Y-3.862
X4.012Y-3.912
X4.012Y-3.962
X4.012Y-4.012
X4.012Y-4.062
X4.012Y-4.112
X4.062Y-3.762
X4.062Y-3.812
X4.062Y-3.862
X4.062Y-3.912
X4.062Y-3.962
X4.062Y-4.012
X4.062Y-4.062
X4.062Y-4.112
X4.112Y-3.762
X4.112Y-3.812
X4.112Y-3.862
X4.112Y-3.912
X4.112Y-3.962
X4.112Y-4.012
X4.112Y-4.062
X4.112Y-4.112
X4.162Y-3.762
X4.162Y-3.812
X4.162Y-3.862
X4.162Y-3.912
X4.162Y-3.962
X4.162Y-4.012
X4.162Y-4.062
X4.162Y-4.112
X4.2111Y-3.962
X4.2111Y-4.012
X4.2111Y-4.062
X4.2111Y-4.112
X4.212Y-3.762
X4.212Y-3.812
X4.212Y-3.862
X4.212Y-3.912
X4.2611Y-3.962
X4.262Y-3.762
X4.262Y-3.812
X4.262Y-3.862
X4.262Y-3.912
X4.2627Y-4.012
X4.2627Y-4.062
X4.2627Y-4.112
X4.3031Y-4.7323
X4.312Y-3.762
X4.312Y-3.812
X4.312Y-3.862
X4.312Y-3.912
X4.312Y-3.962
X4.312Y-4.012
X4.312Y-4.062
X4.312Y-4.112
X4.3613Y-3.912
X4.3613Y-3.9623
X4.3613Y-4.0122
X4.3613Y-4.0622
X4.3613Y-4.1123
X4.362Y-3.762
X4.362Y-3.812
X4.362Y-3.8611
X4.412Y-3.762
X4.412Y-3.812
X4.412Y-3.862
X4.4129Y-3.912
X4.4129Y-3.962
X4.4129Y-4.012
X4.4129Y-4.062
X4.4129Y-4.112
X4.462Y-3.762
X4.462Y-3.812
X4.462Y-3.862
X4.462Y-3.912
X4.462Y-3.962
X4.462Y-4.012
X4.462Y-4.062
X4.462Y-4.112
X4.512Y-3.762
X4.512Y-3.812
X4.512Y-3.862
X4.512Y-3.912
X4.512Y-3.962
X4.512Y-4.012
X4.512Y-4.062
X4.512Y-4.112
X4.562Y-3.762
X4.562Y-3.812
X4.562Y-3.862
X4.562Y-3.912
X4.562Y-3.962
X4.562Y-4.012
X4.562Y-4.062
X4.562Y-4.112
X4.612Y-3.762
X4.612Y-3.812
X4.612Y-3.862
X4.612Y-3.912
X4.612Y-3.962
X4.612Y-4.012
X4.612Y-4.062
X4.612Y-4.112
X4.662Y-3.762
X4.662Y-3.812
X4.662Y-3.862
X4.662Y-3.912
X4.662Y-3.962
X4.662Y-4.012
X4.662Y-4.062
X4.662Y-4.112
X4.6752Y-4.8937
X4.712Y-3.762
X4.712Y-3.812
X4.712Y-3.862
X4.712Y-3.912
X4.712Y-3.962
X4.712Y-4.012
X4.712Y-4.062
X4.712Y-4.112
X4.762Y-3.762
X4.762Y-3.812
X4.762Y-3.862
X4.762Y-3.912
X4.762Y-3.962
X4.762Y-4.012
X4.762Y-4.062
X4.762Y-4.112
X4.812Y-3.762
X4.812Y-3.812
X4.812Y-3.862
X4.812Y-3.912
X4.812Y-3.962
X4.812Y-4.012
X4.812Y-4.062
X4.812Y-4.112
X4.862Y-3.762
X4.862Y-3.812
X4.862Y-3.862
X4.862Y-3.912
X4.862Y-3.962
X4.862Y-4.012
X4.862Y-4.062
X4.862Y-4.112
X4.912Y-3.762
X4.912Y-3.812
X4.912Y-3.862
X4.912Y-3.912
X4.912Y-3.962
X4.912Y-4.012
X4.912Y-4.062
X4.912Y-4.112
X4.962Y-3.762
X4.962Y-3.812
X4.962Y-3.862
X4.962Y-3.912
X4.962Y-3.962
X4.962Y-4.012
X4.962Y-4.062
X4.962Y-4.112
X5.012Y-3.762
X5.012Y-3.812
X5.012Y-3.862
X5.012Y-3.912
X5.012Y-3.962
X5.012Y-4.012
X5.012Y-4.062
X5.012Y-4.112
X5.062Y-3.762
X5.062Y-3.812
X5.062Y-3.862
X5.062Y-3.912
X5.062Y-3.962
X5.062Y-4.012
X5.062Y-4.062
X5.062Y-4.112
X5.1063Y-4.939
X5.112Y-3.762
X5.112Y-3.812
X5.112Y-3.862
X5.112Y-3.912
X5.112Y-3.962
X5.112Y-4.012
X5.112Y-4.062
X5.112Y-4.112
X5.162Y-3.762
X5.162Y-3.812
X5.162Y-3.862
X5.162Y-3.912
X5.162Y-3.962
X5.162Y-4.012
X5.162Y-4.062
X5.162Y-4.112
X5.3798Y-4.7317
T2
X3.2465Y-5.7874
X3.4465Y-5.7874
X4.2429Y-5.7835
X4.4429Y-5.7835
T3
X2.3819Y-3.8031
X2.3819Y-5.4567
X5.4921Y-3.8031
X5.4921Y-5.4567
T0
M30
