G04 #@! TF.FileFunction,Copper,L1,Top,Signal*
%FSLAX46Y46*%
G04 Gerber Fmt 4.6, Leading zero omitted, Abs format (unit mm)*
G04 Created by KiCad (PCBNEW 4.0.7) date Sat Jan 13 00:04:00 2018*
%MOMM*%
%LPD*%
G01*
G04 APERTURE LIST*
%ADD10C,0.100000*%
%ADD11C,7.000000*%
%ADD12C,0.640000*%
%ADD13R,1.700000X2.000000*%
%ADD14R,0.500000X2.388000*%
%ADD15R,2.000000X1.700000*%
%ADD16R,2.000000X1.600000*%
%ADD17R,1.600000X2.000000*%
%ADD18R,1.500000X1.250000*%
%ADD19C,2.700000*%
%ADD20R,1.300000X1.500000*%
%ADD21R,0.650000X1.060000*%
%ADD22C,1.500000*%
%ADD23R,2.150000X0.950000*%
%ADD24R,2.150000X3.250000*%
%ADD25C,0.685800*%
%ADD26C,0.635000*%
%ADD27C,0.254000*%
%ADD28C,1.016000*%
%ADD29C,0.152400*%
G04 APERTURE END LIST*
D10*
D11*
X139500000Y-138600000D03*
X60500000Y-138600000D03*
X139500000Y-96600000D03*
D12*
X68885000Y-95555000D03*
X70155000Y-95555000D03*
X71425000Y-95555000D03*
X72695000Y-95555000D03*
X73965000Y-95555000D03*
X75235000Y-95555000D03*
X76505000Y-95555000D03*
X77775000Y-95555000D03*
X79045000Y-95555000D03*
X80315000Y-95555000D03*
X81585000Y-95555000D03*
X82855000Y-95555000D03*
X84125000Y-95555000D03*
X85395000Y-95555000D03*
X86665000Y-95555000D03*
X87935000Y-95555000D03*
X89205000Y-95555000D03*
X90475000Y-95555000D03*
X91745000Y-95555000D03*
X93015000Y-95555000D03*
X94285000Y-95555000D03*
X95555000Y-95555000D03*
X96825000Y-95555000D03*
X98095000Y-95555000D03*
X99365000Y-95555000D03*
X100635000Y-95555000D03*
X101905000Y-95555000D03*
X103175000Y-95555000D03*
X104445000Y-95555000D03*
X105715000Y-95555000D03*
X106985000Y-95555000D03*
X108255000Y-95555000D03*
X109525000Y-95555000D03*
X110795000Y-95555000D03*
X112065000Y-95555000D03*
X113335000Y-95555000D03*
X114605000Y-95555000D03*
X115875000Y-95555000D03*
X117145000Y-95555000D03*
X118415000Y-95555000D03*
X119685000Y-95555000D03*
X120955000Y-95555000D03*
X122225000Y-95555000D03*
X123495000Y-95555000D03*
X124765000Y-95555000D03*
X126035000Y-95555000D03*
X127305000Y-95555000D03*
X128575000Y-95555000D03*
X129845000Y-95555000D03*
X131115000Y-95555000D03*
X68885000Y-96825000D03*
X70155000Y-96825000D03*
X71425000Y-96825000D03*
X72695000Y-96825000D03*
X73965000Y-96825000D03*
X75235000Y-96825000D03*
X76505000Y-96825000D03*
X77775000Y-96825000D03*
X79045000Y-96825000D03*
X80315000Y-96825000D03*
X81585000Y-96825000D03*
X82855000Y-96825000D03*
X84125000Y-96825000D03*
X85395000Y-96825000D03*
X86665000Y-96825000D03*
X87935000Y-96825000D03*
X89205000Y-96825000D03*
X90475000Y-96825000D03*
X91745000Y-96825000D03*
X93015000Y-96825000D03*
X94285000Y-96825000D03*
X95555000Y-96825000D03*
X96825000Y-96825000D03*
X98095000Y-96825000D03*
X99365000Y-96825000D03*
X100635000Y-96825000D03*
X101905000Y-96825000D03*
X103175000Y-96825000D03*
X104445000Y-96825000D03*
X105715000Y-96825000D03*
X106985000Y-96825000D03*
X108255000Y-96825000D03*
X109525000Y-96825000D03*
X110795000Y-96825000D03*
X112065000Y-96825000D03*
X113335000Y-96825000D03*
X114605000Y-96825000D03*
X115875000Y-96825000D03*
X117145000Y-96825000D03*
X118415000Y-96825000D03*
X119685000Y-96825000D03*
X120955000Y-96825000D03*
X122225000Y-96825000D03*
X123495000Y-96825000D03*
X124765000Y-96825000D03*
X126035000Y-96825000D03*
X127305000Y-96825000D03*
X128575000Y-96825000D03*
X129845000Y-96825000D03*
X131115000Y-96825000D03*
X68885000Y-98095000D03*
X70155000Y-98095000D03*
X71425000Y-98095000D03*
X72695000Y-98095000D03*
X73965000Y-98095000D03*
X75235000Y-98095000D03*
X76505000Y-98095000D03*
X77775000Y-98095000D03*
X79045000Y-98095000D03*
X80315000Y-98095000D03*
X81585000Y-98095000D03*
X82855000Y-98095000D03*
X84125000Y-98095000D03*
X85395000Y-98095000D03*
X86665000Y-98095000D03*
X87935000Y-98095000D03*
X89205000Y-98095000D03*
X90475000Y-98095000D03*
X91745000Y-98095000D03*
X93015000Y-98095000D03*
X94285000Y-98095000D03*
X95555000Y-98095000D03*
X96825000Y-98095000D03*
X98095000Y-98095000D03*
X99365000Y-98095000D03*
X100635000Y-98095000D03*
X101905000Y-98095000D03*
X103175000Y-98095000D03*
X104445000Y-98095000D03*
X105715000Y-98095000D03*
X106985000Y-98095000D03*
X108255000Y-98095000D03*
X109525000Y-98095000D03*
X110795000Y-98095000D03*
X112065000Y-98095000D03*
X113335000Y-98095000D03*
X114605000Y-98095000D03*
X115875000Y-98095000D03*
X117145000Y-98095000D03*
X118415000Y-98095000D03*
X119685000Y-98095000D03*
X120955000Y-98095000D03*
X122225000Y-98095000D03*
X123495000Y-98095000D03*
X124765000Y-98095000D03*
X126035000Y-98095000D03*
X127305000Y-98095000D03*
X128575000Y-98095000D03*
X129845000Y-98095000D03*
X131115000Y-98095000D03*
X68885000Y-99365000D03*
X70155000Y-99365000D03*
X71425000Y-99365000D03*
X72695000Y-99365000D03*
X73965000Y-99365000D03*
X75235000Y-99365000D03*
X76505000Y-99365000D03*
X77775000Y-99365000D03*
X79045000Y-99365000D03*
X80315000Y-99365000D03*
X81585000Y-99365000D03*
X82855000Y-99365000D03*
X84125000Y-99365000D03*
X85395000Y-99365000D03*
X86665000Y-99365000D03*
X87935000Y-99365000D03*
X89205000Y-99365000D03*
X90475000Y-99365000D03*
X91745000Y-99365000D03*
X93015000Y-99365000D03*
X94285000Y-99365000D03*
X95555000Y-99365000D03*
X96825000Y-99365000D03*
X98095000Y-99365000D03*
X99365000Y-99365000D03*
X100635000Y-99365000D03*
X101905000Y-99365000D03*
X103175000Y-99365000D03*
X104445000Y-99365000D03*
X105715000Y-99365000D03*
X106985000Y-99365000D03*
X108255000Y-99365000D03*
X109525000Y-99365000D03*
X110795000Y-99365000D03*
X112065000Y-99365000D03*
X113335000Y-99365000D03*
X114605000Y-99365000D03*
X115875000Y-99365000D03*
X117145000Y-99365000D03*
X118415000Y-99365000D03*
X119685000Y-99365000D03*
X120955000Y-99365000D03*
X122225000Y-99365000D03*
X123495000Y-99365000D03*
X124765000Y-99365000D03*
X126035000Y-99365000D03*
X127305000Y-99365000D03*
X128575000Y-99365000D03*
X129845000Y-99365000D03*
X131115000Y-99365000D03*
X68885000Y-100635000D03*
X70155000Y-100635000D03*
X71425000Y-100635000D03*
X72695000Y-100635000D03*
X73965000Y-100635000D03*
X75235000Y-100635000D03*
X76505000Y-100635000D03*
X77775000Y-100635000D03*
X79045000Y-100635000D03*
X80315000Y-100635000D03*
X81585000Y-100635000D03*
X82855000Y-100635000D03*
X84125000Y-100635000D03*
X85395000Y-100635000D03*
X86665000Y-100635000D03*
X87935000Y-100635000D03*
X89205000Y-100635000D03*
X90475000Y-100635000D03*
X91745000Y-100635000D03*
X93015000Y-100635000D03*
X94285000Y-100635000D03*
X95555000Y-100635000D03*
X96825000Y-100635000D03*
X98095000Y-100635000D03*
X99365000Y-100635000D03*
X100635000Y-100635000D03*
X101905000Y-100635000D03*
X103175000Y-100635000D03*
X104445000Y-100635000D03*
X105715000Y-100635000D03*
X106985000Y-100635000D03*
X108255000Y-100635000D03*
X109525000Y-100635000D03*
X110795000Y-100635000D03*
X112065000Y-100635000D03*
X113335000Y-100635000D03*
X114605000Y-100635000D03*
X115875000Y-100635000D03*
X117145000Y-100635000D03*
X118415000Y-100635000D03*
X119685000Y-100635000D03*
X120955000Y-100635000D03*
X122225000Y-100635000D03*
X123495000Y-100635000D03*
X124765000Y-100635000D03*
X126035000Y-100635000D03*
X127305000Y-100635000D03*
X128575000Y-100635000D03*
X129845000Y-100635000D03*
X131115000Y-100635000D03*
X68885000Y-101905000D03*
X70155000Y-101905000D03*
X71425000Y-101905000D03*
X72695000Y-101905000D03*
X73965000Y-101905000D03*
X75235000Y-101905000D03*
X76505000Y-101905000D03*
X77775000Y-101905000D03*
X79045000Y-101905000D03*
X80315000Y-101905000D03*
X81585000Y-101905000D03*
X82855000Y-101905000D03*
X84125000Y-101905000D03*
X85395000Y-101905000D03*
X86665000Y-101905000D03*
X87935000Y-101905000D03*
X89205000Y-101905000D03*
X90475000Y-101905000D03*
X91745000Y-101905000D03*
X93015000Y-101905000D03*
X94285000Y-101905000D03*
X95555000Y-101905000D03*
X96825000Y-101905000D03*
X98095000Y-101905000D03*
X99365000Y-101905000D03*
X100635000Y-101905000D03*
X101905000Y-101905000D03*
X103175000Y-101905000D03*
X104445000Y-101905000D03*
X105715000Y-101905000D03*
X106985000Y-101905000D03*
X108255000Y-101905000D03*
X109525000Y-101905000D03*
X110795000Y-101905000D03*
X112065000Y-101905000D03*
X113335000Y-101905000D03*
X114605000Y-101905000D03*
X115875000Y-101905000D03*
X117145000Y-101905000D03*
X118415000Y-101905000D03*
X119685000Y-101905000D03*
X120955000Y-101905000D03*
X122225000Y-101905000D03*
X123495000Y-101905000D03*
X124765000Y-101905000D03*
X126035000Y-101905000D03*
X127305000Y-101905000D03*
X128575000Y-101905000D03*
X129845000Y-101905000D03*
X131115000Y-101905000D03*
X68885000Y-103175000D03*
X70155000Y-103175000D03*
X71425000Y-103175000D03*
X72695000Y-103175000D03*
X73965000Y-103175000D03*
X75235000Y-103175000D03*
X76505000Y-103175000D03*
X77775000Y-103175000D03*
X79045000Y-103175000D03*
X80315000Y-103175000D03*
X81585000Y-103175000D03*
X82855000Y-103175000D03*
X84125000Y-103175000D03*
X85395000Y-103175000D03*
X86665000Y-103175000D03*
X87935000Y-103175000D03*
X89205000Y-103175000D03*
X90475000Y-103175000D03*
X91745000Y-103175000D03*
X93015000Y-103175000D03*
X94285000Y-103175000D03*
X95555000Y-103175000D03*
X96825000Y-103175000D03*
X98095000Y-103175000D03*
X99365000Y-103175000D03*
X100635000Y-103175000D03*
X101905000Y-103175000D03*
X103175000Y-103175000D03*
X104445000Y-103175000D03*
X105715000Y-103175000D03*
X106985000Y-103175000D03*
X108255000Y-103175000D03*
X109525000Y-103175000D03*
X110795000Y-103175000D03*
X112065000Y-103175000D03*
X113335000Y-103175000D03*
X114605000Y-103175000D03*
X115875000Y-103175000D03*
X117145000Y-103175000D03*
X118415000Y-103175000D03*
X119685000Y-103175000D03*
X120955000Y-103175000D03*
X122225000Y-103175000D03*
X123495000Y-103175000D03*
X124765000Y-103175000D03*
X126035000Y-103175000D03*
X127305000Y-103175000D03*
X128575000Y-103175000D03*
X129845000Y-103175000D03*
X131115000Y-103175000D03*
X68885000Y-104445000D03*
X70155000Y-104445000D03*
X71425000Y-104445000D03*
X72695000Y-104445000D03*
X73965000Y-104445000D03*
X75235000Y-104445000D03*
X76505000Y-104445000D03*
X77775000Y-104445000D03*
X79045000Y-104445000D03*
X80315000Y-104445000D03*
X81585000Y-104445000D03*
X82855000Y-104445000D03*
X84125000Y-104445000D03*
X85395000Y-104445000D03*
X86665000Y-104445000D03*
X87935000Y-104445000D03*
X89205000Y-104445000D03*
X90475000Y-104445000D03*
X91745000Y-104445000D03*
X93015000Y-104445000D03*
X94285000Y-104445000D03*
X95555000Y-104445000D03*
X96825000Y-104445000D03*
X98095000Y-104445000D03*
X99365000Y-104445000D03*
X100635000Y-104445000D03*
X101905000Y-104445000D03*
X103175000Y-104445000D03*
X104445000Y-104445000D03*
X105715000Y-104445000D03*
X106985000Y-104445000D03*
X108255000Y-104445000D03*
X109525000Y-104445000D03*
X110795000Y-104445000D03*
X112065000Y-104445000D03*
X113335000Y-104445000D03*
X114605000Y-104445000D03*
X115875000Y-104445000D03*
X117145000Y-104445000D03*
X118415000Y-104445000D03*
X119685000Y-104445000D03*
X120955000Y-104445000D03*
X122225000Y-104445000D03*
X123495000Y-104445000D03*
X124765000Y-104445000D03*
X126035000Y-104445000D03*
X127305000Y-104445000D03*
X128575000Y-104445000D03*
X129845000Y-104445000D03*
X131115000Y-104445000D03*
D13*
X84000000Y-113500000D03*
X84000000Y-117500000D03*
D14*
X86635000Y-131324000D03*
X85365000Y-131324000D03*
X85365000Y-126676000D03*
X86635000Y-126676000D03*
X87905000Y-126676000D03*
X84095000Y-126676000D03*
X84095000Y-131324000D03*
X87905000Y-131324000D03*
D15*
X88000000Y-135500000D03*
X84000000Y-135500000D03*
D16*
X131318500Y-113985040D03*
X135318500Y-113985040D03*
D17*
X126500000Y-131500000D03*
X126500000Y-127500000D03*
X129500000Y-131500000D03*
X129500000Y-127500000D03*
X123750000Y-123750000D03*
X123750000Y-119750000D03*
X120750000Y-123774200D03*
X120750000Y-119774200D03*
X126500000Y-123750000D03*
X126500000Y-119750000D03*
D18*
X91750000Y-135500000D03*
X94250000Y-135500000D03*
X117000000Y-135500000D03*
X119500000Y-135500000D03*
D19*
X87540000Y-147000000D03*
X82460000Y-147000000D03*
X112850000Y-146900000D03*
X107770000Y-146900000D03*
D15*
X135413500Y-110332520D03*
X131413500Y-110332520D03*
D20*
X92000000Y-127900000D03*
X92000000Y-130600000D03*
D13*
X87000000Y-113500000D03*
X87000000Y-117500000D03*
D15*
X88000000Y-139250000D03*
X84000000Y-139250000D03*
D20*
X95500000Y-130750000D03*
X95500000Y-128050000D03*
X117500000Y-127750000D03*
X117500000Y-130450000D03*
D13*
X111500000Y-113500000D03*
X111500000Y-117500000D03*
X108500000Y-113500000D03*
X108500000Y-117500000D03*
D15*
X113750000Y-139250000D03*
X109750000Y-139250000D03*
D20*
X120250000Y-130450000D03*
X120250000Y-127750000D03*
D15*
X113750000Y-135500000D03*
X109750000Y-135500000D03*
D21*
X134750000Y-126050000D03*
X133800000Y-126050000D03*
X132850000Y-126050000D03*
X132850000Y-128250000D03*
X134750000Y-128250000D03*
D14*
X112334860Y-131282900D03*
X111064860Y-131282900D03*
X111064860Y-126634900D03*
X112334860Y-126634900D03*
X113604860Y-126634900D03*
X109794860Y-126634900D03*
X109794860Y-131282900D03*
X113604860Y-131282900D03*
D11*
X60500000Y-96600000D03*
D22*
X139200000Y-126600000D03*
X126450000Y-112050000D03*
X74250000Y-127750000D03*
X73750000Y-133750000D03*
X97750000Y-139500000D03*
X93500000Y-113500000D03*
X93500000Y-120000000D03*
X76500000Y-119250000D03*
X77250000Y-113250000D03*
X78750000Y-136500000D03*
X123750000Y-137750000D03*
X116500000Y-112500000D03*
X116250000Y-117750000D03*
X103000000Y-119250000D03*
X102500000Y-112250000D03*
X105250000Y-137000000D03*
D23*
X130846240Y-117885180D03*
X130846240Y-120185180D03*
X130846240Y-122485180D03*
D24*
X136646240Y-120185180D03*
D16*
X83750000Y-122250000D03*
X87750000Y-122250000D03*
D17*
X81500000Y-131000000D03*
X81500000Y-127000000D03*
D16*
X109750000Y-122250000D03*
X113750000Y-122250000D03*
D17*
X107250000Y-131000000D03*
X107250000Y-127000000D03*
D25*
X68885000Y-95555000D03*
X70155000Y-95555000D03*
X71425000Y-95555000D03*
X72695000Y-95555000D03*
X73965000Y-95555000D03*
X75235000Y-95555000D03*
X76505000Y-95555000D03*
X79045000Y-95555000D03*
X80315000Y-95555000D03*
X82855000Y-95555000D03*
X84125000Y-95555000D03*
X86665000Y-95555000D03*
X87935000Y-95555000D03*
X89205000Y-95555000D03*
X90475000Y-95555000D03*
X91745000Y-95555000D03*
X93015000Y-95555000D03*
X94285000Y-95555000D03*
X95555000Y-95555000D03*
X98095000Y-95555000D03*
X99365000Y-95555000D03*
X100635000Y-95555000D03*
X101905000Y-95555000D03*
X103175000Y-95555000D03*
X104445000Y-95555000D03*
X105715000Y-95555000D03*
X106985000Y-95555000D03*
X108255000Y-95555000D03*
X109525000Y-95555000D03*
X110795000Y-95555000D03*
X112065000Y-95555000D03*
X113335000Y-95555000D03*
X114605000Y-95555000D03*
X115875000Y-95555000D03*
X117145000Y-95555000D03*
X118415000Y-95555000D03*
X119685000Y-95555000D03*
X120955000Y-95555000D03*
X122225000Y-95555000D03*
X123495000Y-95555000D03*
X124765000Y-95555000D03*
X126035000Y-95555000D03*
X68885000Y-96825000D03*
X70155000Y-96825000D03*
X71425000Y-96825000D03*
X73965000Y-96825000D03*
X75235000Y-96825000D03*
X77775000Y-96825000D03*
X79045000Y-96825000D03*
X81585000Y-96825000D03*
X82855000Y-96825000D03*
X85395000Y-96825000D03*
X86665000Y-96825000D03*
X87935000Y-96825000D03*
X89205000Y-96825000D03*
X90475000Y-96825000D03*
X91745000Y-96825000D03*
X94285000Y-96825000D03*
X95555000Y-96825000D03*
X96825000Y-96825000D03*
X98095000Y-96825000D03*
X99365000Y-96825000D03*
X100635000Y-96825000D03*
X101905000Y-96825000D03*
X103175000Y-96825000D03*
X104445000Y-96825000D03*
X105715000Y-96825000D03*
X106985000Y-96825000D03*
X108255000Y-96825000D03*
X109525000Y-96825000D03*
X110795000Y-96825000D03*
X112065000Y-96825000D03*
X113335000Y-96825000D03*
X115875000Y-96825000D03*
X117145000Y-96825000D03*
X118415000Y-96825000D03*
X119685000Y-96825000D03*
X120955000Y-96825000D03*
X122225000Y-96825000D03*
X123495000Y-96825000D03*
X124765000Y-96825000D03*
X126035000Y-96825000D03*
X68885000Y-98095000D03*
X70155000Y-98095000D03*
X71425000Y-98095000D03*
X72695000Y-98095000D03*
X73965000Y-98095000D03*
X76505000Y-98095000D03*
X77775000Y-98095000D03*
X80315000Y-98095000D03*
X81585000Y-98095000D03*
X84125000Y-98095000D03*
X85395000Y-98095000D03*
X87935000Y-98095000D03*
X89205000Y-98095000D03*
X91745000Y-98095000D03*
X93015000Y-98095000D03*
X95555000Y-98095000D03*
X96825000Y-98095000D03*
X99365000Y-98095000D03*
X100635000Y-98095000D03*
X103175000Y-98095000D03*
X104445000Y-98095000D03*
X106985000Y-98095000D03*
X108255000Y-98095000D03*
X110795000Y-98072091D03*
X112065000Y-98095000D03*
X113335000Y-98095000D03*
X114605000Y-98095000D03*
X115875000Y-98095000D03*
X117145000Y-98095000D03*
X118415000Y-98095000D03*
X119685000Y-98095000D03*
X120955000Y-98095000D03*
X122225000Y-98095000D03*
X123495000Y-98095000D03*
X124765000Y-98095000D03*
X126035000Y-98095000D03*
X68885000Y-99365000D03*
X70155000Y-99365000D03*
X71425000Y-99365000D03*
X72695000Y-99365000D03*
X73965000Y-99365000D03*
X75235000Y-99365000D03*
X77775000Y-99365000D03*
X79045000Y-99365000D03*
X81585000Y-99365000D03*
X82855000Y-99365000D03*
X85395000Y-99365000D03*
X86665000Y-99365000D03*
X89205000Y-99365000D03*
X90475000Y-99365000D03*
X93015000Y-99365000D03*
X94285000Y-99365000D03*
X96825000Y-99365000D03*
X98095000Y-99365000D03*
X100635000Y-99365000D03*
X101905000Y-99365000D03*
X104445000Y-99365000D03*
X105715000Y-99365000D03*
X112087909Y-99365000D03*
X113335000Y-99365000D03*
X114605000Y-99365000D03*
X115875000Y-99365000D03*
X117145000Y-99365000D03*
X118415000Y-99365000D03*
X119685000Y-99365000D03*
X120955000Y-99365000D03*
X122225000Y-99365000D03*
X123495000Y-99365000D03*
X124765000Y-99365000D03*
X126035000Y-99365000D03*
X127305000Y-99365000D03*
X128575000Y-99365000D03*
X129845000Y-99365000D03*
X131115000Y-99365000D03*
X68885000Y-100635000D03*
X70155000Y-100635000D03*
X71425000Y-100635000D03*
X72695000Y-100635000D03*
X75235000Y-100635000D03*
X76505000Y-100635000D03*
X79045000Y-100635000D03*
X80315000Y-100635000D03*
X82855000Y-100635000D03*
X84125000Y-100635000D03*
X86665000Y-100635000D03*
X87935000Y-100635000D03*
X90475000Y-100635000D03*
X91745000Y-100635000D03*
X94285000Y-100635000D03*
X95555000Y-100635000D03*
X98095000Y-100635000D03*
X99365000Y-100635000D03*
X101905000Y-100635000D03*
X103175000Y-100635000D03*
X105715000Y-100635000D03*
X106962091Y-100635000D03*
X109525000Y-100635000D03*
X110777690Y-100641837D03*
X112087909Y-100635000D03*
X113335000Y-100635000D03*
X114605000Y-100635000D03*
X115875000Y-100635000D03*
X117145000Y-100635000D03*
X118415000Y-100635000D03*
X119685000Y-100635000D03*
X120955000Y-100635000D03*
X122225000Y-100635000D03*
X123495000Y-100635000D03*
X124765000Y-100635000D03*
X126035000Y-100635000D03*
X127305000Y-100635000D03*
X128575000Y-100635000D03*
X129845000Y-100635000D03*
X131115000Y-100635000D03*
X68885000Y-101905000D03*
X71425000Y-101905000D03*
X72695000Y-101905000D03*
X73965000Y-101905000D03*
X76505000Y-101905000D03*
X77775000Y-101905000D03*
X80315000Y-101905000D03*
X81585000Y-101905000D03*
X84125000Y-101905000D03*
X85395000Y-101905000D03*
X87935000Y-101905000D03*
X89205000Y-101905000D03*
X91745000Y-101905000D03*
X93015000Y-101905000D03*
X95555000Y-101905000D03*
X96825000Y-101905000D03*
X99365000Y-101905000D03*
X100635000Y-101905000D03*
X103175000Y-101905000D03*
X104445000Y-101905000D03*
X106962091Y-101905000D03*
X108272310Y-101905000D03*
X109525000Y-101905000D03*
X110777690Y-101910130D03*
X112087909Y-101905000D03*
X114605000Y-101905000D03*
X115875000Y-101905000D03*
X117145000Y-101905000D03*
X118415000Y-101905000D03*
X120955000Y-101905000D03*
X122225000Y-101905000D03*
X123495000Y-101905000D03*
X124765000Y-101905000D03*
X126035000Y-101905000D03*
X127305000Y-101905000D03*
X128575000Y-101905000D03*
X129845000Y-101905000D03*
X131115000Y-101905000D03*
X70155000Y-103175000D03*
X71425000Y-103175000D03*
X73965000Y-103175000D03*
X75235000Y-103175000D03*
X77775000Y-103175000D03*
X79045000Y-103175000D03*
X81585000Y-103175000D03*
X82855000Y-103175000D03*
X85395000Y-103175000D03*
X86665000Y-103175000D03*
X89205000Y-103175000D03*
X90475000Y-103175000D03*
X93015000Y-103175000D03*
X94285000Y-103175000D03*
X96825000Y-103175000D03*
X98095000Y-103175000D03*
X100635000Y-103175000D03*
X101905000Y-103175000D03*
X104445000Y-103175000D03*
X105715000Y-103175000D03*
X108272310Y-103175000D03*
X109525000Y-103175000D03*
X112087909Y-103175000D03*
X113335000Y-103175000D03*
X114605000Y-103175000D03*
X115875000Y-103175000D03*
X117145000Y-103175000D03*
X118415000Y-103175000D03*
X119685000Y-103175000D03*
X120955000Y-103175000D03*
X122225000Y-103175000D03*
X123495000Y-103175000D03*
X124765000Y-103175000D03*
X126035000Y-103175000D03*
X127305000Y-103175000D03*
X129845000Y-103175000D03*
X131115000Y-103175000D03*
X68885000Y-104445000D03*
X71425000Y-104445000D03*
X72695000Y-104445000D03*
X75235000Y-104445000D03*
X76505000Y-104445000D03*
X79045000Y-104445000D03*
X80315000Y-104445000D03*
X82855000Y-104445000D03*
X84125000Y-104445000D03*
X86665000Y-104445000D03*
X87935000Y-104445000D03*
X90475000Y-104445000D03*
X91745000Y-104445000D03*
X94285000Y-104445000D03*
X95555000Y-104445000D03*
X98095000Y-104445000D03*
X99365000Y-104445000D03*
X101905000Y-104445000D03*
X103175000Y-104445000D03*
X105715000Y-104445000D03*
X106962091Y-104445000D03*
X109525000Y-104445000D03*
X110777690Y-104451732D03*
X112087909Y-104445000D03*
X113335000Y-104445000D03*
X114605000Y-104445000D03*
X115875000Y-104445000D03*
X117145000Y-104445000D03*
X118415000Y-104445000D03*
X119685000Y-104445000D03*
X120955000Y-104445000D03*
X122225000Y-104445000D03*
X123495000Y-104445000D03*
X124765000Y-104445000D03*
X126035000Y-104445000D03*
X127305000Y-104445000D03*
X128575000Y-104445000D03*
X129845000Y-104445000D03*
X131115000Y-104445000D03*
X100850000Y-128050000D03*
X100800000Y-130450000D03*
X136646240Y-120185180D03*
X129700000Y-125450000D03*
X127305000Y-96825000D03*
X128575000Y-96825000D03*
X127305000Y-95555000D03*
X128575000Y-95555000D03*
X127305000Y-98095000D03*
X128575000Y-98095000D03*
X83250000Y-120500000D03*
X109300000Y-120200000D03*
X118750000Y-124300000D03*
X108255000Y-99365000D03*
X109525000Y-99365000D03*
X129845000Y-96825000D03*
X131115000Y-96825000D03*
X129845000Y-98095000D03*
X131115000Y-98095000D03*
X129845000Y-95555000D03*
X131115000Y-95555000D03*
X109525000Y-98095000D03*
X110777690Y-99365424D03*
X77775000Y-95555000D03*
X81585000Y-95555000D03*
X85395000Y-95555000D03*
X96825000Y-95555000D03*
X72695000Y-96825000D03*
X76505000Y-96825000D03*
X80315000Y-96825000D03*
X84125000Y-96825000D03*
X93015000Y-96825000D03*
X114605000Y-96825000D03*
X75235000Y-98095000D03*
X79045000Y-98095000D03*
X82855000Y-98095000D03*
X86665000Y-98095000D03*
X90475000Y-98095000D03*
X94285000Y-98095000D03*
X98095000Y-98095000D03*
X101905000Y-98095000D03*
X105715000Y-98095000D03*
X76505000Y-99365000D03*
X80315000Y-99365000D03*
X84125000Y-99365000D03*
X87935000Y-99365000D03*
X91745000Y-99365000D03*
X95555000Y-99365000D03*
X99365000Y-99365000D03*
X103175000Y-99365000D03*
X106985000Y-99365000D03*
X73965000Y-100635000D03*
X77775000Y-100635000D03*
X81585000Y-100635000D03*
X85395000Y-100635000D03*
X89205000Y-100635000D03*
X93015000Y-100635000D03*
X96825000Y-100635000D03*
X100635000Y-100635000D03*
X104445000Y-100635000D03*
X108232091Y-100635000D03*
X70155000Y-101905000D03*
X75235000Y-101905000D03*
X79045000Y-101905000D03*
X82855000Y-101905000D03*
X86665000Y-101905000D03*
X90475000Y-101905000D03*
X94285000Y-101905000D03*
X98095000Y-101905000D03*
X101905000Y-101905000D03*
X105715000Y-101905000D03*
X113335000Y-101905000D03*
X119685000Y-101905000D03*
X68885000Y-103175000D03*
X72695000Y-103175000D03*
X76505000Y-103175000D03*
X80315000Y-103175000D03*
X84125000Y-103175000D03*
X87935000Y-103175000D03*
X91745000Y-103175000D03*
X95555000Y-103175000D03*
X99365000Y-103175000D03*
X103175000Y-103175000D03*
X106962091Y-103175000D03*
X110777690Y-103179042D03*
X128575000Y-103175000D03*
X70155000Y-104445000D03*
X73965000Y-104445000D03*
X77775000Y-104445000D03*
X81585000Y-104445000D03*
X85395000Y-104445000D03*
X89205000Y-104445000D03*
X93015000Y-104445000D03*
X96825000Y-104445000D03*
X100635000Y-104445000D03*
X104445000Y-104445000D03*
X108272310Y-104445000D03*
D26*
X88000000Y-135500000D02*
X87750000Y-135500000D01*
X87750000Y-135500000D02*
X84000000Y-139250000D01*
X91750000Y-135500000D02*
X88000000Y-135500000D01*
D27*
X128575000Y-98095000D02*
X128575000Y-96825000D01*
X127305000Y-98095000D02*
X127305000Y-96825000D01*
D26*
X100850000Y-128050000D02*
X95500000Y-128050000D01*
X100850000Y-128050000D02*
X106200000Y-128050000D01*
X94250000Y-135500000D02*
X95750000Y-135500000D01*
X95750000Y-135500000D02*
X100800000Y-130450000D01*
X74250000Y-127750000D02*
X80750000Y-127750000D01*
X80750000Y-127750000D02*
X81500000Y-127000000D01*
X81500000Y-127000000D02*
X81500000Y-127200000D01*
X81500000Y-127200000D02*
X82805000Y-128505000D01*
X82805000Y-128505000D02*
X85750000Y-128505000D01*
X85750000Y-128505000D02*
X86635000Y-127620000D01*
X86635000Y-127620000D02*
X86635000Y-126676000D01*
X94215000Y-128050000D02*
X92700000Y-126535000D01*
X92700000Y-126535000D02*
X88415000Y-122250000D01*
X86635000Y-127620000D02*
X87354901Y-128339901D01*
X87354901Y-128339901D02*
X89314277Y-128339901D01*
X89314277Y-128339901D02*
X91119178Y-126535000D01*
X91119178Y-126535000D02*
X92700000Y-126535000D01*
X106200000Y-128050000D02*
X107250000Y-127000000D01*
X95500000Y-128050000D02*
X94215000Y-128050000D01*
X88415000Y-122250000D02*
X87750000Y-122250000D01*
X136646240Y-120185180D02*
X136646240Y-120735180D01*
X136646240Y-120735180D02*
X140419901Y-124508841D01*
X140419901Y-124508841D02*
X140419901Y-127185553D01*
X140419901Y-127185553D02*
X132105454Y-135500000D01*
X132105454Y-135500000D02*
X120885000Y-135500000D01*
X120885000Y-135500000D02*
X119500000Y-135500000D01*
D28*
X129500000Y-127500000D02*
X129500000Y-125650000D01*
X129500000Y-125650000D02*
X129700000Y-125450000D01*
X126500000Y-127500000D02*
X120500000Y-127500000D01*
X120500000Y-127500000D02*
X120250000Y-127750000D01*
D26*
X113750000Y-122250000D02*
X113750000Y-123685000D01*
X116430000Y-126365000D02*
X116639178Y-126365000D01*
X113750000Y-123685000D02*
X116430000Y-126365000D01*
X133800000Y-126050000D02*
X133800000Y-121321420D01*
X133800000Y-121321420D02*
X134936240Y-120185180D01*
X134936240Y-120185180D02*
X136646240Y-120185180D01*
D28*
X126500000Y-127500000D02*
X129500000Y-127500000D01*
D26*
X112334860Y-126634900D02*
X112334860Y-127200000D01*
X112334860Y-127200000D02*
X112334860Y-127578900D01*
X112334860Y-127654722D02*
X112334860Y-127200000D01*
X107250000Y-127000000D02*
X107250000Y-127200000D01*
X107250000Y-127200000D02*
X108513900Y-128463900D01*
X108513900Y-128463900D02*
X111525682Y-128463900D01*
X111525682Y-128463900D02*
X112334860Y-127654722D01*
X120250000Y-127650000D02*
X120250000Y-127750000D01*
X112334860Y-127578900D02*
X113054761Y-128298801D01*
X113054761Y-128298801D02*
X114705377Y-128298801D01*
X114705377Y-128298801D02*
X116639178Y-126365000D01*
X116639178Y-126365000D02*
X118965000Y-126365000D01*
X118965000Y-126365000D02*
X120250000Y-127650000D01*
D28*
X137073901Y-119207519D02*
X137073901Y-113650000D01*
X137073901Y-113650000D02*
X137073901Y-101623901D01*
X135318500Y-113985040D02*
X136738861Y-113985040D01*
X136738861Y-113985040D02*
X137073901Y-113650000D01*
D27*
X128575000Y-95555000D02*
X128575000Y-95102452D01*
X128575000Y-95102452D02*
X128022548Y-94550000D01*
X128022548Y-94550000D02*
X128000000Y-94550000D01*
X128575000Y-96825000D02*
X128575000Y-95555000D01*
X127305000Y-95555000D02*
X128000000Y-94860000D01*
X128000000Y-94860000D02*
X128000000Y-94550000D01*
X127305000Y-96825000D02*
X127305000Y-95555000D01*
D28*
X133056194Y-94550000D02*
X128000000Y-94550000D01*
X136002811Y-98894235D02*
X134834401Y-97725825D01*
X137073901Y-101623901D02*
X136002812Y-100552812D01*
X136002812Y-100552812D02*
X136002811Y-98894235D01*
X134834401Y-97725825D02*
X134834401Y-96328207D01*
X134834401Y-96328207D02*
X133056194Y-94550000D01*
X136646240Y-120185180D02*
X136646240Y-119635180D01*
X136646240Y-119635180D02*
X137073901Y-119207519D01*
D26*
X126500000Y-119750000D02*
X130411060Y-119750000D01*
X130411060Y-119750000D02*
X130846240Y-120185180D01*
D28*
X123750000Y-119750000D02*
X126500000Y-119750000D01*
X120750000Y-119774200D02*
X123725800Y-119774200D01*
X123725800Y-119774200D02*
X123750000Y-119750000D01*
D26*
X130846240Y-120185180D02*
X136646240Y-120185180D01*
X81500000Y-131000000D02*
X76500000Y-131000000D01*
X76500000Y-131000000D02*
X73750000Y-133750000D01*
X81500000Y-131000000D02*
X83771000Y-131000000D01*
X83771000Y-131000000D02*
X84095000Y-131324000D01*
X92000000Y-127900000D02*
X92000000Y-128000000D01*
X92000000Y-128000000D02*
X90339901Y-129660099D01*
X90339901Y-129660099D02*
X84739079Y-129660099D01*
X84739079Y-129660099D02*
X84095000Y-130304178D01*
X84095000Y-130304178D02*
X84095000Y-131324000D01*
X92000000Y-128000000D02*
X93530099Y-129530099D01*
X93530099Y-129530099D02*
X104345099Y-129530099D01*
X104345099Y-129530099D02*
X105815000Y-131000000D01*
X105815000Y-131000000D02*
X107250000Y-131000000D01*
X107250000Y-131000000D02*
X109511960Y-131000000D01*
X109511960Y-131000000D02*
X109794860Y-131282900D01*
X134750000Y-128250000D02*
X134750000Y-128455000D01*
X134750000Y-128455000D02*
X131705000Y-131500000D01*
X131705000Y-131500000D02*
X131500000Y-131500000D01*
X117500000Y-127750000D02*
X117500000Y-127850000D01*
X117500000Y-127850000D02*
X118880099Y-129230099D01*
X118880099Y-129230099D02*
X122795099Y-129230099D01*
X122795099Y-129230099D02*
X125065000Y-131500000D01*
X125065000Y-131500000D02*
X126500000Y-131500000D01*
X110796349Y-129337411D02*
X116012589Y-129337411D01*
X109794860Y-130338900D02*
X110796349Y-129337411D01*
X109794860Y-131282900D02*
X109794860Y-130338900D01*
X116012589Y-129337411D02*
X117500000Y-127850000D01*
D28*
X129500000Y-131500000D02*
X126500000Y-131500000D01*
X131500000Y-131500000D02*
X129500000Y-131500000D01*
D26*
X83250000Y-120500000D02*
X83250000Y-121750000D01*
X83250000Y-121750000D02*
X83750000Y-122250000D01*
D27*
X83750000Y-122250000D02*
X83750000Y-123304000D01*
X83750000Y-123304000D02*
X85365000Y-124919000D01*
X85365000Y-124919000D02*
X85365000Y-125228000D01*
X85365000Y-125228000D02*
X85365000Y-126676000D01*
D26*
X134750000Y-126050000D02*
X138650000Y-126050000D01*
X138650000Y-126050000D02*
X139200000Y-126600000D01*
D28*
X109300000Y-120200000D02*
X109300000Y-121800000D01*
X109300000Y-121800000D02*
X109750000Y-122250000D01*
X120750000Y-123774200D02*
X119275800Y-123774200D01*
X119275800Y-123774200D02*
X118750000Y-124300000D01*
D27*
X109750000Y-122250000D02*
X109750000Y-123304000D01*
X109750000Y-123304000D02*
X111064860Y-124618860D01*
X111064860Y-124618860D02*
X111064860Y-125186900D01*
X111064860Y-125186900D02*
X111064860Y-126634900D01*
D26*
X132850000Y-126050000D02*
X132850000Y-126800822D01*
X133099079Y-127049901D02*
X134500921Y-127049901D01*
X132850000Y-126800822D02*
X133099079Y-127049901D01*
X134500921Y-127049901D02*
X134750000Y-126800822D01*
X134750000Y-126800822D02*
X134750000Y-126050000D01*
D28*
X120750000Y-123774200D02*
X123725800Y-123774200D01*
X123725800Y-123774200D02*
X123750000Y-123750000D01*
X123750000Y-123750000D02*
X126500000Y-123750000D01*
X126500000Y-123750000D02*
X129581420Y-123750000D01*
X129581420Y-123750000D02*
X130846240Y-122485180D01*
D26*
X132850000Y-126050000D02*
X132850000Y-124488940D01*
X132850000Y-124488940D02*
X130846240Y-122485180D01*
D29*
X107584401Y-100035599D02*
X107584401Y-105965599D01*
D26*
X77250000Y-113250000D02*
X83750000Y-113250000D01*
X83750000Y-113250000D02*
X84000000Y-113500000D01*
D27*
X104950000Y-108600000D02*
X88750000Y-108600000D01*
X88750000Y-108600000D02*
X84000000Y-113350000D01*
X84000000Y-113350000D02*
X84000000Y-113500000D01*
X107584401Y-105965599D02*
X104950000Y-108600000D01*
X108255000Y-99365000D02*
X107584401Y-100035599D01*
D29*
X108854401Y-100035599D02*
X108854401Y-105970350D01*
D26*
X93500000Y-113500000D02*
X92439340Y-113500000D01*
X92439340Y-113500000D02*
X87000000Y-113500000D01*
D27*
X109525000Y-99365000D02*
X108854401Y-100035599D01*
X108854401Y-105970350D02*
X105774751Y-109050000D01*
X105774751Y-109050000D02*
X92554000Y-109050000D01*
X92554000Y-109050000D02*
X88104000Y-113500000D01*
X88104000Y-113500000D02*
X87000000Y-113500000D01*
D26*
X126450000Y-112050000D02*
X130818460Y-112050000D01*
X130818460Y-112050000D02*
X131318500Y-112550040D01*
X131318500Y-112550040D02*
X131318500Y-113985040D01*
D28*
X131318500Y-113985040D02*
X131318500Y-117412920D01*
X131318500Y-117412920D02*
X130846240Y-117885180D01*
X131413500Y-110332520D02*
X131413500Y-113890040D01*
X131413500Y-113890040D02*
X131318500Y-113985040D01*
D26*
X113750000Y-135500000D02*
X113500000Y-135500000D01*
X113500000Y-135500000D02*
X109750000Y-139250000D01*
X117000000Y-135500000D02*
X113750000Y-135500000D01*
X93030099Y-136440723D02*
X92120822Y-137350000D01*
X92120822Y-137350000D02*
X90220822Y-139250000D01*
X97750000Y-139500000D02*
X94270822Y-139500000D01*
X94270822Y-139500000D02*
X92120822Y-137350000D01*
X88000000Y-139250000D02*
X88000000Y-146540000D01*
X88000000Y-146540000D02*
X87540000Y-147000000D01*
X86635000Y-131324000D02*
X86635000Y-132268000D01*
X86635000Y-132268000D02*
X88547099Y-134180099D01*
X88547099Y-134180099D02*
X92650921Y-134180099D01*
X92650921Y-134180099D02*
X93030099Y-134559277D01*
X93030099Y-134559277D02*
X93030099Y-136440723D01*
X90220822Y-139250000D02*
X89635000Y-139250000D01*
X89635000Y-139250000D02*
X88000000Y-139250000D01*
X84000000Y-135500000D02*
X85365000Y-134135000D01*
X85365000Y-134135000D02*
X85365000Y-131324000D01*
X82460000Y-136890000D02*
X82460000Y-137250000D01*
X82460000Y-137250000D02*
X82460000Y-145090812D01*
X78750000Y-136500000D02*
X79499999Y-137249999D01*
X79499999Y-137249999D02*
X82459999Y-137249999D01*
X82459999Y-137249999D02*
X82460000Y-137250000D01*
X84000000Y-135500000D02*
X83850000Y-135500000D01*
X83850000Y-135500000D02*
X82460000Y-136890000D01*
X82460000Y-145090812D02*
X82460000Y-147000000D01*
D28*
X132140000Y-97850000D02*
X132140000Y-105193020D01*
X132140000Y-105193020D02*
X135413500Y-108466520D01*
X135413500Y-108466520D02*
X134834402Y-107887422D01*
X135413500Y-110332520D02*
X135413500Y-108466520D01*
D26*
X131115000Y-96825000D02*
X132140000Y-97850000D01*
X131115000Y-98095000D02*
X131567548Y-98095000D01*
X131567548Y-98095000D02*
X131812548Y-97850000D01*
X131812548Y-97850000D02*
X132140000Y-97850000D01*
D27*
X131115000Y-96825000D02*
X131115000Y-95555000D01*
X131115000Y-96825000D02*
X129845000Y-95555000D01*
X131115000Y-98095000D02*
X129845000Y-96825000D01*
X131115000Y-98095000D02*
X129845000Y-98095000D01*
D29*
X111465599Y-99148485D02*
X111465599Y-112211599D01*
X111465599Y-112211599D02*
X111500000Y-112246000D01*
D26*
X116500000Y-112500000D02*
X112500000Y-112500000D01*
X112500000Y-112500000D02*
X111500000Y-113500000D01*
D27*
X111500000Y-112246000D02*
X111500000Y-113500000D01*
X111011515Y-98694401D02*
X111465599Y-99148485D01*
X110124401Y-98694401D02*
X111011515Y-98694401D01*
X109525000Y-98095000D02*
X110124401Y-98694401D01*
X108500000Y-112246000D02*
X110150000Y-110596000D01*
D29*
X110195599Y-99947515D02*
X110195599Y-110550401D01*
X110195599Y-110550401D02*
X110150000Y-110596000D01*
D26*
X102500000Y-112250000D02*
X107250000Y-112250000D01*
X107250000Y-112250000D02*
X108500000Y-113500000D01*
D27*
X110195599Y-99947515D02*
X110434791Y-99708323D01*
X108500000Y-113500000D02*
X108500000Y-112246000D01*
X110434791Y-99708323D02*
X110777690Y-99365424D01*
D26*
X118280099Y-136440723D02*
X117250000Y-137470822D01*
X117250000Y-137470822D02*
X115470822Y-139250000D01*
X123750000Y-137750000D02*
X122689340Y-137750000D01*
X122689340Y-137750000D02*
X122410162Y-137470822D01*
X122410162Y-137470822D02*
X117250000Y-137470822D01*
X113750000Y-139250000D02*
X113750000Y-146000000D01*
X113750000Y-146000000D02*
X112850000Y-146900000D01*
X112334860Y-131282900D02*
X112334860Y-132226900D01*
X112334860Y-132226900D02*
X114288059Y-134180099D01*
X114288059Y-134180099D02*
X117900921Y-134180099D01*
X117900921Y-134180099D02*
X118280099Y-134559277D01*
X118280099Y-134559277D02*
X118280099Y-136440723D01*
X115470822Y-139250000D02*
X115385000Y-139250000D01*
X115385000Y-139250000D02*
X113750000Y-139250000D01*
X107770000Y-137330000D02*
X107770000Y-138950000D01*
X107770000Y-138950000D02*
X107770000Y-144990812D01*
X105250000Y-137000000D02*
X107200000Y-138950000D01*
X107200000Y-138950000D02*
X107770000Y-138950000D01*
X109750000Y-135500000D02*
X109600000Y-135500000D01*
X109600000Y-135500000D02*
X107770000Y-137330000D01*
X107770000Y-144990812D02*
X107770000Y-146900000D01*
X111064860Y-131282900D02*
X111064860Y-134185140D01*
X111064860Y-134185140D02*
X109750000Y-135500000D01*
X92000000Y-130600000D02*
X95350000Y-130600000D01*
X95350000Y-130600000D02*
X95500000Y-130750000D01*
X87905000Y-131324000D02*
X91276000Y-131324000D01*
X91276000Y-131324000D02*
X92000000Y-130600000D01*
D27*
X87000000Y-117500000D02*
X87000000Y-118754000D01*
X87000000Y-118754000D02*
X86470599Y-119283401D01*
X86470599Y-119283401D02*
X86470599Y-124297599D01*
X86470599Y-124297599D02*
X87905000Y-125732000D01*
X87905000Y-125732000D02*
X87905000Y-126676000D01*
D26*
X93500000Y-120000000D02*
X89350000Y-120000000D01*
X89350000Y-120000000D02*
X87000000Y-117650000D01*
X87000000Y-117650000D02*
X87000000Y-117500000D01*
D27*
X84095000Y-126676000D02*
X83591000Y-126676000D01*
X83591000Y-126676000D02*
X82400000Y-125485000D01*
X82400000Y-125485000D02*
X82400000Y-119250000D01*
D26*
X76500000Y-119250000D02*
X82400000Y-119250000D01*
X82400000Y-119250000D02*
X84000000Y-117650000D01*
X84000000Y-117650000D02*
X84000000Y-117500000D01*
X117500000Y-130450000D02*
X120250000Y-130450000D01*
X113604860Y-131282900D02*
X116667100Y-131282900D01*
X116667100Y-131282900D02*
X117500000Y-130450000D01*
X111500000Y-117500000D02*
X116000000Y-117500000D01*
X116000000Y-117500000D02*
X116250000Y-117750000D01*
D27*
X111500000Y-117500000D02*
X111500000Y-123586040D01*
X111500000Y-123586040D02*
X113604860Y-125690900D01*
X113604860Y-125690900D02*
X113604860Y-126634900D01*
D26*
X103000000Y-119250000D02*
X106750000Y-119250000D01*
X106750000Y-119250000D02*
X108500000Y-117500000D01*
D27*
X108500000Y-117500000D02*
X108500000Y-118754000D01*
X108500000Y-118754000D02*
X108470599Y-118783401D01*
X108470599Y-118783401D02*
X108470599Y-123862639D01*
X108470599Y-123862639D02*
X109794860Y-125186900D01*
X109794860Y-125186900D02*
X109794860Y-126634900D01*
G36*
X135996562Y-94254653D02*
X135365720Y-95773889D01*
X135364284Y-97418894D01*
X135992474Y-98939229D01*
X137154653Y-100103438D01*
X138673889Y-100734280D01*
X140318894Y-100735716D01*
X141839229Y-100107526D01*
X142790000Y-99158413D01*
X142790000Y-136042865D01*
X141845347Y-135096562D01*
X140326111Y-134465720D01*
X138681106Y-134464284D01*
X137160771Y-135092474D01*
X135996562Y-136254653D01*
X135365720Y-137773889D01*
X135364284Y-139418894D01*
X135992474Y-140939229D01*
X136941587Y-141890000D01*
X120750000Y-141890000D01*
X120478295Y-141944046D01*
X120247954Y-142097954D01*
X120094046Y-142328295D01*
X120040000Y-142600000D01*
X120040000Y-151790000D01*
X75060000Y-151790000D01*
X75060000Y-142600000D01*
X75005954Y-142328295D01*
X74852046Y-142097954D01*
X74621705Y-141944046D01*
X74350000Y-141890000D01*
X63057135Y-141890000D01*
X64003438Y-140945347D01*
X64634280Y-139426111D01*
X64635716Y-137781106D01*
X64007526Y-136260771D01*
X62845347Y-135096562D01*
X61326111Y-134465720D01*
X59681106Y-134464284D01*
X58160771Y-135092474D01*
X57210000Y-136041587D01*
X57210000Y-134024285D01*
X72364760Y-134024285D01*
X72575169Y-134533515D01*
X72964436Y-134923461D01*
X73473298Y-135134759D01*
X74024285Y-135135240D01*
X74533515Y-134924831D01*
X74923461Y-134535564D01*
X75134759Y-134026702D01*
X75135034Y-133712004D01*
X76894538Y-131952500D01*
X80052560Y-131952500D01*
X80052560Y-132000000D01*
X80096838Y-132235317D01*
X80235910Y-132451441D01*
X80448110Y-132596431D01*
X80700000Y-132647440D01*
X82300000Y-132647440D01*
X82535317Y-132603162D01*
X82751441Y-132464090D01*
X82896431Y-132251890D01*
X82947440Y-132000000D01*
X82947440Y-131952500D01*
X83197560Y-131952500D01*
X83197560Y-132518000D01*
X83241838Y-132753317D01*
X83380910Y-132969441D01*
X83593110Y-133114431D01*
X83845000Y-133165440D01*
X84345000Y-133165440D01*
X84412500Y-133152739D01*
X84412500Y-133740461D01*
X84150401Y-134002560D01*
X83000000Y-134002560D01*
X82764683Y-134046838D01*
X82548559Y-134185910D01*
X82403569Y-134398110D01*
X82352560Y-134650000D01*
X82352560Y-135650402D01*
X81786481Y-136216481D01*
X81732346Y-136297499D01*
X80135177Y-136297499D01*
X80135240Y-136225715D01*
X79924831Y-135716485D01*
X79535564Y-135326539D01*
X79026702Y-135115241D01*
X78475715Y-135114760D01*
X77966485Y-135325169D01*
X77576539Y-135714436D01*
X77365241Y-136223298D01*
X77364760Y-136774285D01*
X77575169Y-137283515D01*
X77964436Y-137673461D01*
X78473298Y-137884759D01*
X78787996Y-137885034D01*
X78826480Y-137923518D01*
X79135493Y-138129994D01*
X79499999Y-138202499D01*
X81507500Y-138202499D01*
X81507500Y-145245792D01*
X81337057Y-145316218D01*
X80778181Y-145874120D01*
X80475346Y-146603427D01*
X80474657Y-147393109D01*
X80776218Y-148122943D01*
X81334120Y-148681819D01*
X82063427Y-148984654D01*
X82853109Y-148985343D01*
X83582943Y-148683782D01*
X84141819Y-148125880D01*
X84444654Y-147396573D01*
X84445343Y-146606891D01*
X84143782Y-145877057D01*
X83585880Y-145318181D01*
X83412500Y-145246187D01*
X83412500Y-140747440D01*
X85000000Y-140747440D01*
X85235317Y-140703162D01*
X85451441Y-140564090D01*
X85596431Y-140351890D01*
X85647440Y-140100000D01*
X85647440Y-138949598D01*
X86392051Y-138204987D01*
X86352560Y-138400000D01*
X86352560Y-140100000D01*
X86396838Y-140335317D01*
X86535910Y-140551441D01*
X86748110Y-140696431D01*
X87000000Y-140747440D01*
X87047500Y-140747440D01*
X87047500Y-145055724D01*
X86417057Y-145316218D01*
X85858181Y-145874120D01*
X85555346Y-146603427D01*
X85554657Y-147393109D01*
X85856218Y-148122943D01*
X86414120Y-148681819D01*
X87143427Y-148984654D01*
X87933109Y-148985343D01*
X88662943Y-148683782D01*
X89221819Y-148125880D01*
X89524654Y-147396573D01*
X89525343Y-146606891D01*
X89223782Y-145877057D01*
X88952500Y-145605301D01*
X88952500Y-140747440D01*
X89000000Y-140747440D01*
X89235317Y-140703162D01*
X89451441Y-140564090D01*
X89596431Y-140351890D01*
X89626683Y-140202500D01*
X90220822Y-140202500D01*
X90585328Y-140129995D01*
X90894341Y-139923519D01*
X92120822Y-138697038D01*
X93597303Y-140173519D01*
X93906316Y-140379995D01*
X94270822Y-140452500D01*
X96743860Y-140452500D01*
X96964436Y-140673461D01*
X97473298Y-140884759D01*
X98024285Y-140885240D01*
X98533515Y-140674831D01*
X98923461Y-140285564D01*
X99134759Y-139776702D01*
X99135240Y-139225715D01*
X98924831Y-138716485D01*
X98535564Y-138326539D01*
X98026702Y-138115241D01*
X97475715Y-138114760D01*
X96966485Y-138325169D01*
X96743766Y-138547500D01*
X94665360Y-138547500D01*
X93467860Y-137350000D01*
X93703618Y-137114242D01*
X93910094Y-136805229D01*
X93919091Y-136760000D01*
X93964250Y-136760000D01*
X94123000Y-136601250D01*
X94123000Y-135627000D01*
X94377000Y-135627000D01*
X94377000Y-136601250D01*
X94535750Y-136760000D01*
X95126309Y-136760000D01*
X95359698Y-136663327D01*
X95538327Y-136484699D01*
X95635000Y-136251310D01*
X95635000Y-135785750D01*
X95476250Y-135627000D01*
X94377000Y-135627000D01*
X94123000Y-135627000D01*
X94103000Y-135627000D01*
X94103000Y-135373000D01*
X94123000Y-135373000D01*
X94123000Y-134398750D01*
X94377000Y-134398750D01*
X94377000Y-135373000D01*
X95476250Y-135373000D01*
X95635000Y-135214250D01*
X95635000Y-134748690D01*
X95538327Y-134515301D01*
X95359698Y-134336673D01*
X95126309Y-134240000D01*
X94535750Y-134240000D01*
X94377000Y-134398750D01*
X94123000Y-134398750D01*
X93964250Y-134240000D01*
X93919091Y-134240000D01*
X93910094Y-134194771D01*
X93703618Y-133885758D01*
X93324440Y-133506580D01*
X93015427Y-133300104D01*
X92650921Y-133227599D01*
X88941637Y-133227599D01*
X88642847Y-132928809D01*
X88751431Y-132769890D01*
X88802440Y-132518000D01*
X88802440Y-132276500D01*
X91276000Y-132276500D01*
X91640506Y-132203995D01*
X91949519Y-131997519D01*
X91949598Y-131997440D01*
X92650000Y-131997440D01*
X92885317Y-131953162D01*
X93101441Y-131814090D01*
X93246431Y-131601890D01*
X93256433Y-131552500D01*
X94212439Y-131552500D01*
X94246838Y-131735317D01*
X94385910Y-131951441D01*
X94598110Y-132096431D01*
X94850000Y-132147440D01*
X96150000Y-132147440D01*
X96385317Y-132103162D01*
X96601441Y-131964090D01*
X96746431Y-131751890D01*
X96797440Y-131500000D01*
X96797440Y-130482599D01*
X103950561Y-130482599D01*
X105141481Y-131673519D01*
X105450494Y-131879995D01*
X105802560Y-131950026D01*
X105802560Y-132000000D01*
X105846838Y-132235317D01*
X105985910Y-132451441D01*
X106198110Y-132596431D01*
X106450000Y-132647440D01*
X108050000Y-132647440D01*
X108285317Y-132603162D01*
X108501441Y-132464090D01*
X108646431Y-132251890D01*
X108697440Y-132000000D01*
X108697440Y-131952500D01*
X108897420Y-131952500D01*
X108897420Y-132476900D01*
X108941698Y-132712217D01*
X109080770Y-132928341D01*
X109292970Y-133073331D01*
X109544860Y-133124340D01*
X110044860Y-133124340D01*
X110112360Y-133111639D01*
X110112360Y-133790602D01*
X109900402Y-134002560D01*
X108750000Y-134002560D01*
X108514683Y-134046838D01*
X108298559Y-134185910D01*
X108153569Y-134398110D01*
X108102560Y-134650000D01*
X108102560Y-135650402D01*
X107096481Y-136656481D01*
X106890005Y-136965494D01*
X106835674Y-137238635D01*
X106634967Y-137037929D01*
X106635240Y-136725715D01*
X106424831Y-136216485D01*
X106035564Y-135826539D01*
X105526702Y-135615241D01*
X104975715Y-135614760D01*
X104466485Y-135825169D01*
X104076539Y-136214436D01*
X103865241Y-136723298D01*
X103864760Y-137274285D01*
X104075169Y-137783515D01*
X104464436Y-138173461D01*
X104973298Y-138384759D01*
X105287995Y-138385034D01*
X106526480Y-139623519D01*
X106752118Y-139774285D01*
X106817500Y-139817972D01*
X106817500Y-145145792D01*
X106647057Y-145216218D01*
X106088181Y-145774120D01*
X105785346Y-146503427D01*
X105784657Y-147293109D01*
X106086218Y-148022943D01*
X106644120Y-148581819D01*
X107373427Y-148884654D01*
X108163109Y-148885343D01*
X108892943Y-148583782D01*
X109451819Y-148025880D01*
X109754654Y-147296573D01*
X109755343Y-146506891D01*
X109453782Y-145777057D01*
X108895880Y-145218181D01*
X108722500Y-145146187D01*
X108722500Y-140741871D01*
X108750000Y-140747440D01*
X110750000Y-140747440D01*
X110985317Y-140703162D01*
X111201441Y-140564090D01*
X111346431Y-140351890D01*
X111397440Y-140100000D01*
X111397440Y-138949598D01*
X112142051Y-138204987D01*
X112102560Y-138400000D01*
X112102560Y-140100000D01*
X112146838Y-140335317D01*
X112285910Y-140551441D01*
X112498110Y-140696431D01*
X112750000Y-140747440D01*
X112797500Y-140747440D01*
X112797500Y-144914954D01*
X112456891Y-144914657D01*
X111727057Y-145216218D01*
X111168181Y-145774120D01*
X110865346Y-146503427D01*
X110864657Y-147293109D01*
X111166218Y-148022943D01*
X111724120Y-148581819D01*
X112453427Y-148884654D01*
X113243109Y-148885343D01*
X113972943Y-148583782D01*
X114531819Y-148025880D01*
X114834654Y-147296573D01*
X114835343Y-146506891D01*
X114677608Y-146125142D01*
X114702500Y-146000000D01*
X114702500Y-140747440D01*
X114750000Y-140747440D01*
X114985317Y-140703162D01*
X115201441Y-140564090D01*
X115346431Y-140351890D01*
X115376683Y-140202500D01*
X115470822Y-140202500D01*
X115835328Y-140129995D01*
X116144341Y-139923519D01*
X117644538Y-138423322D01*
X122015624Y-138423322D01*
X122015821Y-138423519D01*
X122324834Y-138629995D01*
X122689340Y-138702500D01*
X122743860Y-138702500D01*
X122964436Y-138923461D01*
X123473298Y-139134759D01*
X124024285Y-139135240D01*
X124533515Y-138924831D01*
X124923461Y-138535564D01*
X125134759Y-138026702D01*
X125135240Y-137475715D01*
X124924831Y-136966485D01*
X124535564Y-136576539D01*
X124026702Y-136365241D01*
X123475715Y-136364760D01*
X122966485Y-136575169D01*
X122880177Y-136661326D01*
X122774668Y-136590827D01*
X122410162Y-136518322D01*
X120754704Y-136518322D01*
X120788327Y-136484699D01*
X120885000Y-136251310D01*
X120885000Y-135785750D01*
X120726250Y-135627000D01*
X119627000Y-135627000D01*
X119627000Y-135647000D01*
X119373000Y-135647000D01*
X119373000Y-135627000D01*
X119353000Y-135627000D01*
X119353000Y-135373000D01*
X119373000Y-135373000D01*
X119373000Y-134398750D01*
X119627000Y-134398750D01*
X119627000Y-135373000D01*
X120726250Y-135373000D01*
X120885000Y-135214250D01*
X120885000Y-134748690D01*
X120788327Y-134515301D01*
X120609698Y-134336673D01*
X120376309Y-134240000D01*
X119785750Y-134240000D01*
X119627000Y-134398750D01*
X119373000Y-134398750D01*
X119214250Y-134240000D01*
X119169091Y-134240000D01*
X119160094Y-134194771D01*
X118953618Y-133885758D01*
X118574440Y-133506580D01*
X118265427Y-133300104D01*
X117900921Y-133227599D01*
X114682598Y-133227599D01*
X114342707Y-132887708D01*
X114451291Y-132728790D01*
X114502300Y-132476900D01*
X114502300Y-132235400D01*
X116667100Y-132235400D01*
X117031606Y-132162895D01*
X117340619Y-131956419D01*
X117449598Y-131847440D01*
X118150000Y-131847440D01*
X118385317Y-131803162D01*
X118601441Y-131664090D01*
X118746431Y-131451890D01*
X118756433Y-131402500D01*
X118990663Y-131402500D01*
X118996838Y-131435317D01*
X119135910Y-131651441D01*
X119348110Y-131796431D01*
X119600000Y-131847440D01*
X120900000Y-131847440D01*
X121135317Y-131803162D01*
X121351441Y-131664090D01*
X121496431Y-131451890D01*
X121547440Y-131200000D01*
X121547440Y-130182599D01*
X122400561Y-130182599D01*
X124391481Y-132173519D01*
X124700494Y-132379995D01*
X125052560Y-132450026D01*
X125052560Y-132500000D01*
X125096838Y-132735317D01*
X125235910Y-132951441D01*
X125448110Y-133096431D01*
X125700000Y-133147440D01*
X127300000Y-133147440D01*
X127535317Y-133103162D01*
X127751441Y-132964090D01*
X127896431Y-132751890D01*
X127918482Y-132643000D01*
X128079467Y-132643000D01*
X128096838Y-132735317D01*
X128235910Y-132951441D01*
X128448110Y-133096431D01*
X128700000Y-133147440D01*
X130300000Y-133147440D01*
X130535317Y-133103162D01*
X130751441Y-132964090D01*
X130896431Y-132751890D01*
X130918482Y-132643000D01*
X131500000Y-132643000D01*
X131937407Y-132555994D01*
X132308223Y-132308223D01*
X132437919Y-132114119D01*
X135136094Y-129415944D01*
X135310317Y-129383162D01*
X135526441Y-129244090D01*
X135671431Y-129031890D01*
X135722440Y-128780000D01*
X135722440Y-127720000D01*
X135678162Y-127484683D01*
X135549848Y-127285277D01*
X135629995Y-127165328D01*
X135662384Y-127002500D01*
X137867737Y-127002500D01*
X138025169Y-127383515D01*
X138414436Y-127773461D01*
X138923298Y-127984759D01*
X139474285Y-127985240D01*
X139983515Y-127774831D01*
X140373461Y-127385564D01*
X140584759Y-126876702D01*
X140585240Y-126325715D01*
X140374831Y-125816485D01*
X139985564Y-125426539D01*
X139476702Y-125215241D01*
X139081690Y-125214896D01*
X139014506Y-125170005D01*
X138650000Y-125097500D01*
X135557713Y-125097500D01*
X135539090Y-125068559D01*
X135326890Y-124923569D01*
X135075000Y-124872560D01*
X134425000Y-124872560D01*
X134284914Y-124898919D01*
X134251310Y-124885000D01*
X134085750Y-124885000D01*
X133927002Y-125043748D01*
X133927002Y-124885000D01*
X133802500Y-124885000D01*
X133802500Y-124488940D01*
X133729995Y-124124434D01*
X133565096Y-123877645D01*
X133523520Y-123815421D01*
X132568680Y-122860581D01*
X132568680Y-122010180D01*
X132524402Y-121774863D01*
X132385330Y-121558739D01*
X132173130Y-121413749D01*
X131921240Y-121362740D01*
X130949602Y-121362740D01*
X130846240Y-121342180D01*
X130742878Y-121362740D01*
X129771240Y-121362740D01*
X129535923Y-121407018D01*
X129319799Y-121546090D01*
X129174809Y-121758290D01*
X129123800Y-122010180D01*
X129123800Y-122591174D01*
X129107974Y-122607000D01*
X127920533Y-122607000D01*
X127903162Y-122514683D01*
X127764090Y-122298559D01*
X127551890Y-122153569D01*
X127300000Y-122102560D01*
X125700000Y-122102560D01*
X125464683Y-122146838D01*
X125248559Y-122285910D01*
X125123617Y-122468769D01*
X125014090Y-122298559D01*
X124801890Y-122153569D01*
X124550000Y-122102560D01*
X122950000Y-122102560D01*
X122714683Y-122146838D01*
X122498559Y-122285910D01*
X122353569Y-122498110D01*
X122326618Y-122631200D01*
X122170533Y-122631200D01*
X122153162Y-122538883D01*
X122014090Y-122322759D01*
X121801890Y-122177769D01*
X121550000Y-122126760D01*
X119950000Y-122126760D01*
X119714683Y-122171038D01*
X119498559Y-122310110D01*
X119353569Y-122522310D01*
X119331518Y-122631200D01*
X119275800Y-122631200D01*
X118838393Y-122718206D01*
X118467577Y-122965977D01*
X117941777Y-123491777D01*
X117694006Y-123862593D01*
X117607000Y-124300000D01*
X117694006Y-124737407D01*
X117941777Y-125108223D01*
X118312593Y-125355994D01*
X118750000Y-125443000D01*
X119187407Y-125355994D01*
X119454815Y-125177318D01*
X119485910Y-125225641D01*
X119698110Y-125370631D01*
X119950000Y-125421640D01*
X121550000Y-125421640D01*
X121785317Y-125377362D01*
X122001441Y-125238290D01*
X122146431Y-125026090D01*
X122168482Y-124917200D01*
X122334021Y-124917200D01*
X122346838Y-124985317D01*
X122485910Y-125201441D01*
X122698110Y-125346431D01*
X122950000Y-125397440D01*
X124550000Y-125397440D01*
X124785317Y-125353162D01*
X125001441Y-125214090D01*
X125126383Y-125031231D01*
X125235910Y-125201441D01*
X125448110Y-125346431D01*
X125700000Y-125397440D01*
X127300000Y-125397440D01*
X127535317Y-125353162D01*
X127751441Y-125214090D01*
X127896431Y-125001890D01*
X127918482Y-124893000D01*
X129581420Y-124893000D01*
X130018827Y-124805994D01*
X130389643Y-124558223D01*
X130980944Y-123966922D01*
X131897500Y-124883479D01*
X131897500Y-125421533D01*
X131877560Y-125520000D01*
X131877560Y-126580000D01*
X131897500Y-126685972D01*
X131897500Y-126800822D01*
X131970005Y-127165328D01*
X132051804Y-127287749D01*
X131928569Y-127468110D01*
X131877560Y-127720000D01*
X131877560Y-128780000D01*
X131921838Y-129015317D01*
X132060910Y-129231441D01*
X132273110Y-129376431D01*
X132446432Y-129411530D01*
X131500802Y-130357160D01*
X131500000Y-130357000D01*
X130920533Y-130357000D01*
X130903162Y-130264683D01*
X130764090Y-130048559D01*
X130551890Y-129903569D01*
X130300000Y-129852560D01*
X128700000Y-129852560D01*
X128464683Y-129896838D01*
X128248559Y-130035910D01*
X128103569Y-130248110D01*
X128081518Y-130357000D01*
X127920533Y-130357000D01*
X127903162Y-130264683D01*
X127764090Y-130048559D01*
X127551890Y-129903569D01*
X127300000Y-129852560D01*
X125700000Y-129852560D01*
X125464683Y-129896838D01*
X125248559Y-130035910D01*
X125126535Y-130214497D01*
X123468618Y-128556580D01*
X123159605Y-128350104D01*
X122795099Y-128277599D01*
X121535000Y-128277599D01*
X121535000Y-128035750D01*
X121376250Y-127877000D01*
X120377000Y-127877000D01*
X120377000Y-127897000D01*
X120123000Y-127897000D01*
X120123000Y-127877000D01*
X119123750Y-127877000D01*
X118998894Y-128001856D01*
X118797440Y-127800402D01*
X118797440Y-127785750D01*
X125065000Y-127785750D01*
X125065000Y-128626309D01*
X125161673Y-128859698D01*
X125340301Y-129038327D01*
X125573690Y-129135000D01*
X126214250Y-129135000D01*
X126373000Y-128976250D01*
X126373000Y-127627000D01*
X126627000Y-127627000D01*
X126627000Y-128976250D01*
X126785750Y-129135000D01*
X127426310Y-129135000D01*
X127659699Y-129038327D01*
X127838327Y-128859698D01*
X127935000Y-128626309D01*
X127935000Y-127785750D01*
X128065000Y-127785750D01*
X128065000Y-128626309D01*
X128161673Y-128859698D01*
X128340301Y-129038327D01*
X128573690Y-129135000D01*
X129214250Y-129135000D01*
X129373000Y-128976250D01*
X129373000Y-127627000D01*
X129627000Y-127627000D01*
X129627000Y-128976250D01*
X129785750Y-129135000D01*
X130426310Y-129135000D01*
X130659699Y-129038327D01*
X130838327Y-128859698D01*
X130935000Y-128626309D01*
X130935000Y-127785750D01*
X130776250Y-127627000D01*
X129627000Y-127627000D01*
X129373000Y-127627000D01*
X128223750Y-127627000D01*
X128065000Y-127785750D01*
X127935000Y-127785750D01*
X127776250Y-127627000D01*
X126627000Y-127627000D01*
X126373000Y-127627000D01*
X125223750Y-127627000D01*
X125065000Y-127785750D01*
X118797440Y-127785750D01*
X118797440Y-127000000D01*
X118773674Y-126873691D01*
X118965000Y-126873691D01*
X118965000Y-127464250D01*
X119123750Y-127623000D01*
X120123000Y-127623000D01*
X120123000Y-126523750D01*
X120377000Y-126523750D01*
X120377000Y-127623000D01*
X121376250Y-127623000D01*
X121535000Y-127464250D01*
X121535000Y-126873691D01*
X121438327Y-126640302D01*
X121259699Y-126461673D01*
X121047292Y-126373691D01*
X125065000Y-126373691D01*
X125065000Y-127214250D01*
X125223750Y-127373000D01*
X126373000Y-127373000D01*
X126373000Y-126023750D01*
X126627000Y-126023750D01*
X126627000Y-127373000D01*
X127776250Y-127373000D01*
X127935000Y-127214250D01*
X127935000Y-126373691D01*
X128065000Y-126373691D01*
X128065000Y-127214250D01*
X128223750Y-127373000D01*
X129373000Y-127373000D01*
X129373000Y-126023750D01*
X129627000Y-126023750D01*
X129627000Y-127373000D01*
X130776250Y-127373000D01*
X130935000Y-127214250D01*
X130935000Y-126373691D01*
X130838327Y-126140302D01*
X130659699Y-125961673D01*
X130426310Y-125865000D01*
X129785750Y-125865000D01*
X129627000Y-126023750D01*
X129373000Y-126023750D01*
X129214250Y-125865000D01*
X128573690Y-125865000D01*
X128340301Y-125961673D01*
X128161673Y-126140302D01*
X128065000Y-126373691D01*
X127935000Y-126373691D01*
X127838327Y-126140302D01*
X127659699Y-125961673D01*
X127426310Y-125865000D01*
X126785750Y-125865000D01*
X126627000Y-126023750D01*
X126373000Y-126023750D01*
X126214250Y-125865000D01*
X125573690Y-125865000D01*
X125340301Y-125961673D01*
X125161673Y-126140302D01*
X125065000Y-126373691D01*
X121047292Y-126373691D01*
X121026310Y-126365000D01*
X120535750Y-126365000D01*
X120377000Y-126523750D01*
X120123000Y-126523750D01*
X119964250Y-126365000D01*
X119473690Y-126365000D01*
X119240301Y-126461673D01*
X119061673Y-126640302D01*
X118965000Y-126873691D01*
X118773674Y-126873691D01*
X118753162Y-126764683D01*
X118614090Y-126548559D01*
X118401890Y-126403569D01*
X118150000Y-126352560D01*
X116850000Y-126352560D01*
X116614683Y-126396838D01*
X116398559Y-126535910D01*
X116253569Y-126748110D01*
X116202560Y-127000000D01*
X116202560Y-127800402D01*
X115618051Y-128384911D01*
X114163452Y-128384911D01*
X114306301Y-128292990D01*
X114451291Y-128080790D01*
X114502300Y-127828900D01*
X114502300Y-125440900D01*
X114458022Y-125205583D01*
X114318950Y-124989459D01*
X114106750Y-124844469D01*
X113854860Y-124793460D01*
X113785051Y-124793460D01*
X112676590Y-123685000D01*
X113464250Y-123685000D01*
X113623000Y-123526250D01*
X113623000Y-122377000D01*
X113877000Y-122377000D01*
X113877000Y-123526250D01*
X114035750Y-123685000D01*
X114876309Y-123685000D01*
X115109698Y-123588327D01*
X115288327Y-123409699D01*
X115385000Y-123176310D01*
X115385000Y-122535750D01*
X115226250Y-122377000D01*
X113877000Y-122377000D01*
X113623000Y-122377000D01*
X113603000Y-122377000D01*
X113603000Y-122123000D01*
X113623000Y-122123000D01*
X113623000Y-120973750D01*
X113877000Y-120973750D01*
X113877000Y-122123000D01*
X115226250Y-122123000D01*
X115385000Y-121964250D01*
X115385000Y-121323690D01*
X115288327Y-121090301D01*
X115109698Y-120911673D01*
X114876309Y-120815000D01*
X114035750Y-120815000D01*
X113877000Y-120973750D01*
X113623000Y-120973750D01*
X113464250Y-120815000D01*
X112623691Y-120815000D01*
X112390302Y-120911673D01*
X112262000Y-121039974D01*
X112262000Y-120059950D01*
X119315000Y-120059950D01*
X119315000Y-120900509D01*
X119411673Y-121133898D01*
X119590301Y-121312527D01*
X119823690Y-121409200D01*
X120464250Y-121409200D01*
X120623000Y-121250450D01*
X120623000Y-119901200D01*
X120877000Y-119901200D01*
X120877000Y-121250450D01*
X121035750Y-121409200D01*
X121676310Y-121409200D01*
X121909699Y-121312527D01*
X122088327Y-121133898D01*
X122185000Y-120900509D01*
X122185000Y-120059950D01*
X122160800Y-120035750D01*
X122315000Y-120035750D01*
X122315000Y-120876309D01*
X122411673Y-121109698D01*
X122590301Y-121288327D01*
X122823690Y-121385000D01*
X123464250Y-121385000D01*
X123623000Y-121226250D01*
X123623000Y-119877000D01*
X123877000Y-119877000D01*
X123877000Y-121226250D01*
X124035750Y-121385000D01*
X124676310Y-121385000D01*
X124909699Y-121288327D01*
X125088327Y-121109698D01*
X125125000Y-121021162D01*
X125161673Y-121109698D01*
X125340301Y-121288327D01*
X125573690Y-121385000D01*
X126214250Y-121385000D01*
X126373000Y-121226250D01*
X126373000Y-119877000D01*
X126627000Y-119877000D01*
X126627000Y-121226250D01*
X126785750Y-121385000D01*
X127426310Y-121385000D01*
X127659699Y-121288327D01*
X127838327Y-121109698D01*
X127935000Y-120876309D01*
X127935000Y-120470930D01*
X129136240Y-120470930D01*
X129136240Y-120786489D01*
X129232913Y-121019878D01*
X129411541Y-121198507D01*
X129644930Y-121295180D01*
X130560490Y-121295180D01*
X130719240Y-121136430D01*
X130719240Y-120312180D01*
X130973240Y-120312180D01*
X130973240Y-121136430D01*
X131131990Y-121295180D01*
X132047550Y-121295180D01*
X132280939Y-121198507D01*
X132459567Y-121019878D01*
X132556240Y-120786489D01*
X132556240Y-120470930D01*
X134936240Y-120470930D01*
X134936240Y-121936489D01*
X135032913Y-122169878D01*
X135211541Y-122348507D01*
X135444930Y-122445180D01*
X136360490Y-122445180D01*
X136519240Y-122286430D01*
X136519240Y-120312180D01*
X136773240Y-120312180D01*
X136773240Y-122286430D01*
X136931990Y-122445180D01*
X137847550Y-122445180D01*
X138080939Y-122348507D01*
X138259567Y-122169878D01*
X138356240Y-121936489D01*
X138356240Y-120470930D01*
X138197490Y-120312180D01*
X136773240Y-120312180D01*
X136519240Y-120312180D01*
X135094990Y-120312180D01*
X134936240Y-120470930D01*
X132556240Y-120470930D01*
X132397490Y-120312180D01*
X130973240Y-120312180D01*
X130719240Y-120312180D01*
X129294990Y-120312180D01*
X129136240Y-120470930D01*
X127935000Y-120470930D01*
X127935000Y-120035750D01*
X127776250Y-119877000D01*
X126627000Y-119877000D01*
X126373000Y-119877000D01*
X125223750Y-119877000D01*
X125125000Y-119975750D01*
X125026250Y-119877000D01*
X123877000Y-119877000D01*
X123623000Y-119877000D01*
X122473750Y-119877000D01*
X122315000Y-120035750D01*
X122160800Y-120035750D01*
X122026250Y-119901200D01*
X120877000Y-119901200D01*
X120623000Y-119901200D01*
X119473750Y-119901200D01*
X119315000Y-120059950D01*
X112262000Y-120059950D01*
X112262000Y-119147440D01*
X112350000Y-119147440D01*
X112585317Y-119103162D01*
X112801441Y-118964090D01*
X112946431Y-118751890D01*
X112997440Y-118500000D01*
X112997440Y-118452500D01*
X115041694Y-118452500D01*
X115075169Y-118533515D01*
X115464436Y-118923461D01*
X115973298Y-119134759D01*
X116524285Y-119135240D01*
X117033515Y-118924831D01*
X117310938Y-118647891D01*
X119315000Y-118647891D01*
X119315000Y-119488450D01*
X119473750Y-119647200D01*
X120623000Y-119647200D01*
X120623000Y-118297950D01*
X120877000Y-118297950D01*
X120877000Y-119647200D01*
X122026250Y-119647200D01*
X122185000Y-119488450D01*
X122185000Y-118647891D01*
X122174977Y-118623691D01*
X122315000Y-118623691D01*
X122315000Y-119464250D01*
X122473750Y-119623000D01*
X123623000Y-119623000D01*
X123623000Y-118273750D01*
X123877000Y-118273750D01*
X123877000Y-119623000D01*
X125026250Y-119623000D01*
X125125000Y-119524250D01*
X125223750Y-119623000D01*
X126373000Y-119623000D01*
X126373000Y-118273750D01*
X126627000Y-118273750D01*
X126627000Y-119623000D01*
X127776250Y-119623000D01*
X127815379Y-119583871D01*
X129136240Y-119583871D01*
X129136240Y-119899430D01*
X129294990Y-120058180D01*
X130719240Y-120058180D01*
X130719240Y-119233930D01*
X130973240Y-119233930D01*
X130973240Y-120058180D01*
X132397490Y-120058180D01*
X132556240Y-119899430D01*
X132556240Y-119583871D01*
X132459567Y-119350482D01*
X132280939Y-119171853D01*
X132047550Y-119075180D01*
X131131990Y-119075180D01*
X130973240Y-119233930D01*
X130719240Y-119233930D01*
X130560490Y-119075180D01*
X129644930Y-119075180D01*
X129411541Y-119171853D01*
X129232913Y-119350482D01*
X129136240Y-119583871D01*
X127815379Y-119583871D01*
X127935000Y-119464250D01*
X127935000Y-118623691D01*
X127838327Y-118390302D01*
X127659699Y-118211673D01*
X127426310Y-118115000D01*
X126785750Y-118115000D01*
X126627000Y-118273750D01*
X126373000Y-118273750D01*
X126214250Y-118115000D01*
X125573690Y-118115000D01*
X125340301Y-118211673D01*
X125161673Y-118390302D01*
X125125000Y-118478838D01*
X125088327Y-118390302D01*
X124909699Y-118211673D01*
X124676310Y-118115000D01*
X124035750Y-118115000D01*
X123877000Y-118273750D01*
X123623000Y-118273750D01*
X123464250Y-118115000D01*
X122823690Y-118115000D01*
X122590301Y-118211673D01*
X122411673Y-118390302D01*
X122315000Y-118623691D01*
X122174977Y-118623691D01*
X122088327Y-118414502D01*
X121909699Y-118235873D01*
X121676310Y-118139200D01*
X121035750Y-118139200D01*
X120877000Y-118297950D01*
X120623000Y-118297950D01*
X120464250Y-118139200D01*
X119823690Y-118139200D01*
X119590301Y-118235873D01*
X119411673Y-118414502D01*
X119315000Y-118647891D01*
X117310938Y-118647891D01*
X117423461Y-118535564D01*
X117634759Y-118026702D01*
X117635240Y-117475715D01*
X117424831Y-116966485D01*
X117035564Y-116576539D01*
X116526702Y-116365241D01*
X115975715Y-116364760D01*
X115533449Y-116547500D01*
X112997440Y-116547500D01*
X112997440Y-116500000D01*
X112953162Y-116264683D01*
X112814090Y-116048559D01*
X112601890Y-115903569D01*
X112350000Y-115852560D01*
X110650000Y-115852560D01*
X110414683Y-115896838D01*
X110198559Y-116035910D01*
X110053569Y-116248110D01*
X110002560Y-116500000D01*
X110002560Y-118500000D01*
X110046838Y-118735317D01*
X110185910Y-118951441D01*
X110398110Y-119096431D01*
X110650000Y-119147440D01*
X110738000Y-119147440D01*
X110738000Y-120802560D01*
X110443000Y-120802560D01*
X110443000Y-120200000D01*
X110355994Y-119762593D01*
X110108223Y-119391777D01*
X109737407Y-119144006D01*
X109557955Y-119108311D01*
X109585317Y-119103162D01*
X109801441Y-118964090D01*
X109946431Y-118751890D01*
X109997440Y-118500000D01*
X109997440Y-116500000D01*
X109953162Y-116264683D01*
X109814090Y-116048559D01*
X109601890Y-115903569D01*
X109350000Y-115852560D01*
X107650000Y-115852560D01*
X107414683Y-115896838D01*
X107198559Y-116035910D01*
X107053569Y-116248110D01*
X107002560Y-116500000D01*
X107002560Y-117650402D01*
X106355462Y-118297500D01*
X104006140Y-118297500D01*
X103785564Y-118076539D01*
X103276702Y-117865241D01*
X102725715Y-117864760D01*
X102216485Y-118075169D01*
X101826539Y-118464436D01*
X101615241Y-118973298D01*
X101614760Y-119524285D01*
X101825169Y-120033515D01*
X102214436Y-120423461D01*
X102723298Y-120634759D01*
X103274285Y-120635240D01*
X103783515Y-120424831D01*
X104006234Y-120202500D01*
X106750000Y-120202500D01*
X107114506Y-120129995D01*
X107423519Y-119923519D01*
X107708599Y-119638439D01*
X107708599Y-123862639D01*
X107766603Y-124154244D01*
X107931784Y-124401454D01*
X108909850Y-125379520D01*
X108897420Y-125440900D01*
X108897420Y-127828900D01*
X108941698Y-128064217D01*
X109080770Y-128280341D01*
X109292970Y-128425331D01*
X109544860Y-128476340D01*
X110044860Y-128476340D01*
X110280177Y-128432062D01*
X110430887Y-128335083D01*
X110562970Y-128425331D01*
X110577922Y-128428359D01*
X110443989Y-128455000D01*
X110431843Y-128457416D01*
X110122830Y-128663892D01*
X109285536Y-129501186D01*
X109093419Y-129624810D01*
X108948429Y-129837010D01*
X108923105Y-129962061D01*
X108914865Y-129974394D01*
X108900323Y-130047500D01*
X108697440Y-130047500D01*
X108697440Y-130000000D01*
X108653162Y-129764683D01*
X108514090Y-129548559D01*
X108301890Y-129403569D01*
X108050000Y-129352560D01*
X106450000Y-129352560D01*
X106214683Y-129396838D01*
X105998559Y-129535910D01*
X105876535Y-129714497D01*
X105018618Y-128856580D01*
X104709605Y-128650104D01*
X104345099Y-128577599D01*
X96785000Y-128577599D01*
X96785000Y-128335750D01*
X96626250Y-128177000D01*
X95627000Y-128177000D01*
X95627000Y-128197000D01*
X95373000Y-128197000D01*
X95373000Y-128177000D01*
X94373750Y-128177000D01*
X94215000Y-128335750D01*
X94215000Y-128577599D01*
X93924637Y-128577599D01*
X93297440Y-127950402D01*
X93297440Y-127173691D01*
X94215000Y-127173691D01*
X94215000Y-127764250D01*
X94373750Y-127923000D01*
X95373000Y-127923000D01*
X95373000Y-126823750D01*
X95627000Y-126823750D01*
X95627000Y-127923000D01*
X96626250Y-127923000D01*
X96785000Y-127764250D01*
X96785000Y-127285750D01*
X105815000Y-127285750D01*
X105815000Y-128126309D01*
X105911673Y-128359698D01*
X106090301Y-128538327D01*
X106323690Y-128635000D01*
X106964250Y-128635000D01*
X107123000Y-128476250D01*
X107123000Y-127127000D01*
X107377000Y-127127000D01*
X107377000Y-128476250D01*
X107535750Y-128635000D01*
X108176310Y-128635000D01*
X108409699Y-128538327D01*
X108588327Y-128359698D01*
X108685000Y-128126309D01*
X108685000Y-127285750D01*
X108526250Y-127127000D01*
X107377000Y-127127000D01*
X107123000Y-127127000D01*
X105973750Y-127127000D01*
X105815000Y-127285750D01*
X96785000Y-127285750D01*
X96785000Y-127173691D01*
X96688327Y-126940302D01*
X96509699Y-126761673D01*
X96276310Y-126665000D01*
X95785750Y-126665000D01*
X95627000Y-126823750D01*
X95373000Y-126823750D01*
X95214250Y-126665000D01*
X94723690Y-126665000D01*
X94490301Y-126761673D01*
X94311673Y-126940302D01*
X94215000Y-127173691D01*
X93297440Y-127173691D01*
X93297440Y-127150000D01*
X93253162Y-126914683D01*
X93114090Y-126698559D01*
X92901890Y-126553569D01*
X92650000Y-126502560D01*
X91350000Y-126502560D01*
X91114683Y-126546838D01*
X90898559Y-126685910D01*
X90753569Y-126898110D01*
X90702560Y-127150000D01*
X90702560Y-127950401D01*
X89945363Y-128707599D01*
X84739079Y-128707599D01*
X84374573Y-128780104D01*
X84065560Y-128986580D01*
X83421481Y-129630659D01*
X83401222Y-129660979D01*
X83393559Y-129665910D01*
X83248569Y-129878110D01*
X83245277Y-129894367D01*
X83215005Y-129939672D01*
X83193557Y-130047500D01*
X82947440Y-130047500D01*
X82947440Y-130000000D01*
X82903162Y-129764683D01*
X82764090Y-129548559D01*
X82551890Y-129403569D01*
X82300000Y-129352560D01*
X80700000Y-129352560D01*
X80464683Y-129396838D01*
X80248559Y-129535910D01*
X80103569Y-129748110D01*
X80052560Y-130000000D01*
X80052560Y-130047500D01*
X76500000Y-130047500D01*
X76185320Y-130110094D01*
X76135494Y-130120005D01*
X75826481Y-130326481D01*
X73787929Y-132365033D01*
X73475715Y-132364760D01*
X72966485Y-132575169D01*
X72576539Y-132964436D01*
X72365241Y-133473298D01*
X72364760Y-134024285D01*
X57210000Y-134024285D01*
X57210000Y-128721517D01*
X73458088Y-128721517D01*
X73526077Y-128962460D01*
X74045171Y-129147201D01*
X74595448Y-129119230D01*
X74973923Y-128962460D01*
X75041912Y-128721517D01*
X74250000Y-127929605D01*
X73458088Y-128721517D01*
X57210000Y-128721517D01*
X57210000Y-127545171D01*
X72852799Y-127545171D01*
X72880770Y-128095448D01*
X73037540Y-128473923D01*
X73278483Y-128541912D01*
X74070395Y-127750000D01*
X74429605Y-127750000D01*
X75221517Y-128541912D01*
X75462460Y-128473923D01*
X75647201Y-127954829D01*
X75619230Y-127404552D01*
X75570021Y-127285750D01*
X80065000Y-127285750D01*
X80065000Y-128126309D01*
X80161673Y-128359698D01*
X80340301Y-128538327D01*
X80573690Y-128635000D01*
X81214250Y-128635000D01*
X81373000Y-128476250D01*
X81373000Y-127127000D01*
X80223750Y-127127000D01*
X80065000Y-127285750D01*
X75570021Y-127285750D01*
X75462460Y-127026077D01*
X75221517Y-126958088D01*
X74429605Y-127750000D01*
X74070395Y-127750000D01*
X73278483Y-126958088D01*
X73037540Y-127026077D01*
X72852799Y-127545171D01*
X57210000Y-127545171D01*
X57210000Y-126778483D01*
X73458088Y-126778483D01*
X74250000Y-127570395D01*
X75041912Y-126778483D01*
X74973923Y-126537540D01*
X74454829Y-126352799D01*
X73904552Y-126380770D01*
X73526077Y-126537540D01*
X73458088Y-126778483D01*
X57210000Y-126778483D01*
X57210000Y-125873691D01*
X80065000Y-125873691D01*
X80065000Y-126714250D01*
X80223750Y-126873000D01*
X81373000Y-126873000D01*
X81373000Y-125523750D01*
X81214250Y-125365000D01*
X80573690Y-125365000D01*
X80340301Y-125461673D01*
X80161673Y-125640302D01*
X80065000Y-125873691D01*
X57210000Y-125873691D01*
X57210000Y-119524285D01*
X75114760Y-119524285D01*
X75325169Y-120033515D01*
X75714436Y-120423461D01*
X76223298Y-120634759D01*
X76774285Y-120635240D01*
X77283515Y-120424831D01*
X77506234Y-120202500D01*
X81638000Y-120202500D01*
X81638000Y-125485000D01*
X81642604Y-125508146D01*
X81627000Y-125523750D01*
X81627000Y-126873000D01*
X81647000Y-126873000D01*
X81647000Y-127127000D01*
X81627000Y-127127000D01*
X81627000Y-128476250D01*
X81785750Y-128635000D01*
X82426310Y-128635000D01*
X82659699Y-128538327D01*
X82838327Y-128359698D01*
X82935000Y-128126309D01*
X82935000Y-127285750D01*
X82776252Y-127127002D01*
X82935000Y-127127002D01*
X82935000Y-127097631D01*
X83052184Y-127214815D01*
X83197560Y-127311952D01*
X83197560Y-127870000D01*
X83241838Y-128105317D01*
X83380910Y-128321441D01*
X83593110Y-128466431D01*
X83845000Y-128517440D01*
X84345000Y-128517440D01*
X84580317Y-128473162D01*
X84731027Y-128376183D01*
X84863110Y-128466431D01*
X85115000Y-128517440D01*
X85615000Y-128517440D01*
X85850317Y-128473162D01*
X85996239Y-128379264D01*
X86025302Y-128408327D01*
X86258691Y-128505000D01*
X86351250Y-128505000D01*
X86510000Y-128346250D01*
X86510000Y-126803000D01*
X86488000Y-126803000D01*
X86488000Y-126549000D01*
X86510000Y-126549000D01*
X86510000Y-126529000D01*
X86760000Y-126529000D01*
X86760000Y-126549000D01*
X86782000Y-126549000D01*
X86782000Y-126803000D01*
X86760000Y-126803000D01*
X86760000Y-128346250D01*
X86918750Y-128505000D01*
X87011309Y-128505000D01*
X87244698Y-128408327D01*
X87274482Y-128378543D01*
X87403110Y-128466431D01*
X87655000Y-128517440D01*
X88155000Y-128517440D01*
X88390317Y-128473162D01*
X88606441Y-128334090D01*
X88751431Y-128121890D01*
X88802440Y-127870000D01*
X88802440Y-125873691D01*
X105815000Y-125873691D01*
X105815000Y-126714250D01*
X105973750Y-126873000D01*
X107123000Y-126873000D01*
X107123000Y-125523750D01*
X107377000Y-125523750D01*
X107377000Y-126873000D01*
X108526250Y-126873000D01*
X108685000Y-126714250D01*
X108685000Y-125873691D01*
X108588327Y-125640302D01*
X108409699Y-125461673D01*
X108176310Y-125365000D01*
X107535750Y-125365000D01*
X107377000Y-125523750D01*
X107123000Y-125523750D01*
X106964250Y-125365000D01*
X106323690Y-125365000D01*
X106090301Y-125461673D01*
X105911673Y-125640302D01*
X105815000Y-125873691D01*
X88802440Y-125873691D01*
X88802440Y-125482000D01*
X88758162Y-125246683D01*
X88619090Y-125030559D01*
X88406890Y-124885569D01*
X88155000Y-124834560D01*
X88085191Y-124834560D01*
X87232599Y-123981969D01*
X87232599Y-123685000D01*
X87464250Y-123685000D01*
X87623000Y-123526250D01*
X87623000Y-122377000D01*
X87877000Y-122377000D01*
X87877000Y-123526250D01*
X88035750Y-123685000D01*
X88876309Y-123685000D01*
X89109698Y-123588327D01*
X89288327Y-123409699D01*
X89385000Y-123176310D01*
X89385000Y-122535750D01*
X89226250Y-122377000D01*
X87877000Y-122377000D01*
X87623000Y-122377000D01*
X87603000Y-122377000D01*
X87603000Y-122123000D01*
X87623000Y-122123000D01*
X87623000Y-120973750D01*
X87464250Y-120815000D01*
X87232599Y-120815000D01*
X87232599Y-119599031D01*
X87417296Y-119414334D01*
X88676481Y-120673519D01*
X88907652Y-120827983D01*
X88876309Y-120815000D01*
X88035750Y-120815000D01*
X87877000Y-120973750D01*
X87877000Y-122123000D01*
X89226250Y-122123000D01*
X89385000Y-121964250D01*
X89385000Y-121323690D01*
X89288327Y-121090301D01*
X89109698Y-120911673D01*
X89077314Y-120898259D01*
X89350000Y-120952500D01*
X92493860Y-120952500D01*
X92714436Y-121173461D01*
X93223298Y-121384759D01*
X93774285Y-121385240D01*
X94283515Y-121174831D01*
X94673461Y-120785564D01*
X94884759Y-120276702D01*
X94885240Y-119725715D01*
X94674831Y-119216485D01*
X94285564Y-118826539D01*
X93776702Y-118615241D01*
X93225715Y-118614760D01*
X92716485Y-118825169D01*
X92493766Y-119047500D01*
X89744538Y-119047500D01*
X88497440Y-117800402D01*
X88497440Y-116500000D01*
X88453162Y-116264683D01*
X88314090Y-116048559D01*
X88101890Y-115903569D01*
X87850000Y-115852560D01*
X86150000Y-115852560D01*
X85914683Y-115896838D01*
X85698559Y-116035910D01*
X85553569Y-116248110D01*
X85502560Y-116500000D01*
X85502560Y-118500000D01*
X85546838Y-118735317D01*
X85685910Y-118951441D01*
X85764015Y-119004808D01*
X85708599Y-119283401D01*
X85708599Y-124184969D01*
X85101823Y-123578193D01*
X85201441Y-123514090D01*
X85346431Y-123301890D01*
X85397440Y-123050000D01*
X85397440Y-121450000D01*
X85353162Y-121214683D01*
X85214090Y-120998559D01*
X85001890Y-120853569D01*
X84750000Y-120802560D01*
X84202500Y-120802560D01*
X84202500Y-120756131D01*
X84227730Y-120695370D01*
X84228069Y-120306337D01*
X84079507Y-119946788D01*
X83804659Y-119671460D01*
X83466142Y-119530896D01*
X83849598Y-119147440D01*
X84850000Y-119147440D01*
X85085317Y-119103162D01*
X85301441Y-118964090D01*
X85446431Y-118751890D01*
X85497440Y-118500000D01*
X85497440Y-116500000D01*
X85453162Y-116264683D01*
X85314090Y-116048559D01*
X85101890Y-115903569D01*
X84850000Y-115852560D01*
X83150000Y-115852560D01*
X82914683Y-115896838D01*
X82698559Y-116035910D01*
X82553569Y-116248110D01*
X82502560Y-116500000D01*
X82502560Y-117800402D01*
X82005462Y-118297500D01*
X77506140Y-118297500D01*
X77285564Y-118076539D01*
X76776702Y-117865241D01*
X76225715Y-117864760D01*
X75716485Y-118075169D01*
X75326539Y-118464436D01*
X75115241Y-118973298D01*
X75114760Y-119524285D01*
X57210000Y-119524285D01*
X57210000Y-103301510D01*
X65188780Y-103301510D01*
X65381718Y-103768458D01*
X65738663Y-104126026D01*
X66205273Y-104319779D01*
X66710510Y-104320220D01*
X67177458Y-104127282D01*
X67535026Y-103770337D01*
X67728779Y-103303727D01*
X67729220Y-102798490D01*
X67536282Y-102331542D01*
X67179337Y-101973974D01*
X66712727Y-101780221D01*
X66207490Y-101779780D01*
X65740542Y-101972718D01*
X65382974Y-102329663D01*
X65189221Y-102796273D01*
X65188780Y-103301510D01*
X57210000Y-103301510D01*
X57210000Y-99157135D01*
X58154653Y-100103438D01*
X59673889Y-100734280D01*
X61318894Y-100735716D01*
X62490761Y-100251510D01*
X65188780Y-100251510D01*
X65381718Y-100718458D01*
X65738663Y-101076026D01*
X66205273Y-101269779D01*
X66710510Y-101270220D01*
X67177458Y-101077282D01*
X67535026Y-100720337D01*
X67728779Y-100253727D01*
X67729220Y-99748490D01*
X67536282Y-99281542D01*
X67179337Y-98923974D01*
X66712727Y-98730221D01*
X66207490Y-98729780D01*
X65740542Y-98922718D01*
X65382974Y-99279663D01*
X65189221Y-99746273D01*
X65188780Y-100251510D01*
X62490761Y-100251510D01*
X62839229Y-100107526D01*
X64003438Y-98945347D01*
X64634280Y-97426111D01*
X64635716Y-95781106D01*
X64209672Y-94750000D01*
X67873000Y-94750000D01*
X67873000Y-105500000D01*
X67881685Y-105546159D01*
X67908965Y-105588553D01*
X67950590Y-105616994D01*
X68000000Y-105627000D01*
X106845369Y-105627000D01*
X104634370Y-107838000D01*
X88750000Y-107838000D01*
X88501540Y-107887422D01*
X88458395Y-107896004D01*
X88211184Y-108061185D01*
X84419810Y-111852560D01*
X83150000Y-111852560D01*
X82914683Y-111896838D01*
X82698559Y-112035910D01*
X82553569Y-112248110D01*
X82543567Y-112297500D01*
X78256140Y-112297500D01*
X78035564Y-112076539D01*
X77526702Y-111865241D01*
X76975715Y-111864760D01*
X76466485Y-112075169D01*
X76076539Y-112464436D01*
X75865241Y-112973298D01*
X75864760Y-113524285D01*
X76075169Y-114033515D01*
X76464436Y-114423461D01*
X76973298Y-114634759D01*
X77524285Y-114635240D01*
X78033515Y-114424831D01*
X78256234Y-114202500D01*
X82502560Y-114202500D01*
X82502560Y-114500000D01*
X82546838Y-114735317D01*
X82685910Y-114951441D01*
X82898110Y-115096431D01*
X83150000Y-115147440D01*
X84850000Y-115147440D01*
X85085317Y-115103162D01*
X85301441Y-114964090D01*
X85446431Y-114751890D01*
X85497440Y-114500000D01*
X85497440Y-112930190D01*
X85502560Y-112925070D01*
X85502560Y-114500000D01*
X85546838Y-114735317D01*
X85685910Y-114951441D01*
X85898110Y-115096431D01*
X86150000Y-115147440D01*
X87850000Y-115147440D01*
X88085317Y-115103162D01*
X88301441Y-114964090D01*
X88446431Y-114751890D01*
X88497440Y-114500000D01*
X88497440Y-114452500D01*
X92493860Y-114452500D01*
X92714436Y-114673461D01*
X93223298Y-114884759D01*
X93774285Y-114885240D01*
X94283515Y-114674831D01*
X94673461Y-114285564D01*
X94884759Y-113776702D01*
X94885240Y-113225715D01*
X94674831Y-112716485D01*
X94285564Y-112326539D01*
X93776702Y-112115241D01*
X93225715Y-112114760D01*
X92716485Y-112325169D01*
X92493766Y-112547500D01*
X90134130Y-112547500D01*
X92869631Y-109812000D01*
X105774751Y-109812000D01*
X106066356Y-109753996D01*
X106313566Y-109588815D01*
X109393217Y-106509165D01*
X109484399Y-106372701D01*
X109484399Y-110183970D01*
X108007704Y-111660666D01*
X107923519Y-111576481D01*
X107614506Y-111370005D01*
X107250000Y-111297500D01*
X103506140Y-111297500D01*
X103285564Y-111076539D01*
X102776702Y-110865241D01*
X102225715Y-110864760D01*
X101716485Y-111075169D01*
X101326539Y-111464436D01*
X101115241Y-111973298D01*
X101114760Y-112524285D01*
X101325169Y-113033515D01*
X101714436Y-113423461D01*
X102223298Y-113634759D01*
X102774285Y-113635240D01*
X103283515Y-113424831D01*
X103506234Y-113202500D01*
X106855462Y-113202500D01*
X107002560Y-113349598D01*
X107002560Y-114500000D01*
X107046838Y-114735317D01*
X107185910Y-114951441D01*
X107398110Y-115096431D01*
X107650000Y-115147440D01*
X109350000Y-115147440D01*
X109585317Y-115103162D01*
X109801441Y-114964090D01*
X109946431Y-114751890D01*
X109997440Y-114500000D01*
X109997440Y-112500000D01*
X109953162Y-112264683D01*
X109814090Y-112048559D01*
X109790910Y-112032721D01*
X110688815Y-111134816D01*
X110754399Y-111036663D01*
X110754399Y-111852560D01*
X110650000Y-111852560D01*
X110414683Y-111896838D01*
X110198559Y-112035910D01*
X110053569Y-112248110D01*
X110002560Y-112500000D01*
X110002560Y-114500000D01*
X110046838Y-114735317D01*
X110185910Y-114951441D01*
X110398110Y-115096431D01*
X110650000Y-115147440D01*
X112350000Y-115147440D01*
X112585317Y-115103162D01*
X112801441Y-114964090D01*
X112946431Y-114751890D01*
X112997440Y-114500000D01*
X112997440Y-113452500D01*
X115493860Y-113452500D01*
X115714436Y-113673461D01*
X116223298Y-113884759D01*
X116774285Y-113885240D01*
X117283515Y-113674831D01*
X117673461Y-113285564D01*
X117884759Y-112776702D01*
X117885153Y-112324285D01*
X125064760Y-112324285D01*
X125275169Y-112833515D01*
X125664436Y-113223461D01*
X126173298Y-113434759D01*
X126724285Y-113435240D01*
X127233515Y-113224831D01*
X127456234Y-113002500D01*
X129708025Y-113002500D01*
X129671060Y-113185040D01*
X129671060Y-114785040D01*
X129715338Y-115020357D01*
X129854410Y-115236481D01*
X130066610Y-115381471D01*
X130175500Y-115403522D01*
X130175500Y-116762740D01*
X129771240Y-116762740D01*
X129535923Y-116807018D01*
X129319799Y-116946090D01*
X129174809Y-117158290D01*
X129123800Y-117410180D01*
X129123800Y-118360180D01*
X129168078Y-118595497D01*
X129307150Y-118811621D01*
X129519350Y-118956611D01*
X129771240Y-119007620D01*
X130742878Y-119007620D01*
X130846240Y-119028180D01*
X130949602Y-119007620D01*
X131921240Y-119007620D01*
X132156557Y-118963342D01*
X132372681Y-118824270D01*
X132517671Y-118612070D01*
X132553757Y-118433871D01*
X134936240Y-118433871D01*
X134936240Y-119899430D01*
X135094990Y-120058180D01*
X136519240Y-120058180D01*
X136519240Y-118083930D01*
X136773240Y-118083930D01*
X136773240Y-120058180D01*
X138197490Y-120058180D01*
X138356240Y-119899430D01*
X138356240Y-118433871D01*
X138259567Y-118200482D01*
X138080939Y-118021853D01*
X137847550Y-117925180D01*
X136931990Y-117925180D01*
X136773240Y-118083930D01*
X136519240Y-118083930D01*
X136360490Y-117925180D01*
X135444930Y-117925180D01*
X135211541Y-118021853D01*
X135032913Y-118200482D01*
X134936240Y-118433871D01*
X132553757Y-118433871D01*
X132568680Y-118360180D01*
X132568680Y-117410180D01*
X132524402Y-117174863D01*
X132461500Y-117077111D01*
X132461500Y-115405573D01*
X132553817Y-115388202D01*
X132769941Y-115249130D01*
X132914931Y-115036930D01*
X132965940Y-114785040D01*
X132965940Y-114270790D01*
X133683500Y-114270790D01*
X133683500Y-114911350D01*
X133780173Y-115144739D01*
X133958802Y-115323367D01*
X134192191Y-115420040D01*
X135032750Y-115420040D01*
X135191500Y-115261290D01*
X135191500Y-114112040D01*
X135445500Y-114112040D01*
X135445500Y-115261290D01*
X135604250Y-115420040D01*
X136444809Y-115420040D01*
X136678198Y-115323367D01*
X136856827Y-115144739D01*
X136953500Y-114911350D01*
X136953500Y-114270790D01*
X136794750Y-114112040D01*
X135445500Y-114112040D01*
X135191500Y-114112040D01*
X133842250Y-114112040D01*
X133683500Y-114270790D01*
X132965940Y-114270790D01*
X132965940Y-113185040D01*
X132942174Y-113058730D01*
X133683500Y-113058730D01*
X133683500Y-113699290D01*
X133842250Y-113858040D01*
X135191500Y-113858040D01*
X135191500Y-112708790D01*
X135445500Y-112708790D01*
X135445500Y-113858040D01*
X136794750Y-113858040D01*
X136953500Y-113699290D01*
X136953500Y-113058730D01*
X136856827Y-112825341D01*
X136678198Y-112646713D01*
X136444809Y-112550040D01*
X135604250Y-112550040D01*
X135445500Y-112708790D01*
X135191500Y-112708790D01*
X135032750Y-112550040D01*
X134192191Y-112550040D01*
X133958802Y-112646713D01*
X133780173Y-112825341D01*
X133683500Y-113058730D01*
X132942174Y-113058730D01*
X132921662Y-112949723D01*
X132782590Y-112733599D01*
X132570390Y-112588609D01*
X132556500Y-112585796D01*
X132556500Y-111803053D01*
X132648817Y-111785682D01*
X132864941Y-111646610D01*
X133009931Y-111434410D01*
X133060940Y-111182520D01*
X133060940Y-109482520D01*
X133016662Y-109247203D01*
X132877590Y-109031079D01*
X132665390Y-108886089D01*
X132413500Y-108835080D01*
X130413500Y-108835080D01*
X130178183Y-108879358D01*
X129962059Y-109018430D01*
X129817069Y-109230630D01*
X129766060Y-109482520D01*
X129766060Y-111097500D01*
X127456140Y-111097500D01*
X127235564Y-110876539D01*
X126726702Y-110665241D01*
X126175715Y-110664760D01*
X125666485Y-110875169D01*
X125276539Y-111264436D01*
X125065241Y-111773298D01*
X125064760Y-112324285D01*
X117885153Y-112324285D01*
X117885240Y-112225715D01*
X117674831Y-111716485D01*
X117285564Y-111326539D01*
X116776702Y-111115241D01*
X116225715Y-111114760D01*
X115716485Y-111325169D01*
X115493766Y-111547500D01*
X112500000Y-111547500D01*
X112176799Y-111611789D01*
X112176799Y-105627000D01*
X131083324Y-105627000D01*
X131084006Y-105630427D01*
X131331777Y-106001243D01*
X134204870Y-108874336D01*
X134178183Y-108879358D01*
X133962059Y-109018430D01*
X133817069Y-109230630D01*
X133766060Y-109482520D01*
X133766060Y-111182520D01*
X133810338Y-111417837D01*
X133949410Y-111633961D01*
X134161610Y-111778951D01*
X134413500Y-111829960D01*
X136413500Y-111829960D01*
X136648817Y-111785682D01*
X136864941Y-111646610D01*
X137009931Y-111434410D01*
X137060940Y-111182520D01*
X137060940Y-109482520D01*
X137016662Y-109247203D01*
X136877590Y-109031079D01*
X136665390Y-108886089D01*
X136556500Y-108864038D01*
X136556500Y-108466520D01*
X136469494Y-108029113D01*
X136221723Y-107658297D01*
X133283000Y-104719574D01*
X133283000Y-101268835D01*
X133285273Y-101269779D01*
X133790510Y-101270220D01*
X134257458Y-101077282D01*
X134615026Y-100720337D01*
X134808779Y-100253727D01*
X134809220Y-99748490D01*
X134616282Y-99281542D01*
X134259337Y-98923974D01*
X133792727Y-98730221D01*
X133287490Y-98729780D01*
X133283000Y-98731635D01*
X133283000Y-98218835D01*
X133285273Y-98219779D01*
X133790510Y-98220220D01*
X134257458Y-98027282D01*
X134615026Y-97670337D01*
X134808779Y-97203727D01*
X134809220Y-96698490D01*
X134616282Y-96231542D01*
X134259337Y-95873974D01*
X133792727Y-95680221D01*
X133287490Y-95679780D01*
X132820542Y-95872718D01*
X132462974Y-96229663D01*
X132288025Y-96650987D01*
X131969631Y-96332593D01*
X131944507Y-96271788D01*
X131877000Y-96204163D01*
X131877000Y-96176083D01*
X131943540Y-96109659D01*
X132092730Y-95750370D01*
X132093069Y-95361337D01*
X131944507Y-95001788D01*
X131877000Y-94934163D01*
X131877000Y-94750000D01*
X131868315Y-94703841D01*
X131841035Y-94661447D01*
X131799410Y-94633006D01*
X131750000Y-94623000D01*
X131420500Y-94623000D01*
X131310370Y-94577270D01*
X130921337Y-94576931D01*
X130809841Y-94623000D01*
X130150500Y-94623000D01*
X130040370Y-94577270D01*
X129651337Y-94576931D01*
X129539841Y-94623000D01*
X128793949Y-94623000D01*
X128676875Y-94586635D01*
X128298542Y-94621362D01*
X128294587Y-94623000D01*
X127523949Y-94623000D01*
X127406875Y-94586635D01*
X127028542Y-94621362D01*
X127024587Y-94623000D01*
X126340500Y-94623000D01*
X126230370Y-94577270D01*
X125841337Y-94576931D01*
X125729841Y-94623000D01*
X125070500Y-94623000D01*
X124960370Y-94577270D01*
X124571337Y-94576931D01*
X124459841Y-94623000D01*
X123800500Y-94623000D01*
X123690370Y-94577270D01*
X123301337Y-94576931D01*
X123189841Y-94623000D01*
X122530500Y-94623000D01*
X122420370Y-94577270D01*
X122031337Y-94576931D01*
X121919841Y-94623000D01*
X121260500Y-94623000D01*
X121150370Y-94577270D01*
X120761337Y-94576931D01*
X120649841Y-94623000D01*
X119990500Y-94623000D01*
X119880370Y-94577270D01*
X119491337Y-94576931D01*
X119379841Y-94623000D01*
X118720500Y-94623000D01*
X118610370Y-94577270D01*
X118221337Y-94576931D01*
X118109841Y-94623000D01*
X117450500Y-94623000D01*
X117340370Y-94577270D01*
X116951337Y-94576931D01*
X116839841Y-94623000D01*
X116180500Y-94623000D01*
X116070370Y-94577270D01*
X115681337Y-94576931D01*
X115569841Y-94623000D01*
X114910500Y-94623000D01*
X114800370Y-94577270D01*
X114411337Y-94576931D01*
X114299841Y-94623000D01*
X113640500Y-94623000D01*
X113530370Y-94577270D01*
X113141337Y-94576931D01*
X113029841Y-94623000D01*
X112370500Y-94623000D01*
X112260370Y-94577270D01*
X111871337Y-94576931D01*
X111759841Y-94623000D01*
X111100500Y-94623000D01*
X110990370Y-94577270D01*
X110601337Y-94576931D01*
X110489841Y-94623000D01*
X109830500Y-94623000D01*
X109720370Y-94577270D01*
X109331337Y-94576931D01*
X109219841Y-94623000D01*
X108560500Y-94623000D01*
X108450370Y-94577270D01*
X108061337Y-94576931D01*
X107949841Y-94623000D01*
X107290500Y-94623000D01*
X107180370Y-94577270D01*
X106791337Y-94576931D01*
X106679841Y-94623000D01*
X106020500Y-94623000D01*
X105910370Y-94577270D01*
X105521337Y-94576931D01*
X105409841Y-94623000D01*
X104750500Y-94623000D01*
X104640370Y-94577270D01*
X104251337Y-94576931D01*
X104139841Y-94623000D01*
X103480500Y-94623000D01*
X103370370Y-94577270D01*
X102981337Y-94576931D01*
X102869841Y-94623000D01*
X102210500Y-94623000D01*
X102100370Y-94577270D01*
X101711337Y-94576931D01*
X101599841Y-94623000D01*
X100940500Y-94623000D01*
X100830370Y-94577270D01*
X100441337Y-94576931D01*
X100329841Y-94623000D01*
X99670500Y-94623000D01*
X99560370Y-94577270D01*
X99171337Y-94576931D01*
X99059841Y-94623000D01*
X98400500Y-94623000D01*
X98290370Y-94577270D01*
X97901337Y-94576931D01*
X97789841Y-94623000D01*
X97130500Y-94623000D01*
X97020370Y-94577270D01*
X96631337Y-94576931D01*
X96519841Y-94623000D01*
X95860500Y-94623000D01*
X95750370Y-94577270D01*
X95361337Y-94576931D01*
X95249841Y-94623000D01*
X94590500Y-94623000D01*
X94480370Y-94577270D01*
X94091337Y-94576931D01*
X93979841Y-94623000D01*
X93320500Y-94623000D01*
X93210370Y-94577270D01*
X92821337Y-94576931D01*
X92709841Y-94623000D01*
X92050500Y-94623000D01*
X91940370Y-94577270D01*
X91551337Y-94576931D01*
X91439841Y-94623000D01*
X90780500Y-94623000D01*
X90670370Y-94577270D01*
X90281337Y-94576931D01*
X90169841Y-94623000D01*
X89510500Y-94623000D01*
X89400370Y-94577270D01*
X89011337Y-94576931D01*
X88899841Y-94623000D01*
X88240500Y-94623000D01*
X88130370Y-94577270D01*
X87741337Y-94576931D01*
X87629841Y-94623000D01*
X86970500Y-94623000D01*
X86860370Y-94577270D01*
X86471337Y-94576931D01*
X86359841Y-94623000D01*
X85700500Y-94623000D01*
X85590370Y-94577270D01*
X85201337Y-94576931D01*
X85089841Y-94623000D01*
X84430500Y-94623000D01*
X84320370Y-94577270D01*
X83931337Y-94576931D01*
X83819841Y-94623000D01*
X83160500Y-94623000D01*
X83050370Y-94577270D01*
X82661337Y-94576931D01*
X82549841Y-94623000D01*
X81890500Y-94623000D01*
X81780370Y-94577270D01*
X81391337Y-94576931D01*
X81279841Y-94623000D01*
X80620500Y-94623000D01*
X80510370Y-94577270D01*
X80121337Y-94576931D01*
X80009841Y-94623000D01*
X79350500Y-94623000D01*
X79240370Y-94577270D01*
X78851337Y-94576931D01*
X78739841Y-94623000D01*
X78080500Y-94623000D01*
X77970370Y-94577270D01*
X77581337Y-94576931D01*
X77469841Y-94623000D01*
X76810500Y-94623000D01*
X76700370Y-94577270D01*
X76311337Y-94576931D01*
X76199841Y-94623000D01*
X75540500Y-94623000D01*
X75430370Y-94577270D01*
X75041337Y-94576931D01*
X74929841Y-94623000D01*
X74270500Y-94623000D01*
X74160370Y-94577270D01*
X73771337Y-94576931D01*
X73659841Y-94623000D01*
X73000500Y-94623000D01*
X72890370Y-94577270D01*
X72501337Y-94576931D01*
X72389841Y-94623000D01*
X71730500Y-94623000D01*
X71620370Y-94577270D01*
X71231337Y-94576931D01*
X71119841Y-94623000D01*
X70460500Y-94623000D01*
X70350370Y-94577270D01*
X69961337Y-94576931D01*
X69849841Y-94623000D01*
X69190500Y-94623000D01*
X69080370Y-94577270D01*
X68691337Y-94576931D01*
X68579841Y-94623000D01*
X68000000Y-94623000D01*
X67953841Y-94631685D01*
X67911447Y-94658965D01*
X67883006Y-94700590D01*
X67873000Y-94750000D01*
X64209672Y-94750000D01*
X64007526Y-94260771D01*
X63059191Y-93310780D01*
X136942084Y-93310780D01*
X135996562Y-94254653D01*
X135996562Y-94254653D01*
G37*
X135996562Y-94254653D02*
X135365720Y-95773889D01*
X135364284Y-97418894D01*
X135992474Y-98939229D01*
X137154653Y-100103438D01*
X138673889Y-100734280D01*
X140318894Y-100735716D01*
X141839229Y-100107526D01*
X142790000Y-99158413D01*
X142790000Y-136042865D01*
X141845347Y-135096562D01*
X140326111Y-134465720D01*
X138681106Y-134464284D01*
X137160771Y-135092474D01*
X135996562Y-136254653D01*
X135365720Y-137773889D01*
X135364284Y-139418894D01*
X135992474Y-140939229D01*
X136941587Y-141890000D01*
X120750000Y-141890000D01*
X120478295Y-141944046D01*
X120247954Y-142097954D01*
X120094046Y-142328295D01*
X120040000Y-142600000D01*
X120040000Y-151790000D01*
X75060000Y-151790000D01*
X75060000Y-142600000D01*
X75005954Y-142328295D01*
X74852046Y-142097954D01*
X74621705Y-141944046D01*
X74350000Y-141890000D01*
X63057135Y-141890000D01*
X64003438Y-140945347D01*
X64634280Y-139426111D01*
X64635716Y-137781106D01*
X64007526Y-136260771D01*
X62845347Y-135096562D01*
X61326111Y-134465720D01*
X59681106Y-134464284D01*
X58160771Y-135092474D01*
X57210000Y-136041587D01*
X57210000Y-134024285D01*
X72364760Y-134024285D01*
X72575169Y-134533515D01*
X72964436Y-134923461D01*
X73473298Y-135134759D01*
X74024285Y-135135240D01*
X74533515Y-134924831D01*
X74923461Y-134535564D01*
X75134759Y-134026702D01*
X75135034Y-133712004D01*
X76894538Y-131952500D01*
X80052560Y-131952500D01*
X80052560Y-132000000D01*
X80096838Y-132235317D01*
X80235910Y-132451441D01*
X80448110Y-132596431D01*
X80700000Y-132647440D01*
X82300000Y-132647440D01*
X82535317Y-132603162D01*
X82751441Y-132464090D01*
X82896431Y-132251890D01*
X82947440Y-132000000D01*
X82947440Y-131952500D01*
X83197560Y-131952500D01*
X83197560Y-132518000D01*
X83241838Y-132753317D01*
X83380910Y-132969441D01*
X83593110Y-133114431D01*
X83845000Y-133165440D01*
X84345000Y-133165440D01*
X84412500Y-133152739D01*
X84412500Y-133740461D01*
X84150401Y-134002560D01*
X83000000Y-134002560D01*
X82764683Y-134046838D01*
X82548559Y-134185910D01*
X82403569Y-134398110D01*
X82352560Y-134650000D01*
X82352560Y-135650402D01*
X81786481Y-136216481D01*
X81732346Y-136297499D01*
X80135177Y-136297499D01*
X80135240Y-136225715D01*
X79924831Y-135716485D01*
X79535564Y-135326539D01*
X79026702Y-135115241D01*
X78475715Y-135114760D01*
X77966485Y-135325169D01*
X77576539Y-135714436D01*
X77365241Y-136223298D01*
X77364760Y-136774285D01*
X77575169Y-137283515D01*
X77964436Y-137673461D01*
X78473298Y-137884759D01*
X78787996Y-137885034D01*
X78826480Y-137923518D01*
X79135493Y-138129994D01*
X79499999Y-138202499D01*
X81507500Y-138202499D01*
X81507500Y-145245792D01*
X81337057Y-145316218D01*
X80778181Y-145874120D01*
X80475346Y-146603427D01*
X80474657Y-147393109D01*
X80776218Y-148122943D01*
X81334120Y-148681819D01*
X82063427Y-148984654D01*
X82853109Y-148985343D01*
X83582943Y-148683782D01*
X84141819Y-148125880D01*
X84444654Y-147396573D01*
X84445343Y-146606891D01*
X84143782Y-145877057D01*
X83585880Y-145318181D01*
X83412500Y-145246187D01*
X83412500Y-140747440D01*
X85000000Y-140747440D01*
X85235317Y-140703162D01*
X85451441Y-140564090D01*
X85596431Y-140351890D01*
X85647440Y-140100000D01*
X85647440Y-138949598D01*
X86392051Y-138204987D01*
X86352560Y-138400000D01*
X86352560Y-140100000D01*
X86396838Y-140335317D01*
X86535910Y-140551441D01*
X86748110Y-140696431D01*
X87000000Y-140747440D01*
X87047500Y-140747440D01*
X87047500Y-145055724D01*
X86417057Y-145316218D01*
X85858181Y-145874120D01*
X85555346Y-146603427D01*
X85554657Y-147393109D01*
X85856218Y-148122943D01*
X86414120Y-148681819D01*
X87143427Y-148984654D01*
X87933109Y-148985343D01*
X88662943Y-148683782D01*
X89221819Y-148125880D01*
X89524654Y-147396573D01*
X89525343Y-146606891D01*
X89223782Y-145877057D01*
X88952500Y-145605301D01*
X88952500Y-140747440D01*
X89000000Y-140747440D01*
X89235317Y-140703162D01*
X89451441Y-140564090D01*
X89596431Y-140351890D01*
X89626683Y-140202500D01*
X90220822Y-140202500D01*
X90585328Y-140129995D01*
X90894341Y-139923519D01*
X92120822Y-138697038D01*
X93597303Y-140173519D01*
X93906316Y-140379995D01*
X94270822Y-140452500D01*
X96743860Y-140452500D01*
X96964436Y-140673461D01*
X97473298Y-140884759D01*
X98024285Y-140885240D01*
X98533515Y-140674831D01*
X98923461Y-140285564D01*
X99134759Y-139776702D01*
X99135240Y-139225715D01*
X98924831Y-138716485D01*
X98535564Y-138326539D01*
X98026702Y-138115241D01*
X97475715Y-138114760D01*
X96966485Y-138325169D01*
X96743766Y-138547500D01*
X94665360Y-138547500D01*
X93467860Y-137350000D01*
X93703618Y-137114242D01*
X93910094Y-136805229D01*
X93919091Y-136760000D01*
X93964250Y-136760000D01*
X94123000Y-136601250D01*
X94123000Y-135627000D01*
X94377000Y-135627000D01*
X94377000Y-136601250D01*
X94535750Y-136760000D01*
X95126309Y-136760000D01*
X95359698Y-136663327D01*
X95538327Y-136484699D01*
X95635000Y-136251310D01*
X95635000Y-135785750D01*
X95476250Y-135627000D01*
X94377000Y-135627000D01*
X94123000Y-135627000D01*
X94103000Y-135627000D01*
X94103000Y-135373000D01*
X94123000Y-135373000D01*
X94123000Y-134398750D01*
X94377000Y-134398750D01*
X94377000Y-135373000D01*
X95476250Y-135373000D01*
X95635000Y-135214250D01*
X95635000Y-134748690D01*
X95538327Y-134515301D01*
X95359698Y-134336673D01*
X95126309Y-134240000D01*
X94535750Y-134240000D01*
X94377000Y-134398750D01*
X94123000Y-134398750D01*
X93964250Y-134240000D01*
X93919091Y-134240000D01*
X93910094Y-134194771D01*
X93703618Y-133885758D01*
X93324440Y-133506580D01*
X93015427Y-133300104D01*
X92650921Y-133227599D01*
X88941637Y-133227599D01*
X88642847Y-132928809D01*
X88751431Y-132769890D01*
X88802440Y-132518000D01*
X88802440Y-132276500D01*
X91276000Y-132276500D01*
X91640506Y-132203995D01*
X91949519Y-131997519D01*
X91949598Y-131997440D01*
X92650000Y-131997440D01*
X92885317Y-131953162D01*
X93101441Y-131814090D01*
X93246431Y-131601890D01*
X93256433Y-131552500D01*
X94212439Y-131552500D01*
X94246838Y-131735317D01*
X94385910Y-131951441D01*
X94598110Y-132096431D01*
X94850000Y-132147440D01*
X96150000Y-132147440D01*
X96385317Y-132103162D01*
X96601441Y-131964090D01*
X96746431Y-131751890D01*
X96797440Y-131500000D01*
X96797440Y-130482599D01*
X103950561Y-130482599D01*
X105141481Y-131673519D01*
X105450494Y-131879995D01*
X105802560Y-131950026D01*
X105802560Y-132000000D01*
X105846838Y-132235317D01*
X105985910Y-132451441D01*
X106198110Y-132596431D01*
X106450000Y-132647440D01*
X108050000Y-132647440D01*
X108285317Y-132603162D01*
X108501441Y-132464090D01*
X108646431Y-132251890D01*
X108697440Y-132000000D01*
X108697440Y-131952500D01*
X108897420Y-131952500D01*
X108897420Y-132476900D01*
X108941698Y-132712217D01*
X109080770Y-132928341D01*
X109292970Y-133073331D01*
X109544860Y-133124340D01*
X110044860Y-133124340D01*
X110112360Y-133111639D01*
X110112360Y-133790602D01*
X109900402Y-134002560D01*
X108750000Y-134002560D01*
X108514683Y-134046838D01*
X108298559Y-134185910D01*
X108153569Y-134398110D01*
X108102560Y-134650000D01*
X108102560Y-135650402D01*
X107096481Y-136656481D01*
X106890005Y-136965494D01*
X106835674Y-137238635D01*
X106634967Y-137037929D01*
X106635240Y-136725715D01*
X106424831Y-136216485D01*
X106035564Y-135826539D01*
X105526702Y-135615241D01*
X104975715Y-135614760D01*
X104466485Y-135825169D01*
X104076539Y-136214436D01*
X103865241Y-136723298D01*
X103864760Y-137274285D01*
X104075169Y-137783515D01*
X104464436Y-138173461D01*
X104973298Y-138384759D01*
X105287995Y-138385034D01*
X106526480Y-139623519D01*
X106752118Y-139774285D01*
X106817500Y-139817972D01*
X106817500Y-145145792D01*
X106647057Y-145216218D01*
X106088181Y-145774120D01*
X105785346Y-146503427D01*
X105784657Y-147293109D01*
X106086218Y-148022943D01*
X106644120Y-148581819D01*
X107373427Y-148884654D01*
X108163109Y-148885343D01*
X108892943Y-148583782D01*
X109451819Y-148025880D01*
X109754654Y-147296573D01*
X109755343Y-146506891D01*
X109453782Y-145777057D01*
X108895880Y-145218181D01*
X108722500Y-145146187D01*
X108722500Y-140741871D01*
X108750000Y-140747440D01*
X110750000Y-140747440D01*
X110985317Y-140703162D01*
X111201441Y-140564090D01*
X111346431Y-140351890D01*
X111397440Y-140100000D01*
X111397440Y-138949598D01*
X112142051Y-138204987D01*
X112102560Y-138400000D01*
X112102560Y-140100000D01*
X112146838Y-140335317D01*
X112285910Y-140551441D01*
X112498110Y-140696431D01*
X112750000Y-140747440D01*
X112797500Y-140747440D01*
X112797500Y-144914954D01*
X112456891Y-144914657D01*
X111727057Y-145216218D01*
X111168181Y-145774120D01*
X110865346Y-146503427D01*
X110864657Y-147293109D01*
X111166218Y-148022943D01*
X111724120Y-148581819D01*
X112453427Y-148884654D01*
X113243109Y-148885343D01*
X113972943Y-148583782D01*
X114531819Y-148025880D01*
X114834654Y-147296573D01*
X114835343Y-146506891D01*
X114677608Y-146125142D01*
X114702500Y-146000000D01*
X114702500Y-140747440D01*
X114750000Y-140747440D01*
X114985317Y-140703162D01*
X115201441Y-140564090D01*
X115346431Y-140351890D01*
X115376683Y-140202500D01*
X115470822Y-140202500D01*
X115835328Y-140129995D01*
X116144341Y-139923519D01*
X117644538Y-138423322D01*
X122015624Y-138423322D01*
X122015821Y-138423519D01*
X122324834Y-138629995D01*
X122689340Y-138702500D01*
X122743860Y-138702500D01*
X122964436Y-138923461D01*
X123473298Y-139134759D01*
X124024285Y-139135240D01*
X124533515Y-138924831D01*
X124923461Y-138535564D01*
X125134759Y-138026702D01*
X125135240Y-137475715D01*
X124924831Y-136966485D01*
X124535564Y-136576539D01*
X124026702Y-136365241D01*
X123475715Y-136364760D01*
X122966485Y-136575169D01*
X122880177Y-136661326D01*
X122774668Y-136590827D01*
X122410162Y-136518322D01*
X120754704Y-136518322D01*
X120788327Y-136484699D01*
X120885000Y-136251310D01*
X120885000Y-135785750D01*
X120726250Y-135627000D01*
X119627000Y-135627000D01*
X119627000Y-135647000D01*
X119373000Y-135647000D01*
X119373000Y-135627000D01*
X119353000Y-135627000D01*
X119353000Y-135373000D01*
X119373000Y-135373000D01*
X119373000Y-134398750D01*
X119627000Y-134398750D01*
X119627000Y-135373000D01*
X120726250Y-135373000D01*
X120885000Y-135214250D01*
X120885000Y-134748690D01*
X120788327Y-134515301D01*
X120609698Y-134336673D01*
X120376309Y-134240000D01*
X119785750Y-134240000D01*
X119627000Y-134398750D01*
X119373000Y-134398750D01*
X119214250Y-134240000D01*
X119169091Y-134240000D01*
X119160094Y-134194771D01*
X118953618Y-133885758D01*
X118574440Y-133506580D01*
X118265427Y-133300104D01*
X117900921Y-133227599D01*
X114682598Y-133227599D01*
X114342707Y-132887708D01*
X114451291Y-132728790D01*
X114502300Y-132476900D01*
X114502300Y-132235400D01*
X116667100Y-132235400D01*
X117031606Y-132162895D01*
X117340619Y-131956419D01*
X117449598Y-131847440D01*
X118150000Y-131847440D01*
X118385317Y-131803162D01*
X118601441Y-131664090D01*
X118746431Y-131451890D01*
X118756433Y-131402500D01*
X118990663Y-131402500D01*
X118996838Y-131435317D01*
X119135910Y-131651441D01*
X119348110Y-131796431D01*
X119600000Y-131847440D01*
X120900000Y-131847440D01*
X121135317Y-131803162D01*
X121351441Y-131664090D01*
X121496431Y-131451890D01*
X121547440Y-131200000D01*
X121547440Y-130182599D01*
X122400561Y-130182599D01*
X124391481Y-132173519D01*
X124700494Y-132379995D01*
X125052560Y-132450026D01*
X125052560Y-132500000D01*
X125096838Y-132735317D01*
X125235910Y-132951441D01*
X125448110Y-133096431D01*
X125700000Y-133147440D01*
X127300000Y-133147440D01*
X127535317Y-133103162D01*
X127751441Y-132964090D01*
X127896431Y-132751890D01*
X127918482Y-132643000D01*
X128079467Y-132643000D01*
X128096838Y-132735317D01*
X128235910Y-132951441D01*
X128448110Y-133096431D01*
X128700000Y-133147440D01*
X130300000Y-133147440D01*
X130535317Y-133103162D01*
X130751441Y-132964090D01*
X130896431Y-132751890D01*
X130918482Y-132643000D01*
X131500000Y-132643000D01*
X131937407Y-132555994D01*
X132308223Y-132308223D01*
X132437919Y-132114119D01*
X135136094Y-129415944D01*
X135310317Y-129383162D01*
X135526441Y-129244090D01*
X135671431Y-129031890D01*
X135722440Y-128780000D01*
X135722440Y-127720000D01*
X135678162Y-127484683D01*
X135549848Y-127285277D01*
X135629995Y-127165328D01*
X135662384Y-127002500D01*
X137867737Y-127002500D01*
X138025169Y-127383515D01*
X138414436Y-127773461D01*
X138923298Y-127984759D01*
X139474285Y-127985240D01*
X139983515Y-127774831D01*
X140373461Y-127385564D01*
X140584759Y-126876702D01*
X140585240Y-126325715D01*
X140374831Y-125816485D01*
X139985564Y-125426539D01*
X139476702Y-125215241D01*
X139081690Y-125214896D01*
X139014506Y-125170005D01*
X138650000Y-125097500D01*
X135557713Y-125097500D01*
X135539090Y-125068559D01*
X135326890Y-124923569D01*
X135075000Y-124872560D01*
X134425000Y-124872560D01*
X134284914Y-124898919D01*
X134251310Y-124885000D01*
X134085750Y-124885000D01*
X133927002Y-125043748D01*
X133927002Y-124885000D01*
X133802500Y-124885000D01*
X133802500Y-124488940D01*
X133729995Y-124124434D01*
X133565096Y-123877645D01*
X133523520Y-123815421D01*
X132568680Y-122860581D01*
X132568680Y-122010180D01*
X132524402Y-121774863D01*
X132385330Y-121558739D01*
X132173130Y-121413749D01*
X131921240Y-121362740D01*
X130949602Y-121362740D01*
X130846240Y-121342180D01*
X130742878Y-121362740D01*
X129771240Y-121362740D01*
X129535923Y-121407018D01*
X129319799Y-121546090D01*
X129174809Y-121758290D01*
X129123800Y-122010180D01*
X129123800Y-122591174D01*
X129107974Y-122607000D01*
X127920533Y-122607000D01*
X127903162Y-122514683D01*
X127764090Y-122298559D01*
X127551890Y-122153569D01*
X127300000Y-122102560D01*
X125700000Y-122102560D01*
X125464683Y-122146838D01*
X125248559Y-122285910D01*
X125123617Y-122468769D01*
X125014090Y-122298559D01*
X124801890Y-122153569D01*
X124550000Y-122102560D01*
X122950000Y-122102560D01*
X122714683Y-122146838D01*
X122498559Y-122285910D01*
X122353569Y-122498110D01*
X122326618Y-122631200D01*
X122170533Y-122631200D01*
X122153162Y-122538883D01*
X122014090Y-122322759D01*
X121801890Y-122177769D01*
X121550000Y-122126760D01*
X119950000Y-122126760D01*
X119714683Y-122171038D01*
X119498559Y-122310110D01*
X119353569Y-122522310D01*
X119331518Y-122631200D01*
X119275800Y-122631200D01*
X118838393Y-122718206D01*
X118467577Y-122965977D01*
X117941777Y-123491777D01*
X117694006Y-123862593D01*
X117607000Y-124300000D01*
X117694006Y-124737407D01*
X117941777Y-125108223D01*
X118312593Y-125355994D01*
X118750000Y-125443000D01*
X119187407Y-125355994D01*
X119454815Y-125177318D01*
X119485910Y-125225641D01*
X119698110Y-125370631D01*
X119950000Y-125421640D01*
X121550000Y-125421640D01*
X121785317Y-125377362D01*
X122001441Y-125238290D01*
X122146431Y-125026090D01*
X122168482Y-124917200D01*
X122334021Y-124917200D01*
X122346838Y-124985317D01*
X122485910Y-125201441D01*
X122698110Y-125346431D01*
X122950000Y-125397440D01*
X124550000Y-125397440D01*
X124785317Y-125353162D01*
X125001441Y-125214090D01*
X125126383Y-125031231D01*
X125235910Y-125201441D01*
X125448110Y-125346431D01*
X125700000Y-125397440D01*
X127300000Y-125397440D01*
X127535317Y-125353162D01*
X127751441Y-125214090D01*
X127896431Y-125001890D01*
X127918482Y-124893000D01*
X129581420Y-124893000D01*
X130018827Y-124805994D01*
X130389643Y-124558223D01*
X130980944Y-123966922D01*
X131897500Y-124883479D01*
X131897500Y-125421533D01*
X131877560Y-125520000D01*
X131877560Y-126580000D01*
X131897500Y-126685972D01*
X131897500Y-126800822D01*
X131970005Y-127165328D01*
X132051804Y-127287749D01*
X131928569Y-127468110D01*
X131877560Y-127720000D01*
X131877560Y-128780000D01*
X131921838Y-129015317D01*
X132060910Y-129231441D01*
X132273110Y-129376431D01*
X132446432Y-129411530D01*
X131500802Y-130357160D01*
X131500000Y-130357000D01*
X130920533Y-130357000D01*
X130903162Y-130264683D01*
X130764090Y-130048559D01*
X130551890Y-129903569D01*
X130300000Y-129852560D01*
X128700000Y-129852560D01*
X128464683Y-129896838D01*
X128248559Y-130035910D01*
X128103569Y-130248110D01*
X128081518Y-130357000D01*
X127920533Y-130357000D01*
X127903162Y-130264683D01*
X127764090Y-130048559D01*
X127551890Y-129903569D01*
X127300000Y-129852560D01*
X125700000Y-129852560D01*
X125464683Y-129896838D01*
X125248559Y-130035910D01*
X125126535Y-130214497D01*
X123468618Y-128556580D01*
X123159605Y-128350104D01*
X122795099Y-128277599D01*
X121535000Y-128277599D01*
X121535000Y-128035750D01*
X121376250Y-127877000D01*
X120377000Y-127877000D01*
X120377000Y-127897000D01*
X120123000Y-127897000D01*
X120123000Y-127877000D01*
X119123750Y-127877000D01*
X118998894Y-128001856D01*
X118797440Y-127800402D01*
X118797440Y-127785750D01*
X125065000Y-127785750D01*
X125065000Y-128626309D01*
X125161673Y-128859698D01*
X125340301Y-129038327D01*
X125573690Y-129135000D01*
X126214250Y-129135000D01*
X126373000Y-128976250D01*
X126373000Y-127627000D01*
X126627000Y-127627000D01*
X126627000Y-128976250D01*
X126785750Y-129135000D01*
X127426310Y-129135000D01*
X127659699Y-129038327D01*
X127838327Y-128859698D01*
X127935000Y-128626309D01*
X127935000Y-127785750D01*
X128065000Y-127785750D01*
X128065000Y-128626309D01*
X128161673Y-128859698D01*
X128340301Y-129038327D01*
X128573690Y-129135000D01*
X129214250Y-129135000D01*
X129373000Y-128976250D01*
X129373000Y-127627000D01*
X129627000Y-127627000D01*
X129627000Y-128976250D01*
X129785750Y-129135000D01*
X130426310Y-129135000D01*
X130659699Y-129038327D01*
X130838327Y-128859698D01*
X130935000Y-128626309D01*
X130935000Y-127785750D01*
X130776250Y-127627000D01*
X129627000Y-127627000D01*
X129373000Y-127627000D01*
X128223750Y-127627000D01*
X128065000Y-127785750D01*
X127935000Y-127785750D01*
X127776250Y-127627000D01*
X126627000Y-127627000D01*
X126373000Y-127627000D01*
X125223750Y-127627000D01*
X125065000Y-127785750D01*
X118797440Y-127785750D01*
X118797440Y-127000000D01*
X118773674Y-126873691D01*
X118965000Y-126873691D01*
X118965000Y-127464250D01*
X119123750Y-127623000D01*
X120123000Y-127623000D01*
X120123000Y-126523750D01*
X120377000Y-126523750D01*
X120377000Y-127623000D01*
X121376250Y-127623000D01*
X121535000Y-127464250D01*
X121535000Y-126873691D01*
X121438327Y-126640302D01*
X121259699Y-126461673D01*
X121047292Y-126373691D01*
X125065000Y-126373691D01*
X125065000Y-127214250D01*
X125223750Y-127373000D01*
X126373000Y-127373000D01*
X126373000Y-126023750D01*
X126627000Y-126023750D01*
X126627000Y-127373000D01*
X127776250Y-127373000D01*
X127935000Y-127214250D01*
X127935000Y-126373691D01*
X128065000Y-126373691D01*
X128065000Y-127214250D01*
X128223750Y-127373000D01*
X129373000Y-127373000D01*
X129373000Y-126023750D01*
X129627000Y-126023750D01*
X129627000Y-127373000D01*
X130776250Y-127373000D01*
X130935000Y-127214250D01*
X130935000Y-126373691D01*
X130838327Y-126140302D01*
X130659699Y-125961673D01*
X130426310Y-125865000D01*
X129785750Y-125865000D01*
X129627000Y-126023750D01*
X129373000Y-126023750D01*
X129214250Y-125865000D01*
X128573690Y-125865000D01*
X128340301Y-125961673D01*
X128161673Y-126140302D01*
X128065000Y-126373691D01*
X127935000Y-126373691D01*
X127838327Y-126140302D01*
X127659699Y-125961673D01*
X127426310Y-125865000D01*
X126785750Y-125865000D01*
X126627000Y-126023750D01*
X126373000Y-126023750D01*
X126214250Y-125865000D01*
X125573690Y-125865000D01*
X125340301Y-125961673D01*
X125161673Y-126140302D01*
X125065000Y-126373691D01*
X121047292Y-126373691D01*
X121026310Y-126365000D01*
X120535750Y-126365000D01*
X120377000Y-126523750D01*
X120123000Y-126523750D01*
X119964250Y-126365000D01*
X119473690Y-126365000D01*
X119240301Y-126461673D01*
X119061673Y-126640302D01*
X118965000Y-126873691D01*
X118773674Y-126873691D01*
X118753162Y-126764683D01*
X118614090Y-126548559D01*
X118401890Y-126403569D01*
X118150000Y-126352560D01*
X116850000Y-126352560D01*
X116614683Y-126396838D01*
X116398559Y-126535910D01*
X116253569Y-126748110D01*
X116202560Y-127000000D01*
X116202560Y-127800402D01*
X115618051Y-128384911D01*
X114163452Y-128384911D01*
X114306301Y-128292990D01*
X114451291Y-128080790D01*
X114502300Y-127828900D01*
X114502300Y-125440900D01*
X114458022Y-125205583D01*
X114318950Y-124989459D01*
X114106750Y-124844469D01*
X113854860Y-124793460D01*
X113785051Y-124793460D01*
X112676590Y-123685000D01*
X113464250Y-123685000D01*
X113623000Y-123526250D01*
X113623000Y-122377000D01*
X113877000Y-122377000D01*
X113877000Y-123526250D01*
X114035750Y-123685000D01*
X114876309Y-123685000D01*
X115109698Y-123588327D01*
X115288327Y-123409699D01*
X115385000Y-123176310D01*
X115385000Y-122535750D01*
X115226250Y-122377000D01*
X113877000Y-122377000D01*
X113623000Y-122377000D01*
X113603000Y-122377000D01*
X113603000Y-122123000D01*
X113623000Y-122123000D01*
X113623000Y-120973750D01*
X113877000Y-120973750D01*
X113877000Y-122123000D01*
X115226250Y-122123000D01*
X115385000Y-121964250D01*
X115385000Y-121323690D01*
X115288327Y-121090301D01*
X115109698Y-120911673D01*
X114876309Y-120815000D01*
X114035750Y-120815000D01*
X113877000Y-120973750D01*
X113623000Y-120973750D01*
X113464250Y-120815000D01*
X112623691Y-120815000D01*
X112390302Y-120911673D01*
X112262000Y-121039974D01*
X112262000Y-120059950D01*
X119315000Y-120059950D01*
X119315000Y-120900509D01*
X119411673Y-121133898D01*
X119590301Y-121312527D01*
X119823690Y-121409200D01*
X120464250Y-121409200D01*
X120623000Y-121250450D01*
X120623000Y-119901200D01*
X120877000Y-119901200D01*
X120877000Y-121250450D01*
X121035750Y-121409200D01*
X121676310Y-121409200D01*
X121909699Y-121312527D01*
X122088327Y-121133898D01*
X122185000Y-120900509D01*
X122185000Y-120059950D01*
X122160800Y-120035750D01*
X122315000Y-120035750D01*
X122315000Y-120876309D01*
X122411673Y-121109698D01*
X122590301Y-121288327D01*
X122823690Y-121385000D01*
X123464250Y-121385000D01*
X123623000Y-121226250D01*
X123623000Y-119877000D01*
X123877000Y-119877000D01*
X123877000Y-121226250D01*
X124035750Y-121385000D01*
X124676310Y-121385000D01*
X124909699Y-121288327D01*
X125088327Y-121109698D01*
X125125000Y-121021162D01*
X125161673Y-121109698D01*
X125340301Y-121288327D01*
X125573690Y-121385000D01*
X126214250Y-121385000D01*
X126373000Y-121226250D01*
X126373000Y-119877000D01*
X126627000Y-119877000D01*
X126627000Y-121226250D01*
X126785750Y-121385000D01*
X127426310Y-121385000D01*
X127659699Y-121288327D01*
X127838327Y-121109698D01*
X127935000Y-120876309D01*
X127935000Y-120470930D01*
X129136240Y-120470930D01*
X129136240Y-120786489D01*
X129232913Y-121019878D01*
X129411541Y-121198507D01*
X129644930Y-121295180D01*
X130560490Y-121295180D01*
X130719240Y-121136430D01*
X130719240Y-120312180D01*
X130973240Y-120312180D01*
X130973240Y-121136430D01*
X131131990Y-121295180D01*
X132047550Y-121295180D01*
X132280939Y-121198507D01*
X132459567Y-121019878D01*
X132556240Y-120786489D01*
X132556240Y-120470930D01*
X134936240Y-120470930D01*
X134936240Y-121936489D01*
X135032913Y-122169878D01*
X135211541Y-122348507D01*
X135444930Y-122445180D01*
X136360490Y-122445180D01*
X136519240Y-122286430D01*
X136519240Y-120312180D01*
X136773240Y-120312180D01*
X136773240Y-122286430D01*
X136931990Y-122445180D01*
X137847550Y-122445180D01*
X138080939Y-122348507D01*
X138259567Y-122169878D01*
X138356240Y-121936489D01*
X138356240Y-120470930D01*
X138197490Y-120312180D01*
X136773240Y-120312180D01*
X136519240Y-120312180D01*
X135094990Y-120312180D01*
X134936240Y-120470930D01*
X132556240Y-120470930D01*
X132397490Y-120312180D01*
X130973240Y-120312180D01*
X130719240Y-120312180D01*
X129294990Y-120312180D01*
X129136240Y-120470930D01*
X127935000Y-120470930D01*
X127935000Y-120035750D01*
X127776250Y-119877000D01*
X126627000Y-119877000D01*
X126373000Y-119877000D01*
X125223750Y-119877000D01*
X125125000Y-119975750D01*
X125026250Y-119877000D01*
X123877000Y-119877000D01*
X123623000Y-119877000D01*
X122473750Y-119877000D01*
X122315000Y-120035750D01*
X122160800Y-120035750D01*
X122026250Y-119901200D01*
X120877000Y-119901200D01*
X120623000Y-119901200D01*
X119473750Y-119901200D01*
X119315000Y-120059950D01*
X112262000Y-120059950D01*
X112262000Y-119147440D01*
X112350000Y-119147440D01*
X112585317Y-119103162D01*
X112801441Y-118964090D01*
X112946431Y-118751890D01*
X112997440Y-118500000D01*
X112997440Y-118452500D01*
X115041694Y-118452500D01*
X115075169Y-118533515D01*
X115464436Y-118923461D01*
X115973298Y-119134759D01*
X116524285Y-119135240D01*
X117033515Y-118924831D01*
X117310938Y-118647891D01*
X119315000Y-118647891D01*
X119315000Y-119488450D01*
X119473750Y-119647200D01*
X120623000Y-119647200D01*
X120623000Y-118297950D01*
X120877000Y-118297950D01*
X120877000Y-119647200D01*
X122026250Y-119647200D01*
X122185000Y-119488450D01*
X122185000Y-118647891D01*
X122174977Y-118623691D01*
X122315000Y-118623691D01*
X122315000Y-119464250D01*
X122473750Y-119623000D01*
X123623000Y-119623000D01*
X123623000Y-118273750D01*
X123877000Y-118273750D01*
X123877000Y-119623000D01*
X125026250Y-119623000D01*
X125125000Y-119524250D01*
X125223750Y-119623000D01*
X126373000Y-119623000D01*
X126373000Y-118273750D01*
X126627000Y-118273750D01*
X126627000Y-119623000D01*
X127776250Y-119623000D01*
X127815379Y-119583871D01*
X129136240Y-119583871D01*
X129136240Y-119899430D01*
X129294990Y-120058180D01*
X130719240Y-120058180D01*
X130719240Y-119233930D01*
X130973240Y-119233930D01*
X130973240Y-120058180D01*
X132397490Y-120058180D01*
X132556240Y-119899430D01*
X132556240Y-119583871D01*
X132459567Y-119350482D01*
X132280939Y-119171853D01*
X132047550Y-119075180D01*
X131131990Y-119075180D01*
X130973240Y-119233930D01*
X130719240Y-119233930D01*
X130560490Y-119075180D01*
X129644930Y-119075180D01*
X129411541Y-119171853D01*
X129232913Y-119350482D01*
X129136240Y-119583871D01*
X127815379Y-119583871D01*
X127935000Y-119464250D01*
X127935000Y-118623691D01*
X127838327Y-118390302D01*
X127659699Y-118211673D01*
X127426310Y-118115000D01*
X126785750Y-118115000D01*
X126627000Y-118273750D01*
X126373000Y-118273750D01*
X126214250Y-118115000D01*
X125573690Y-118115000D01*
X125340301Y-118211673D01*
X125161673Y-118390302D01*
X125125000Y-118478838D01*
X125088327Y-118390302D01*
X124909699Y-118211673D01*
X124676310Y-118115000D01*
X124035750Y-118115000D01*
X123877000Y-118273750D01*
X123623000Y-118273750D01*
X123464250Y-118115000D01*
X122823690Y-118115000D01*
X122590301Y-118211673D01*
X122411673Y-118390302D01*
X122315000Y-118623691D01*
X122174977Y-118623691D01*
X122088327Y-118414502D01*
X121909699Y-118235873D01*
X121676310Y-118139200D01*
X121035750Y-118139200D01*
X120877000Y-118297950D01*
X120623000Y-118297950D01*
X120464250Y-118139200D01*
X119823690Y-118139200D01*
X119590301Y-118235873D01*
X119411673Y-118414502D01*
X119315000Y-118647891D01*
X117310938Y-118647891D01*
X117423461Y-118535564D01*
X117634759Y-118026702D01*
X117635240Y-117475715D01*
X117424831Y-116966485D01*
X117035564Y-116576539D01*
X116526702Y-116365241D01*
X115975715Y-116364760D01*
X115533449Y-116547500D01*
X112997440Y-116547500D01*
X112997440Y-116500000D01*
X112953162Y-116264683D01*
X112814090Y-116048559D01*
X112601890Y-115903569D01*
X112350000Y-115852560D01*
X110650000Y-115852560D01*
X110414683Y-115896838D01*
X110198559Y-116035910D01*
X110053569Y-116248110D01*
X110002560Y-116500000D01*
X110002560Y-118500000D01*
X110046838Y-118735317D01*
X110185910Y-118951441D01*
X110398110Y-119096431D01*
X110650000Y-119147440D01*
X110738000Y-119147440D01*
X110738000Y-120802560D01*
X110443000Y-120802560D01*
X110443000Y-120200000D01*
X110355994Y-119762593D01*
X110108223Y-119391777D01*
X109737407Y-119144006D01*
X109557955Y-119108311D01*
X109585317Y-119103162D01*
X109801441Y-118964090D01*
X109946431Y-118751890D01*
X109997440Y-118500000D01*
X109997440Y-116500000D01*
X109953162Y-116264683D01*
X109814090Y-116048559D01*
X109601890Y-115903569D01*
X109350000Y-115852560D01*
X107650000Y-115852560D01*
X107414683Y-115896838D01*
X107198559Y-116035910D01*
X107053569Y-116248110D01*
X107002560Y-116500000D01*
X107002560Y-117650402D01*
X106355462Y-118297500D01*
X104006140Y-118297500D01*
X103785564Y-118076539D01*
X103276702Y-117865241D01*
X102725715Y-117864760D01*
X102216485Y-118075169D01*
X101826539Y-118464436D01*
X101615241Y-118973298D01*
X101614760Y-119524285D01*
X101825169Y-120033515D01*
X102214436Y-120423461D01*
X102723298Y-120634759D01*
X103274285Y-120635240D01*
X103783515Y-120424831D01*
X104006234Y-120202500D01*
X106750000Y-120202500D01*
X107114506Y-120129995D01*
X107423519Y-119923519D01*
X107708599Y-119638439D01*
X107708599Y-123862639D01*
X107766603Y-124154244D01*
X107931784Y-124401454D01*
X108909850Y-125379520D01*
X108897420Y-125440900D01*
X108897420Y-127828900D01*
X108941698Y-128064217D01*
X109080770Y-128280341D01*
X109292970Y-128425331D01*
X109544860Y-128476340D01*
X110044860Y-128476340D01*
X110280177Y-128432062D01*
X110430887Y-128335083D01*
X110562970Y-128425331D01*
X110577922Y-128428359D01*
X110443989Y-128455000D01*
X110431843Y-128457416D01*
X110122830Y-128663892D01*
X109285536Y-129501186D01*
X109093419Y-129624810D01*
X108948429Y-129837010D01*
X108923105Y-129962061D01*
X108914865Y-129974394D01*
X108900323Y-130047500D01*
X108697440Y-130047500D01*
X108697440Y-130000000D01*
X108653162Y-129764683D01*
X108514090Y-129548559D01*
X108301890Y-129403569D01*
X108050000Y-129352560D01*
X106450000Y-129352560D01*
X106214683Y-129396838D01*
X105998559Y-129535910D01*
X105876535Y-129714497D01*
X105018618Y-128856580D01*
X104709605Y-128650104D01*
X104345099Y-128577599D01*
X96785000Y-128577599D01*
X96785000Y-128335750D01*
X96626250Y-128177000D01*
X95627000Y-128177000D01*
X95627000Y-128197000D01*
X95373000Y-128197000D01*
X95373000Y-128177000D01*
X94373750Y-128177000D01*
X94215000Y-128335750D01*
X94215000Y-128577599D01*
X93924637Y-128577599D01*
X93297440Y-127950402D01*
X93297440Y-127173691D01*
X94215000Y-127173691D01*
X94215000Y-127764250D01*
X94373750Y-127923000D01*
X95373000Y-127923000D01*
X95373000Y-126823750D01*
X95627000Y-126823750D01*
X95627000Y-127923000D01*
X96626250Y-127923000D01*
X96785000Y-127764250D01*
X96785000Y-127285750D01*
X105815000Y-127285750D01*
X105815000Y-128126309D01*
X105911673Y-128359698D01*
X106090301Y-128538327D01*
X106323690Y-128635000D01*
X106964250Y-128635000D01*
X107123000Y-128476250D01*
X107123000Y-127127000D01*
X107377000Y-127127000D01*
X107377000Y-128476250D01*
X107535750Y-128635000D01*
X108176310Y-128635000D01*
X108409699Y-128538327D01*
X108588327Y-128359698D01*
X108685000Y-128126309D01*
X108685000Y-127285750D01*
X108526250Y-127127000D01*
X107377000Y-127127000D01*
X107123000Y-127127000D01*
X105973750Y-127127000D01*
X105815000Y-127285750D01*
X96785000Y-127285750D01*
X96785000Y-127173691D01*
X96688327Y-126940302D01*
X96509699Y-126761673D01*
X96276310Y-126665000D01*
X95785750Y-126665000D01*
X95627000Y-126823750D01*
X95373000Y-126823750D01*
X95214250Y-126665000D01*
X94723690Y-126665000D01*
X94490301Y-126761673D01*
X94311673Y-126940302D01*
X94215000Y-127173691D01*
X93297440Y-127173691D01*
X93297440Y-127150000D01*
X93253162Y-126914683D01*
X93114090Y-126698559D01*
X92901890Y-126553569D01*
X92650000Y-126502560D01*
X91350000Y-126502560D01*
X91114683Y-126546838D01*
X90898559Y-126685910D01*
X90753569Y-126898110D01*
X90702560Y-127150000D01*
X90702560Y-127950401D01*
X89945363Y-128707599D01*
X84739079Y-128707599D01*
X84374573Y-128780104D01*
X84065560Y-128986580D01*
X83421481Y-129630659D01*
X83401222Y-129660979D01*
X83393559Y-129665910D01*
X83248569Y-129878110D01*
X83245277Y-129894367D01*
X83215005Y-129939672D01*
X83193557Y-130047500D01*
X82947440Y-130047500D01*
X82947440Y-130000000D01*
X82903162Y-129764683D01*
X82764090Y-129548559D01*
X82551890Y-129403569D01*
X82300000Y-129352560D01*
X80700000Y-129352560D01*
X80464683Y-129396838D01*
X80248559Y-129535910D01*
X80103569Y-129748110D01*
X80052560Y-130000000D01*
X80052560Y-130047500D01*
X76500000Y-130047500D01*
X76185320Y-130110094D01*
X76135494Y-130120005D01*
X75826481Y-130326481D01*
X73787929Y-132365033D01*
X73475715Y-132364760D01*
X72966485Y-132575169D01*
X72576539Y-132964436D01*
X72365241Y-133473298D01*
X72364760Y-134024285D01*
X57210000Y-134024285D01*
X57210000Y-128721517D01*
X73458088Y-128721517D01*
X73526077Y-128962460D01*
X74045171Y-129147201D01*
X74595448Y-129119230D01*
X74973923Y-128962460D01*
X75041912Y-128721517D01*
X74250000Y-127929605D01*
X73458088Y-128721517D01*
X57210000Y-128721517D01*
X57210000Y-127545171D01*
X72852799Y-127545171D01*
X72880770Y-128095448D01*
X73037540Y-128473923D01*
X73278483Y-128541912D01*
X74070395Y-127750000D01*
X74429605Y-127750000D01*
X75221517Y-128541912D01*
X75462460Y-128473923D01*
X75647201Y-127954829D01*
X75619230Y-127404552D01*
X75570021Y-127285750D01*
X80065000Y-127285750D01*
X80065000Y-128126309D01*
X80161673Y-128359698D01*
X80340301Y-128538327D01*
X80573690Y-128635000D01*
X81214250Y-128635000D01*
X81373000Y-128476250D01*
X81373000Y-127127000D01*
X80223750Y-127127000D01*
X80065000Y-127285750D01*
X75570021Y-127285750D01*
X75462460Y-127026077D01*
X75221517Y-126958088D01*
X74429605Y-127750000D01*
X74070395Y-127750000D01*
X73278483Y-126958088D01*
X73037540Y-127026077D01*
X72852799Y-127545171D01*
X57210000Y-127545171D01*
X57210000Y-126778483D01*
X73458088Y-126778483D01*
X74250000Y-127570395D01*
X75041912Y-126778483D01*
X74973923Y-126537540D01*
X74454829Y-126352799D01*
X73904552Y-126380770D01*
X73526077Y-126537540D01*
X73458088Y-126778483D01*
X57210000Y-126778483D01*
X57210000Y-125873691D01*
X80065000Y-125873691D01*
X80065000Y-126714250D01*
X80223750Y-126873000D01*
X81373000Y-126873000D01*
X81373000Y-125523750D01*
X81214250Y-125365000D01*
X80573690Y-125365000D01*
X80340301Y-125461673D01*
X80161673Y-125640302D01*
X80065000Y-125873691D01*
X57210000Y-125873691D01*
X57210000Y-119524285D01*
X75114760Y-119524285D01*
X75325169Y-120033515D01*
X75714436Y-120423461D01*
X76223298Y-120634759D01*
X76774285Y-120635240D01*
X77283515Y-120424831D01*
X77506234Y-120202500D01*
X81638000Y-120202500D01*
X81638000Y-125485000D01*
X81642604Y-125508146D01*
X81627000Y-125523750D01*
X81627000Y-126873000D01*
X81647000Y-126873000D01*
X81647000Y-127127000D01*
X81627000Y-127127000D01*
X81627000Y-128476250D01*
X81785750Y-128635000D01*
X82426310Y-128635000D01*
X82659699Y-128538327D01*
X82838327Y-128359698D01*
X82935000Y-128126309D01*
X82935000Y-127285750D01*
X82776252Y-127127002D01*
X82935000Y-127127002D01*
X82935000Y-127097631D01*
X83052184Y-127214815D01*
X83197560Y-127311952D01*
X83197560Y-127870000D01*
X83241838Y-128105317D01*
X83380910Y-128321441D01*
X83593110Y-128466431D01*
X83845000Y-128517440D01*
X84345000Y-128517440D01*
X84580317Y-128473162D01*
X84731027Y-128376183D01*
X84863110Y-128466431D01*
X85115000Y-128517440D01*
X85615000Y-128517440D01*
X85850317Y-128473162D01*
X85996239Y-128379264D01*
X86025302Y-128408327D01*
X86258691Y-128505000D01*
X86351250Y-128505000D01*
X86510000Y-128346250D01*
X86510000Y-126803000D01*
X86488000Y-126803000D01*
X86488000Y-126549000D01*
X86510000Y-126549000D01*
X86510000Y-126529000D01*
X86760000Y-126529000D01*
X86760000Y-126549000D01*
X86782000Y-126549000D01*
X86782000Y-126803000D01*
X86760000Y-126803000D01*
X86760000Y-128346250D01*
X86918750Y-128505000D01*
X87011309Y-128505000D01*
X87244698Y-128408327D01*
X87274482Y-128378543D01*
X87403110Y-128466431D01*
X87655000Y-128517440D01*
X88155000Y-128517440D01*
X88390317Y-128473162D01*
X88606441Y-128334090D01*
X88751431Y-128121890D01*
X88802440Y-127870000D01*
X88802440Y-125873691D01*
X105815000Y-125873691D01*
X105815000Y-126714250D01*
X105973750Y-126873000D01*
X107123000Y-126873000D01*
X107123000Y-125523750D01*
X107377000Y-125523750D01*
X107377000Y-126873000D01*
X108526250Y-126873000D01*
X108685000Y-126714250D01*
X108685000Y-125873691D01*
X108588327Y-125640302D01*
X108409699Y-125461673D01*
X108176310Y-125365000D01*
X107535750Y-125365000D01*
X107377000Y-125523750D01*
X107123000Y-125523750D01*
X106964250Y-125365000D01*
X106323690Y-125365000D01*
X106090301Y-125461673D01*
X105911673Y-125640302D01*
X105815000Y-125873691D01*
X88802440Y-125873691D01*
X88802440Y-125482000D01*
X88758162Y-125246683D01*
X88619090Y-125030559D01*
X88406890Y-124885569D01*
X88155000Y-124834560D01*
X88085191Y-124834560D01*
X87232599Y-123981969D01*
X87232599Y-123685000D01*
X87464250Y-123685000D01*
X87623000Y-123526250D01*
X87623000Y-122377000D01*
X87877000Y-122377000D01*
X87877000Y-123526250D01*
X88035750Y-123685000D01*
X88876309Y-123685000D01*
X89109698Y-123588327D01*
X89288327Y-123409699D01*
X89385000Y-123176310D01*
X89385000Y-122535750D01*
X89226250Y-122377000D01*
X87877000Y-122377000D01*
X87623000Y-122377000D01*
X87603000Y-122377000D01*
X87603000Y-122123000D01*
X87623000Y-122123000D01*
X87623000Y-120973750D01*
X87464250Y-120815000D01*
X87232599Y-120815000D01*
X87232599Y-119599031D01*
X87417296Y-119414334D01*
X88676481Y-120673519D01*
X88907652Y-120827983D01*
X88876309Y-120815000D01*
X88035750Y-120815000D01*
X87877000Y-120973750D01*
X87877000Y-122123000D01*
X89226250Y-122123000D01*
X89385000Y-121964250D01*
X89385000Y-121323690D01*
X89288327Y-121090301D01*
X89109698Y-120911673D01*
X89077314Y-120898259D01*
X89350000Y-120952500D01*
X92493860Y-120952500D01*
X92714436Y-121173461D01*
X93223298Y-121384759D01*
X93774285Y-121385240D01*
X94283515Y-121174831D01*
X94673461Y-120785564D01*
X94884759Y-120276702D01*
X94885240Y-119725715D01*
X94674831Y-119216485D01*
X94285564Y-118826539D01*
X93776702Y-118615241D01*
X93225715Y-118614760D01*
X92716485Y-118825169D01*
X92493766Y-119047500D01*
X89744538Y-119047500D01*
X88497440Y-117800402D01*
X88497440Y-116500000D01*
X88453162Y-116264683D01*
X88314090Y-116048559D01*
X88101890Y-115903569D01*
X87850000Y-115852560D01*
X86150000Y-115852560D01*
X85914683Y-115896838D01*
X85698559Y-116035910D01*
X85553569Y-116248110D01*
X85502560Y-116500000D01*
X85502560Y-118500000D01*
X85546838Y-118735317D01*
X85685910Y-118951441D01*
X85764015Y-119004808D01*
X85708599Y-119283401D01*
X85708599Y-124184969D01*
X85101823Y-123578193D01*
X85201441Y-123514090D01*
X85346431Y-123301890D01*
X85397440Y-123050000D01*
X85397440Y-121450000D01*
X85353162Y-121214683D01*
X85214090Y-120998559D01*
X85001890Y-120853569D01*
X84750000Y-120802560D01*
X84202500Y-120802560D01*
X84202500Y-120756131D01*
X84227730Y-120695370D01*
X84228069Y-120306337D01*
X84079507Y-119946788D01*
X83804659Y-119671460D01*
X83466142Y-119530896D01*
X83849598Y-119147440D01*
X84850000Y-119147440D01*
X85085317Y-119103162D01*
X85301441Y-118964090D01*
X85446431Y-118751890D01*
X85497440Y-118500000D01*
X85497440Y-116500000D01*
X85453162Y-116264683D01*
X85314090Y-116048559D01*
X85101890Y-115903569D01*
X84850000Y-115852560D01*
X83150000Y-115852560D01*
X82914683Y-115896838D01*
X82698559Y-116035910D01*
X82553569Y-116248110D01*
X82502560Y-116500000D01*
X82502560Y-117800402D01*
X82005462Y-118297500D01*
X77506140Y-118297500D01*
X77285564Y-118076539D01*
X76776702Y-117865241D01*
X76225715Y-117864760D01*
X75716485Y-118075169D01*
X75326539Y-118464436D01*
X75115241Y-118973298D01*
X75114760Y-119524285D01*
X57210000Y-119524285D01*
X57210000Y-103301510D01*
X65188780Y-103301510D01*
X65381718Y-103768458D01*
X65738663Y-104126026D01*
X66205273Y-104319779D01*
X66710510Y-104320220D01*
X67177458Y-104127282D01*
X67535026Y-103770337D01*
X67728779Y-103303727D01*
X67729220Y-102798490D01*
X67536282Y-102331542D01*
X67179337Y-101973974D01*
X66712727Y-101780221D01*
X66207490Y-101779780D01*
X65740542Y-101972718D01*
X65382974Y-102329663D01*
X65189221Y-102796273D01*
X65188780Y-103301510D01*
X57210000Y-103301510D01*
X57210000Y-99157135D01*
X58154653Y-100103438D01*
X59673889Y-100734280D01*
X61318894Y-100735716D01*
X62490761Y-100251510D01*
X65188780Y-100251510D01*
X65381718Y-100718458D01*
X65738663Y-101076026D01*
X66205273Y-101269779D01*
X66710510Y-101270220D01*
X67177458Y-101077282D01*
X67535026Y-100720337D01*
X67728779Y-100253727D01*
X67729220Y-99748490D01*
X67536282Y-99281542D01*
X67179337Y-98923974D01*
X66712727Y-98730221D01*
X66207490Y-98729780D01*
X65740542Y-98922718D01*
X65382974Y-99279663D01*
X65189221Y-99746273D01*
X65188780Y-100251510D01*
X62490761Y-100251510D01*
X62839229Y-100107526D01*
X64003438Y-98945347D01*
X64634280Y-97426111D01*
X64635716Y-95781106D01*
X64209672Y-94750000D01*
X67873000Y-94750000D01*
X67873000Y-105500000D01*
X67881685Y-105546159D01*
X67908965Y-105588553D01*
X67950590Y-105616994D01*
X68000000Y-105627000D01*
X106845369Y-105627000D01*
X104634370Y-107838000D01*
X88750000Y-107838000D01*
X88501540Y-107887422D01*
X88458395Y-107896004D01*
X88211184Y-108061185D01*
X84419810Y-111852560D01*
X83150000Y-111852560D01*
X82914683Y-111896838D01*
X82698559Y-112035910D01*
X82553569Y-112248110D01*
X82543567Y-112297500D01*
X78256140Y-112297500D01*
X78035564Y-112076539D01*
X77526702Y-111865241D01*
X76975715Y-111864760D01*
X76466485Y-112075169D01*
X76076539Y-112464436D01*
X75865241Y-112973298D01*
X75864760Y-113524285D01*
X76075169Y-114033515D01*
X76464436Y-114423461D01*
X76973298Y-114634759D01*
X77524285Y-114635240D01*
X78033515Y-114424831D01*
X78256234Y-114202500D01*
X82502560Y-114202500D01*
X82502560Y-114500000D01*
X82546838Y-114735317D01*
X82685910Y-114951441D01*
X82898110Y-115096431D01*
X83150000Y-115147440D01*
X84850000Y-115147440D01*
X85085317Y-115103162D01*
X85301441Y-114964090D01*
X85446431Y-114751890D01*
X85497440Y-114500000D01*
X85497440Y-112930190D01*
X85502560Y-112925070D01*
X85502560Y-114500000D01*
X85546838Y-114735317D01*
X85685910Y-114951441D01*
X85898110Y-115096431D01*
X86150000Y-115147440D01*
X87850000Y-115147440D01*
X88085317Y-115103162D01*
X88301441Y-114964090D01*
X88446431Y-114751890D01*
X88497440Y-114500000D01*
X88497440Y-114452500D01*
X92493860Y-114452500D01*
X92714436Y-114673461D01*
X93223298Y-114884759D01*
X93774285Y-114885240D01*
X94283515Y-114674831D01*
X94673461Y-114285564D01*
X94884759Y-113776702D01*
X94885240Y-113225715D01*
X94674831Y-112716485D01*
X94285564Y-112326539D01*
X93776702Y-112115241D01*
X93225715Y-112114760D01*
X92716485Y-112325169D01*
X92493766Y-112547500D01*
X90134130Y-112547500D01*
X92869631Y-109812000D01*
X105774751Y-109812000D01*
X106066356Y-109753996D01*
X106313566Y-109588815D01*
X109393217Y-106509165D01*
X109484399Y-106372701D01*
X109484399Y-110183970D01*
X108007704Y-111660666D01*
X107923519Y-111576481D01*
X107614506Y-111370005D01*
X107250000Y-111297500D01*
X103506140Y-111297500D01*
X103285564Y-111076539D01*
X102776702Y-110865241D01*
X102225715Y-110864760D01*
X101716485Y-111075169D01*
X101326539Y-111464436D01*
X101115241Y-111973298D01*
X101114760Y-112524285D01*
X101325169Y-113033515D01*
X101714436Y-113423461D01*
X102223298Y-113634759D01*
X102774285Y-113635240D01*
X103283515Y-113424831D01*
X103506234Y-113202500D01*
X106855462Y-113202500D01*
X107002560Y-113349598D01*
X107002560Y-114500000D01*
X107046838Y-114735317D01*
X107185910Y-114951441D01*
X107398110Y-115096431D01*
X107650000Y-115147440D01*
X109350000Y-115147440D01*
X109585317Y-115103162D01*
X109801441Y-114964090D01*
X109946431Y-114751890D01*
X109997440Y-114500000D01*
X109997440Y-112500000D01*
X109953162Y-112264683D01*
X109814090Y-112048559D01*
X109790910Y-112032721D01*
X110688815Y-111134816D01*
X110754399Y-111036663D01*
X110754399Y-111852560D01*
X110650000Y-111852560D01*
X110414683Y-111896838D01*
X110198559Y-112035910D01*
X110053569Y-112248110D01*
X110002560Y-112500000D01*
X110002560Y-114500000D01*
X110046838Y-114735317D01*
X110185910Y-114951441D01*
X110398110Y-115096431D01*
X110650000Y-115147440D01*
X112350000Y-115147440D01*
X112585317Y-115103162D01*
X112801441Y-114964090D01*
X112946431Y-114751890D01*
X112997440Y-114500000D01*
X112997440Y-113452500D01*
X115493860Y-113452500D01*
X115714436Y-113673461D01*
X116223298Y-113884759D01*
X116774285Y-113885240D01*
X117283515Y-113674831D01*
X117673461Y-113285564D01*
X117884759Y-112776702D01*
X117885153Y-112324285D01*
X125064760Y-112324285D01*
X125275169Y-112833515D01*
X125664436Y-113223461D01*
X126173298Y-113434759D01*
X126724285Y-113435240D01*
X127233515Y-113224831D01*
X127456234Y-113002500D01*
X129708025Y-113002500D01*
X129671060Y-113185040D01*
X129671060Y-114785040D01*
X129715338Y-115020357D01*
X129854410Y-115236481D01*
X130066610Y-115381471D01*
X130175500Y-115403522D01*
X130175500Y-116762740D01*
X129771240Y-116762740D01*
X129535923Y-116807018D01*
X129319799Y-116946090D01*
X129174809Y-117158290D01*
X129123800Y-117410180D01*
X129123800Y-118360180D01*
X129168078Y-118595497D01*
X129307150Y-118811621D01*
X129519350Y-118956611D01*
X129771240Y-119007620D01*
X130742878Y-119007620D01*
X130846240Y-119028180D01*
X130949602Y-119007620D01*
X131921240Y-119007620D01*
X132156557Y-118963342D01*
X132372681Y-118824270D01*
X132517671Y-118612070D01*
X132553757Y-118433871D01*
X134936240Y-118433871D01*
X134936240Y-119899430D01*
X135094990Y-120058180D01*
X136519240Y-120058180D01*
X136519240Y-118083930D01*
X136773240Y-118083930D01*
X136773240Y-120058180D01*
X138197490Y-120058180D01*
X138356240Y-119899430D01*
X138356240Y-118433871D01*
X138259567Y-118200482D01*
X138080939Y-118021853D01*
X137847550Y-117925180D01*
X136931990Y-117925180D01*
X136773240Y-118083930D01*
X136519240Y-118083930D01*
X136360490Y-117925180D01*
X135444930Y-117925180D01*
X135211541Y-118021853D01*
X135032913Y-118200482D01*
X134936240Y-118433871D01*
X132553757Y-118433871D01*
X132568680Y-118360180D01*
X132568680Y-117410180D01*
X132524402Y-117174863D01*
X132461500Y-117077111D01*
X132461500Y-115405573D01*
X132553817Y-115388202D01*
X132769941Y-115249130D01*
X132914931Y-115036930D01*
X132965940Y-114785040D01*
X132965940Y-114270790D01*
X133683500Y-114270790D01*
X133683500Y-114911350D01*
X133780173Y-115144739D01*
X133958802Y-115323367D01*
X134192191Y-115420040D01*
X135032750Y-115420040D01*
X135191500Y-115261290D01*
X135191500Y-114112040D01*
X135445500Y-114112040D01*
X135445500Y-115261290D01*
X135604250Y-115420040D01*
X136444809Y-115420040D01*
X136678198Y-115323367D01*
X136856827Y-115144739D01*
X136953500Y-114911350D01*
X136953500Y-114270790D01*
X136794750Y-114112040D01*
X135445500Y-114112040D01*
X135191500Y-114112040D01*
X133842250Y-114112040D01*
X133683500Y-114270790D01*
X132965940Y-114270790D01*
X132965940Y-113185040D01*
X132942174Y-113058730D01*
X133683500Y-113058730D01*
X133683500Y-113699290D01*
X133842250Y-113858040D01*
X135191500Y-113858040D01*
X135191500Y-112708790D01*
X135445500Y-112708790D01*
X135445500Y-113858040D01*
X136794750Y-113858040D01*
X136953500Y-113699290D01*
X136953500Y-113058730D01*
X136856827Y-112825341D01*
X136678198Y-112646713D01*
X136444809Y-112550040D01*
X135604250Y-112550040D01*
X135445500Y-112708790D01*
X135191500Y-112708790D01*
X135032750Y-112550040D01*
X134192191Y-112550040D01*
X133958802Y-112646713D01*
X133780173Y-112825341D01*
X133683500Y-113058730D01*
X132942174Y-113058730D01*
X132921662Y-112949723D01*
X132782590Y-112733599D01*
X132570390Y-112588609D01*
X132556500Y-112585796D01*
X132556500Y-111803053D01*
X132648817Y-111785682D01*
X132864941Y-111646610D01*
X133009931Y-111434410D01*
X133060940Y-111182520D01*
X133060940Y-109482520D01*
X133016662Y-109247203D01*
X132877590Y-109031079D01*
X132665390Y-108886089D01*
X132413500Y-108835080D01*
X130413500Y-108835080D01*
X130178183Y-108879358D01*
X129962059Y-109018430D01*
X129817069Y-109230630D01*
X129766060Y-109482520D01*
X129766060Y-111097500D01*
X127456140Y-111097500D01*
X127235564Y-110876539D01*
X126726702Y-110665241D01*
X126175715Y-110664760D01*
X125666485Y-110875169D01*
X125276539Y-111264436D01*
X125065241Y-111773298D01*
X125064760Y-112324285D01*
X117885153Y-112324285D01*
X117885240Y-112225715D01*
X117674831Y-111716485D01*
X117285564Y-111326539D01*
X116776702Y-111115241D01*
X116225715Y-111114760D01*
X115716485Y-111325169D01*
X115493766Y-111547500D01*
X112500000Y-111547500D01*
X112176799Y-111611789D01*
X112176799Y-105627000D01*
X131083324Y-105627000D01*
X131084006Y-105630427D01*
X131331777Y-106001243D01*
X134204870Y-108874336D01*
X134178183Y-108879358D01*
X133962059Y-109018430D01*
X133817069Y-109230630D01*
X133766060Y-109482520D01*
X133766060Y-111182520D01*
X133810338Y-111417837D01*
X133949410Y-111633961D01*
X134161610Y-111778951D01*
X134413500Y-111829960D01*
X136413500Y-111829960D01*
X136648817Y-111785682D01*
X136864941Y-111646610D01*
X137009931Y-111434410D01*
X137060940Y-111182520D01*
X137060940Y-109482520D01*
X137016662Y-109247203D01*
X136877590Y-109031079D01*
X136665390Y-108886089D01*
X136556500Y-108864038D01*
X136556500Y-108466520D01*
X136469494Y-108029113D01*
X136221723Y-107658297D01*
X133283000Y-104719574D01*
X133283000Y-101268835D01*
X133285273Y-101269779D01*
X133790510Y-101270220D01*
X134257458Y-101077282D01*
X134615026Y-100720337D01*
X134808779Y-100253727D01*
X134809220Y-99748490D01*
X134616282Y-99281542D01*
X134259337Y-98923974D01*
X133792727Y-98730221D01*
X133287490Y-98729780D01*
X133283000Y-98731635D01*
X133283000Y-98218835D01*
X133285273Y-98219779D01*
X133790510Y-98220220D01*
X134257458Y-98027282D01*
X134615026Y-97670337D01*
X134808779Y-97203727D01*
X134809220Y-96698490D01*
X134616282Y-96231542D01*
X134259337Y-95873974D01*
X133792727Y-95680221D01*
X133287490Y-95679780D01*
X132820542Y-95872718D01*
X132462974Y-96229663D01*
X132288025Y-96650987D01*
X131969631Y-96332593D01*
X131944507Y-96271788D01*
X131877000Y-96204163D01*
X131877000Y-96176083D01*
X131943540Y-96109659D01*
X132092730Y-95750370D01*
X132093069Y-95361337D01*
X131944507Y-95001788D01*
X131877000Y-94934163D01*
X131877000Y-94750000D01*
X131868315Y-94703841D01*
X131841035Y-94661447D01*
X131799410Y-94633006D01*
X131750000Y-94623000D01*
X131420500Y-94623000D01*
X131310370Y-94577270D01*
X130921337Y-94576931D01*
X130809841Y-94623000D01*
X130150500Y-94623000D01*
X130040370Y-94577270D01*
X129651337Y-94576931D01*
X129539841Y-94623000D01*
X128793949Y-94623000D01*
X128676875Y-94586635D01*
X128298542Y-94621362D01*
X128294587Y-94623000D01*
X127523949Y-94623000D01*
X127406875Y-94586635D01*
X127028542Y-94621362D01*
X127024587Y-94623000D01*
X126340500Y-94623000D01*
X126230370Y-94577270D01*
X125841337Y-94576931D01*
X125729841Y-94623000D01*
X125070500Y-94623000D01*
X124960370Y-94577270D01*
X124571337Y-94576931D01*
X124459841Y-94623000D01*
X123800500Y-94623000D01*
X123690370Y-94577270D01*
X123301337Y-94576931D01*
X123189841Y-94623000D01*
X122530500Y-94623000D01*
X122420370Y-94577270D01*
X122031337Y-94576931D01*
X121919841Y-94623000D01*
X121260500Y-94623000D01*
X121150370Y-94577270D01*
X120761337Y-94576931D01*
X120649841Y-94623000D01*
X119990500Y-94623000D01*
X119880370Y-94577270D01*
X119491337Y-94576931D01*
X119379841Y-94623000D01*
X118720500Y-94623000D01*
X118610370Y-94577270D01*
X118221337Y-94576931D01*
X118109841Y-94623000D01*
X117450500Y-94623000D01*
X117340370Y-94577270D01*
X116951337Y-94576931D01*
X116839841Y-94623000D01*
X116180500Y-94623000D01*
X116070370Y-94577270D01*
X115681337Y-94576931D01*
X115569841Y-94623000D01*
X114910500Y-94623000D01*
X114800370Y-94577270D01*
X114411337Y-94576931D01*
X114299841Y-94623000D01*
X113640500Y-94623000D01*
X113530370Y-94577270D01*
X113141337Y-94576931D01*
X113029841Y-94623000D01*
X112370500Y-94623000D01*
X112260370Y-94577270D01*
X111871337Y-94576931D01*
X111759841Y-94623000D01*
X111100500Y-94623000D01*
X110990370Y-94577270D01*
X110601337Y-94576931D01*
X110489841Y-94623000D01*
X109830500Y-94623000D01*
X109720370Y-94577270D01*
X109331337Y-94576931D01*
X109219841Y-94623000D01*
X108560500Y-94623000D01*
X108450370Y-94577270D01*
X108061337Y-94576931D01*
X107949841Y-94623000D01*
X107290500Y-94623000D01*
X107180370Y-94577270D01*
X106791337Y-94576931D01*
X106679841Y-94623000D01*
X106020500Y-94623000D01*
X105910370Y-94577270D01*
X105521337Y-94576931D01*
X105409841Y-94623000D01*
X104750500Y-94623000D01*
X104640370Y-94577270D01*
X104251337Y-94576931D01*
X104139841Y-94623000D01*
X103480500Y-94623000D01*
X103370370Y-94577270D01*
X102981337Y-94576931D01*
X102869841Y-94623000D01*
X102210500Y-94623000D01*
X102100370Y-94577270D01*
X101711337Y-94576931D01*
X101599841Y-94623000D01*
X100940500Y-94623000D01*
X100830370Y-94577270D01*
X100441337Y-94576931D01*
X100329841Y-94623000D01*
X99670500Y-94623000D01*
X99560370Y-94577270D01*
X99171337Y-94576931D01*
X99059841Y-94623000D01*
X98400500Y-94623000D01*
X98290370Y-94577270D01*
X97901337Y-94576931D01*
X97789841Y-94623000D01*
X97130500Y-94623000D01*
X97020370Y-94577270D01*
X96631337Y-94576931D01*
X96519841Y-94623000D01*
X95860500Y-94623000D01*
X95750370Y-94577270D01*
X95361337Y-94576931D01*
X95249841Y-94623000D01*
X94590500Y-94623000D01*
X94480370Y-94577270D01*
X94091337Y-94576931D01*
X93979841Y-94623000D01*
X93320500Y-94623000D01*
X93210370Y-94577270D01*
X92821337Y-94576931D01*
X92709841Y-94623000D01*
X92050500Y-94623000D01*
X91940370Y-94577270D01*
X91551337Y-94576931D01*
X91439841Y-94623000D01*
X90780500Y-94623000D01*
X90670370Y-94577270D01*
X90281337Y-94576931D01*
X90169841Y-94623000D01*
X89510500Y-94623000D01*
X89400370Y-94577270D01*
X89011337Y-94576931D01*
X88899841Y-94623000D01*
X88240500Y-94623000D01*
X88130370Y-94577270D01*
X87741337Y-94576931D01*
X87629841Y-94623000D01*
X86970500Y-94623000D01*
X86860370Y-94577270D01*
X86471337Y-94576931D01*
X86359841Y-94623000D01*
X85700500Y-94623000D01*
X85590370Y-94577270D01*
X85201337Y-94576931D01*
X85089841Y-94623000D01*
X84430500Y-94623000D01*
X84320370Y-94577270D01*
X83931337Y-94576931D01*
X83819841Y-94623000D01*
X83160500Y-94623000D01*
X83050370Y-94577270D01*
X82661337Y-94576931D01*
X82549841Y-94623000D01*
X81890500Y-94623000D01*
X81780370Y-94577270D01*
X81391337Y-94576931D01*
X81279841Y-94623000D01*
X80620500Y-94623000D01*
X80510370Y-94577270D01*
X80121337Y-94576931D01*
X80009841Y-94623000D01*
X79350500Y-94623000D01*
X79240370Y-94577270D01*
X78851337Y-94576931D01*
X78739841Y-94623000D01*
X78080500Y-94623000D01*
X77970370Y-94577270D01*
X77581337Y-94576931D01*
X77469841Y-94623000D01*
X76810500Y-94623000D01*
X76700370Y-94577270D01*
X76311337Y-94576931D01*
X76199841Y-94623000D01*
X75540500Y-94623000D01*
X75430370Y-94577270D01*
X75041337Y-94576931D01*
X74929841Y-94623000D01*
X74270500Y-94623000D01*
X74160370Y-94577270D01*
X73771337Y-94576931D01*
X73659841Y-94623000D01*
X73000500Y-94623000D01*
X72890370Y-94577270D01*
X72501337Y-94576931D01*
X72389841Y-94623000D01*
X71730500Y-94623000D01*
X71620370Y-94577270D01*
X71231337Y-94576931D01*
X71119841Y-94623000D01*
X70460500Y-94623000D01*
X70350370Y-94577270D01*
X69961337Y-94576931D01*
X69849841Y-94623000D01*
X69190500Y-94623000D01*
X69080370Y-94577270D01*
X68691337Y-94576931D01*
X68579841Y-94623000D01*
X68000000Y-94623000D01*
X67953841Y-94631685D01*
X67911447Y-94658965D01*
X67883006Y-94700590D01*
X67873000Y-94750000D01*
X64209672Y-94750000D01*
X64007526Y-94260771D01*
X63059191Y-93310780D01*
X136942084Y-93310780D01*
X135996562Y-94254653D01*
G36*
X112459860Y-126507900D02*
X112481860Y-126507900D01*
X112481860Y-126761900D01*
X112459860Y-126761900D01*
X112459860Y-126781900D01*
X112209860Y-126781900D01*
X112209860Y-126761900D01*
X112187860Y-126761900D01*
X112187860Y-126507900D01*
X112209860Y-126507900D01*
X112209860Y-126487900D01*
X112459860Y-126487900D01*
X112459860Y-126507900D01*
X112459860Y-126507900D01*
G37*
X112459860Y-126507900D02*
X112481860Y-126507900D01*
X112481860Y-126761900D01*
X112459860Y-126761900D01*
X112459860Y-126781900D01*
X112209860Y-126781900D01*
X112209860Y-126761900D01*
X112187860Y-126761900D01*
X112187860Y-126507900D01*
X112209860Y-126507900D01*
X112209860Y-126487900D01*
X112459860Y-126487900D01*
X112459860Y-126507900D01*
M02*
