%FSLAX45Y45*%
G04 Gerber Fmt 4.5, Leading zero omitted, Abs format (unit mm)*
G04 Created by KiCad (PCBNEW 4.0.7) date Fri Jan 12 23:49:57 2018*
%MOMM*%
%LPD*%
G01*
G04 APERTURE LIST*
%ADD10C,0.127000*%
%ADD11C,0.150000*%
%ADD12C,0.200000*%
%ADD13C,0.300000*%
G04 APERTURE END LIST*
D10*
D11*
X7435000Y-14260000D02*
X5650000Y-14260000D01*
X7435000Y-15250000D02*
X7435000Y-14260000D01*
X12075000Y-15250000D02*
X7435000Y-15250000D01*
X12075000Y-14260000D02*
X12075000Y-15250000D01*
X14350000Y-14260000D02*
X12075000Y-14260000D01*
X14350000Y-9260000D02*
X14350000Y-14260000D01*
X14349984Y-9260078D02*
X5649976Y-9260078D01*
X5650000Y-9260000D02*
X5650000Y-14260000D01*
D12*
X6871990Y-9538990D02*
X6905010Y-9572010D01*
X6905010Y-9538990D02*
X6871990Y-9572010D01*
X6871990Y-9665990D02*
X6905010Y-9699010D01*
X6905010Y-9665990D02*
X6871990Y-9699010D01*
X6871990Y-9792990D02*
X6905010Y-9826010D01*
X6905010Y-9792990D02*
X6871990Y-9826010D01*
X6871990Y-9919990D02*
X6905010Y-9953010D01*
X6905010Y-9919990D02*
X6871990Y-9953010D01*
X6871990Y-10046990D02*
X6905010Y-10080010D01*
X6905010Y-10046990D02*
X6871990Y-10080010D01*
X6871990Y-10173990D02*
X6905010Y-10207010D01*
X6905010Y-10173990D02*
X6871990Y-10207010D01*
X6871990Y-10300990D02*
X6905010Y-10334010D01*
X6905010Y-10300990D02*
X6871990Y-10334010D01*
X6871990Y-10427990D02*
X6905010Y-10461010D01*
X6905010Y-10427990D02*
X6871990Y-10461010D01*
X6998990Y-9538990D02*
X7032010Y-9572010D01*
X7032010Y-9538990D02*
X6998990Y-9572010D01*
X6998990Y-9665990D02*
X7032010Y-9699010D01*
X7032010Y-9665990D02*
X6998990Y-9699010D01*
X6998990Y-9792990D02*
X7032010Y-9826010D01*
X7032010Y-9792990D02*
X6998990Y-9826010D01*
X6998990Y-9919990D02*
X7032010Y-9953010D01*
X7032010Y-9919990D02*
X6998990Y-9953010D01*
X6998990Y-10046990D02*
X7032010Y-10080010D01*
X7032010Y-10046990D02*
X6998990Y-10080010D01*
X6998990Y-10173990D02*
X7032010Y-10207010D01*
X7032010Y-10173990D02*
X6998990Y-10207010D01*
X6998990Y-10300990D02*
X7032010Y-10334010D01*
X7032010Y-10300990D02*
X6998990Y-10334010D01*
X6998990Y-10427990D02*
X7032010Y-10461010D01*
X7032010Y-10427990D02*
X6998990Y-10461010D01*
X7125990Y-9538990D02*
X7159010Y-9572010D01*
X7159010Y-9538990D02*
X7125990Y-9572010D01*
X7125990Y-9665990D02*
X7159010Y-9699010D01*
X7159010Y-9665990D02*
X7125990Y-9699010D01*
X7125990Y-9792990D02*
X7159010Y-9826010D01*
X7159010Y-9792990D02*
X7125990Y-9826010D01*
X7125990Y-9919990D02*
X7159010Y-9953010D01*
X7159010Y-9919990D02*
X7125990Y-9953010D01*
X7125990Y-10046990D02*
X7159010Y-10080010D01*
X7159010Y-10046990D02*
X7125990Y-10080010D01*
X7125990Y-10173990D02*
X7159010Y-10207010D01*
X7159010Y-10173990D02*
X7125990Y-10207010D01*
X7125990Y-10300990D02*
X7159010Y-10334010D01*
X7159010Y-10300990D02*
X7125990Y-10334010D01*
X7125990Y-10427990D02*
X7159010Y-10461010D01*
X7159010Y-10427990D02*
X7125990Y-10461010D01*
X7252990Y-9538990D02*
X7286010Y-9572010D01*
X7286010Y-9538990D02*
X7252990Y-9572010D01*
X7252990Y-9665990D02*
X7286010Y-9699010D01*
X7286010Y-9665990D02*
X7252990Y-9699010D01*
X7252990Y-9792990D02*
X7286010Y-9826010D01*
X7286010Y-9792990D02*
X7252990Y-9826010D01*
X7252990Y-9919990D02*
X7286010Y-9953010D01*
X7286010Y-9919990D02*
X7252990Y-9953010D01*
X7252990Y-10046990D02*
X7286010Y-10080010D01*
X7286010Y-10046990D02*
X7252990Y-10080010D01*
X7252990Y-10173990D02*
X7286010Y-10207010D01*
X7286010Y-10173990D02*
X7252990Y-10207010D01*
X7252990Y-10300990D02*
X7286010Y-10334010D01*
X7286010Y-10300990D02*
X7252990Y-10334010D01*
X7252990Y-10427990D02*
X7286010Y-10461010D01*
X7286010Y-10427990D02*
X7252990Y-10461010D01*
X7379990Y-9538990D02*
X7413010Y-9572010D01*
X7413010Y-9538990D02*
X7379990Y-9572010D01*
X7379990Y-9665990D02*
X7413010Y-9699010D01*
X7413010Y-9665990D02*
X7379990Y-9699010D01*
X7379990Y-9792990D02*
X7413010Y-9826010D01*
X7413010Y-9792990D02*
X7379990Y-9826010D01*
X7379990Y-9919990D02*
X7413010Y-9953010D01*
X7413010Y-9919990D02*
X7379990Y-9953010D01*
X7379990Y-10046990D02*
X7413010Y-10080010D01*
X7413010Y-10046990D02*
X7379990Y-10080010D01*
X7379990Y-10173990D02*
X7413010Y-10207010D01*
X7413010Y-10173990D02*
X7379990Y-10207010D01*
X7379990Y-10300990D02*
X7413010Y-10334010D01*
X7413010Y-10300990D02*
X7379990Y-10334010D01*
X7379990Y-10427990D02*
X7413010Y-10461010D01*
X7413010Y-10427990D02*
X7379990Y-10461010D01*
X7506990Y-9538990D02*
X7540010Y-9572010D01*
X7540010Y-9538990D02*
X7506990Y-9572010D01*
X7506990Y-9665990D02*
X7540010Y-9699010D01*
X7540010Y-9665990D02*
X7506990Y-9699010D01*
X7506990Y-9792990D02*
X7540010Y-9826010D01*
X7540010Y-9792990D02*
X7506990Y-9826010D01*
X7506990Y-9919990D02*
X7540010Y-9953010D01*
X7540010Y-9919990D02*
X7506990Y-9953010D01*
X7506990Y-10046990D02*
X7540010Y-10080010D01*
X7540010Y-10046990D02*
X7506990Y-10080010D01*
X7506990Y-10173990D02*
X7540010Y-10207010D01*
X7540010Y-10173990D02*
X7506990Y-10207010D01*
X7506990Y-10300990D02*
X7540010Y-10334010D01*
X7540010Y-10300990D02*
X7506990Y-10334010D01*
X7506990Y-10427990D02*
X7540010Y-10461010D01*
X7540010Y-10427990D02*
X7506990Y-10461010D01*
X7633990Y-9538990D02*
X7667010Y-9572010D01*
X7667010Y-9538990D02*
X7633990Y-9572010D01*
X7633990Y-9665990D02*
X7667010Y-9699010D01*
X7667010Y-9665990D02*
X7633990Y-9699010D01*
X7633990Y-9792990D02*
X7667010Y-9826010D01*
X7667010Y-9792990D02*
X7633990Y-9826010D01*
X7633990Y-9919990D02*
X7667010Y-9953010D01*
X7667010Y-9919990D02*
X7633990Y-9953010D01*
X7633990Y-10046990D02*
X7667010Y-10080010D01*
X7667010Y-10046990D02*
X7633990Y-10080010D01*
X7633990Y-10173990D02*
X7667010Y-10207010D01*
X7667010Y-10173990D02*
X7633990Y-10207010D01*
X7633990Y-10300990D02*
X7667010Y-10334010D01*
X7667010Y-10300990D02*
X7633990Y-10334010D01*
X7633990Y-10427990D02*
X7667010Y-10461010D01*
X7667010Y-10427990D02*
X7633990Y-10461010D01*
X7760990Y-9538990D02*
X7794010Y-9572010D01*
X7794010Y-9538990D02*
X7760990Y-9572010D01*
X7760990Y-9665990D02*
X7794010Y-9699010D01*
X7794010Y-9665990D02*
X7760990Y-9699010D01*
X7760990Y-9792990D02*
X7794010Y-9826010D01*
X7794010Y-9792990D02*
X7760990Y-9826010D01*
X7760990Y-9919990D02*
X7794010Y-9953010D01*
X7794010Y-9919990D02*
X7760990Y-9953010D01*
X7760990Y-10046990D02*
X7794010Y-10080010D01*
X7794010Y-10046990D02*
X7760990Y-10080010D01*
X7760990Y-10173990D02*
X7794010Y-10207010D01*
X7794010Y-10173990D02*
X7760990Y-10207010D01*
X7760990Y-10300990D02*
X7794010Y-10334010D01*
X7794010Y-10300990D02*
X7760990Y-10334010D01*
X7760990Y-10427990D02*
X7794010Y-10461010D01*
X7794010Y-10427990D02*
X7760990Y-10461010D01*
X7887990Y-9538990D02*
X7921010Y-9572010D01*
X7921010Y-9538990D02*
X7887990Y-9572010D01*
X7887990Y-9665990D02*
X7921010Y-9699010D01*
X7921010Y-9665990D02*
X7887990Y-9699010D01*
X7887990Y-9792990D02*
X7921010Y-9826010D01*
X7921010Y-9792990D02*
X7887990Y-9826010D01*
X7887990Y-9919990D02*
X7921010Y-9953010D01*
X7921010Y-9919990D02*
X7887990Y-9953010D01*
X7887990Y-10046990D02*
X7921010Y-10080010D01*
X7921010Y-10046990D02*
X7887990Y-10080010D01*
X7887990Y-10173990D02*
X7921010Y-10207010D01*
X7921010Y-10173990D02*
X7887990Y-10207010D01*
X7887990Y-10300990D02*
X7921010Y-10334010D01*
X7921010Y-10300990D02*
X7887990Y-10334010D01*
X7887990Y-10427990D02*
X7921010Y-10461010D01*
X7921010Y-10427990D02*
X7887990Y-10461010D01*
X8014990Y-9538990D02*
X8048010Y-9572010D01*
X8048010Y-9538990D02*
X8014990Y-9572010D01*
X8014990Y-9665990D02*
X8048010Y-9699010D01*
X8048010Y-9665990D02*
X8014990Y-9699010D01*
X8014990Y-9792990D02*
X8048010Y-9826010D01*
X8048010Y-9792990D02*
X8014990Y-9826010D01*
X8014990Y-9919990D02*
X8048010Y-9953010D01*
X8048010Y-9919990D02*
X8014990Y-9953010D01*
X8014990Y-10046990D02*
X8048010Y-10080010D01*
X8048010Y-10046990D02*
X8014990Y-10080010D01*
X8014990Y-10173990D02*
X8048010Y-10207010D01*
X8048010Y-10173990D02*
X8014990Y-10207010D01*
X8014990Y-10300990D02*
X8048010Y-10334010D01*
X8048010Y-10300990D02*
X8014990Y-10334010D01*
X8014990Y-10427990D02*
X8048010Y-10461010D01*
X8048010Y-10427990D02*
X8014990Y-10461010D01*
X8141990Y-9538990D02*
X8175010Y-9572010D01*
X8175010Y-9538990D02*
X8141990Y-9572010D01*
X8141990Y-9665990D02*
X8175010Y-9699010D01*
X8175010Y-9665990D02*
X8141990Y-9699010D01*
X8141990Y-9792990D02*
X8175010Y-9826010D01*
X8175010Y-9792990D02*
X8141990Y-9826010D01*
X8141990Y-9919990D02*
X8175010Y-9953010D01*
X8175010Y-9919990D02*
X8141990Y-9953010D01*
X8141990Y-10046990D02*
X8175010Y-10080010D01*
X8175010Y-10046990D02*
X8141990Y-10080010D01*
X8141990Y-10173990D02*
X8175010Y-10207010D01*
X8175010Y-10173990D02*
X8141990Y-10207010D01*
X8141990Y-10300990D02*
X8175010Y-10334010D01*
X8175010Y-10300990D02*
X8141990Y-10334010D01*
X8141990Y-10427990D02*
X8175010Y-10461010D01*
X8175010Y-10427990D02*
X8141990Y-10461010D01*
X8268990Y-9538990D02*
X8302010Y-9572010D01*
X8302010Y-9538990D02*
X8268990Y-9572010D01*
X8268990Y-9665990D02*
X8302010Y-9699010D01*
X8302010Y-9665990D02*
X8268990Y-9699010D01*
X8268990Y-9792990D02*
X8302010Y-9826010D01*
X8302010Y-9792990D02*
X8268990Y-9826010D01*
X8268990Y-9919990D02*
X8302010Y-9953010D01*
X8302010Y-9919990D02*
X8268990Y-9953010D01*
X8268990Y-10046990D02*
X8302010Y-10080010D01*
X8302010Y-10046990D02*
X8268990Y-10080010D01*
X8268990Y-10173990D02*
X8302010Y-10207010D01*
X8302010Y-10173990D02*
X8268990Y-10207010D01*
X8268990Y-10300990D02*
X8302010Y-10334010D01*
X8302010Y-10300990D02*
X8268990Y-10334010D01*
X8268990Y-10427990D02*
X8302010Y-10461010D01*
X8302010Y-10427990D02*
X8268990Y-10461010D01*
X8308490Y-12033490D02*
X8341510Y-12066510D01*
X8341510Y-12033490D02*
X8308490Y-12066510D01*
X8395990Y-9538990D02*
X8429010Y-9572010D01*
X8429010Y-9538990D02*
X8395990Y-9572010D01*
X8395990Y-9665990D02*
X8429010Y-9699010D01*
X8429010Y-9665990D02*
X8395990Y-9699010D01*
X8395990Y-9792990D02*
X8429010Y-9826010D01*
X8429010Y-9792990D02*
X8395990Y-9826010D01*
X8395990Y-9919990D02*
X8429010Y-9953010D01*
X8429010Y-9919990D02*
X8395990Y-9953010D01*
X8395990Y-10046990D02*
X8429010Y-10080010D01*
X8429010Y-10046990D02*
X8395990Y-10080010D01*
X8395990Y-10173990D02*
X8429010Y-10207010D01*
X8429010Y-10173990D02*
X8395990Y-10207010D01*
X8395990Y-10300990D02*
X8429010Y-10334010D01*
X8429010Y-10300990D02*
X8395990Y-10334010D01*
X8395990Y-10427990D02*
X8429010Y-10461010D01*
X8429010Y-10427990D02*
X8395990Y-10461010D01*
X8522990Y-9538990D02*
X8556010Y-9572010D01*
X8556010Y-9538990D02*
X8522990Y-9572010D01*
X8522990Y-9665990D02*
X8556010Y-9699010D01*
X8556010Y-9665990D02*
X8522990Y-9699010D01*
X8522990Y-9792990D02*
X8556010Y-9826010D01*
X8556010Y-9792990D02*
X8522990Y-9826010D01*
X8522990Y-9919990D02*
X8556010Y-9953010D01*
X8556010Y-9919990D02*
X8522990Y-9953010D01*
X8522990Y-10046990D02*
X8556010Y-10080010D01*
X8556010Y-10046990D02*
X8522990Y-10080010D01*
X8522990Y-10173990D02*
X8556010Y-10207010D01*
X8556010Y-10173990D02*
X8522990Y-10207010D01*
X8522990Y-10300990D02*
X8556010Y-10334010D01*
X8556010Y-10300990D02*
X8522990Y-10334010D01*
X8522990Y-10427990D02*
X8556010Y-10461010D01*
X8556010Y-10427990D02*
X8522990Y-10461010D01*
X8649990Y-9538990D02*
X8683010Y-9572010D01*
X8683010Y-9538990D02*
X8649990Y-9572010D01*
X8649990Y-9665990D02*
X8683010Y-9699010D01*
X8683010Y-9665990D02*
X8649990Y-9699010D01*
X8649990Y-9792990D02*
X8683010Y-9826010D01*
X8683010Y-9792990D02*
X8649990Y-9826010D01*
X8649990Y-9919990D02*
X8683010Y-9953010D01*
X8683010Y-9919990D02*
X8649990Y-9953010D01*
X8649990Y-10046990D02*
X8683010Y-10080010D01*
X8683010Y-10046990D02*
X8649990Y-10080010D01*
X8649990Y-10173990D02*
X8683010Y-10207010D01*
X8683010Y-10173990D02*
X8649990Y-10207010D01*
X8649990Y-10300990D02*
X8683010Y-10334010D01*
X8683010Y-10300990D02*
X8649990Y-10334010D01*
X8649990Y-10427990D02*
X8683010Y-10461010D01*
X8683010Y-10427990D02*
X8649990Y-10461010D01*
X8776990Y-9538990D02*
X8810010Y-9572010D01*
X8810010Y-9538990D02*
X8776990Y-9572010D01*
X8776990Y-9665990D02*
X8810010Y-9699010D01*
X8810010Y-9665990D02*
X8776990Y-9699010D01*
X8776990Y-9792990D02*
X8810010Y-9826010D01*
X8810010Y-9792990D02*
X8776990Y-9826010D01*
X8776990Y-9919990D02*
X8810010Y-9953010D01*
X8810010Y-9919990D02*
X8776990Y-9953010D01*
X8776990Y-10046990D02*
X8810010Y-10080010D01*
X8810010Y-10046990D02*
X8776990Y-10080010D01*
X8776990Y-10173990D02*
X8810010Y-10207010D01*
X8810010Y-10173990D02*
X8776990Y-10207010D01*
X8776990Y-10300990D02*
X8810010Y-10334010D01*
X8810010Y-10300990D02*
X8776990Y-10334010D01*
X8776990Y-10427990D02*
X8810010Y-10461010D01*
X8810010Y-10427990D02*
X8776990Y-10461010D01*
X8903990Y-9538990D02*
X8937010Y-9572010D01*
X8937010Y-9538990D02*
X8903990Y-9572010D01*
X8903990Y-9665990D02*
X8937010Y-9699010D01*
X8937010Y-9665990D02*
X8903990Y-9699010D01*
X8903990Y-9792990D02*
X8937010Y-9826010D01*
X8937010Y-9792990D02*
X8903990Y-9826010D01*
X8903990Y-9919990D02*
X8937010Y-9953010D01*
X8937010Y-9919990D02*
X8903990Y-9953010D01*
X8903990Y-10046990D02*
X8937010Y-10080010D01*
X8937010Y-10046990D02*
X8903990Y-10080010D01*
X8903990Y-10173990D02*
X8937010Y-10207010D01*
X8937010Y-10173990D02*
X8903990Y-10207010D01*
X8903990Y-10300990D02*
X8937010Y-10334010D01*
X8937010Y-10300990D02*
X8903990Y-10334010D01*
X8903990Y-10427990D02*
X8937010Y-10461010D01*
X8937010Y-10427990D02*
X8903990Y-10461010D01*
X9030990Y-9538990D02*
X9064010Y-9572010D01*
X9064010Y-9538990D02*
X9030990Y-9572010D01*
X9030990Y-9665990D02*
X9064010Y-9699010D01*
X9064010Y-9665990D02*
X9030990Y-9699010D01*
X9030990Y-9792990D02*
X9064010Y-9826010D01*
X9064010Y-9792990D02*
X9030990Y-9826010D01*
X9030990Y-9919990D02*
X9064010Y-9953010D01*
X9064010Y-9919990D02*
X9030990Y-9953010D01*
X9030990Y-10046990D02*
X9064010Y-10080010D01*
X9064010Y-10046990D02*
X9030990Y-10080010D01*
X9030990Y-10173990D02*
X9064010Y-10207010D01*
X9064010Y-10173990D02*
X9030990Y-10207010D01*
X9030990Y-10300990D02*
X9064010Y-10334010D01*
X9064010Y-10300990D02*
X9030990Y-10334010D01*
X9030990Y-10427990D02*
X9064010Y-10461010D01*
X9064010Y-10427990D02*
X9030990Y-10461010D01*
X9157990Y-9538990D02*
X9191010Y-9572010D01*
X9191010Y-9538990D02*
X9157990Y-9572010D01*
X9157990Y-9665990D02*
X9191010Y-9699010D01*
X9191010Y-9665990D02*
X9157990Y-9699010D01*
X9157990Y-9792990D02*
X9191010Y-9826010D01*
X9191010Y-9792990D02*
X9157990Y-9826010D01*
X9157990Y-9919990D02*
X9191010Y-9953010D01*
X9191010Y-9919990D02*
X9157990Y-9953010D01*
X9157990Y-10046990D02*
X9191010Y-10080010D01*
X9191010Y-10046990D02*
X9157990Y-10080010D01*
X9157990Y-10173990D02*
X9191010Y-10207010D01*
X9191010Y-10173990D02*
X9157990Y-10207010D01*
X9157990Y-10300990D02*
X9191010Y-10334010D01*
X9191010Y-10300990D02*
X9157990Y-10334010D01*
X9157990Y-10427990D02*
X9191010Y-10461010D01*
X9191010Y-10427990D02*
X9157990Y-10461010D01*
X9284990Y-9538990D02*
X9318010Y-9572010D01*
X9318010Y-9538990D02*
X9284990Y-9572010D01*
X9284990Y-9665990D02*
X9318010Y-9699010D01*
X9318010Y-9665990D02*
X9284990Y-9699010D01*
X9284990Y-9792990D02*
X9318010Y-9826010D01*
X9318010Y-9792990D02*
X9284990Y-9826010D01*
X9284990Y-9919990D02*
X9318010Y-9953010D01*
X9318010Y-9919990D02*
X9284990Y-9953010D01*
X9284990Y-10046990D02*
X9318010Y-10080010D01*
X9318010Y-10046990D02*
X9284990Y-10080010D01*
X9284990Y-10173990D02*
X9318010Y-10207010D01*
X9318010Y-10173990D02*
X9284990Y-10207010D01*
X9284990Y-10300990D02*
X9318010Y-10334010D01*
X9318010Y-10300990D02*
X9284990Y-10334010D01*
X9284990Y-10427990D02*
X9318010Y-10461010D01*
X9318010Y-10427990D02*
X9284990Y-10461010D01*
X9411990Y-9538990D02*
X9445010Y-9572010D01*
X9445010Y-9538990D02*
X9411990Y-9572010D01*
X9411990Y-9665990D02*
X9445010Y-9699010D01*
X9445010Y-9665990D02*
X9411990Y-9699010D01*
X9411990Y-9792990D02*
X9445010Y-9826010D01*
X9445010Y-9792990D02*
X9411990Y-9826010D01*
X9411990Y-9919990D02*
X9445010Y-9953010D01*
X9445010Y-9919990D02*
X9411990Y-9953010D01*
X9411990Y-10046990D02*
X9445010Y-10080010D01*
X9445010Y-10046990D02*
X9411990Y-10080010D01*
X9411990Y-10173990D02*
X9445010Y-10207010D01*
X9445010Y-10173990D02*
X9411990Y-10207010D01*
X9411990Y-10300990D02*
X9445010Y-10334010D01*
X9445010Y-10300990D02*
X9411990Y-10334010D01*
X9411990Y-10427990D02*
X9445010Y-10461010D01*
X9445010Y-10427990D02*
X9411990Y-10461010D01*
X9538990Y-9538990D02*
X9572010Y-9572010D01*
X9572010Y-9538990D02*
X9538990Y-9572010D01*
X9538990Y-9665990D02*
X9572010Y-9699010D01*
X9572010Y-9665990D02*
X9538990Y-9699010D01*
X9538990Y-9792990D02*
X9572010Y-9826010D01*
X9572010Y-9792990D02*
X9538990Y-9826010D01*
X9538990Y-9919990D02*
X9572010Y-9953010D01*
X9572010Y-9919990D02*
X9538990Y-9953010D01*
X9538990Y-10046990D02*
X9572010Y-10080010D01*
X9572010Y-10046990D02*
X9538990Y-10080010D01*
X9538990Y-10173990D02*
X9572010Y-10207010D01*
X9572010Y-10173990D02*
X9538990Y-10207010D01*
X9538990Y-10300990D02*
X9572010Y-10334010D01*
X9572010Y-10300990D02*
X9538990Y-10334010D01*
X9538990Y-10427990D02*
X9572010Y-10461010D01*
X9572010Y-10427990D02*
X9538990Y-10461010D01*
X9665990Y-9538990D02*
X9699010Y-9572010D01*
X9699010Y-9538990D02*
X9665990Y-9572010D01*
X9665990Y-9665990D02*
X9699010Y-9699010D01*
X9699010Y-9665990D02*
X9665990Y-9699010D01*
X9665990Y-9792990D02*
X9699010Y-9826010D01*
X9699010Y-9792990D02*
X9665990Y-9826010D01*
X9665990Y-9919990D02*
X9699010Y-9953010D01*
X9699010Y-9919990D02*
X9665990Y-9953010D01*
X9665990Y-10046990D02*
X9699010Y-10080010D01*
X9699010Y-10046990D02*
X9665990Y-10080010D01*
X9665990Y-10173990D02*
X9699010Y-10207010D01*
X9699010Y-10173990D02*
X9665990Y-10207010D01*
X9665990Y-10300990D02*
X9699010Y-10334010D01*
X9699010Y-10300990D02*
X9665990Y-10334010D01*
X9665990Y-10427990D02*
X9699010Y-10461010D01*
X9699010Y-10427990D02*
X9665990Y-10461010D01*
X9792990Y-9538990D02*
X9826010Y-9572010D01*
X9826010Y-9538990D02*
X9792990Y-9572010D01*
X9792990Y-9665990D02*
X9826010Y-9699010D01*
X9826010Y-9665990D02*
X9792990Y-9699010D01*
X9792990Y-9792990D02*
X9826010Y-9826010D01*
X9826010Y-9792990D02*
X9792990Y-9826010D01*
X9792990Y-9919990D02*
X9826010Y-9953010D01*
X9826010Y-9919990D02*
X9792990Y-9953010D01*
X9792990Y-10046990D02*
X9826010Y-10080010D01*
X9826010Y-10046990D02*
X9792990Y-10080010D01*
X9792990Y-10173990D02*
X9826010Y-10207010D01*
X9826010Y-10173990D02*
X9792990Y-10207010D01*
X9792990Y-10300990D02*
X9826010Y-10334010D01*
X9826010Y-10300990D02*
X9792990Y-10334010D01*
X9792990Y-10427990D02*
X9826010Y-10461010D01*
X9826010Y-10427990D02*
X9792990Y-10461010D01*
X9919990Y-9538990D02*
X9953010Y-9572010D01*
X9953010Y-9538990D02*
X9919990Y-9572010D01*
X9919990Y-9665990D02*
X9953010Y-9699010D01*
X9953010Y-9665990D02*
X9919990Y-9699010D01*
X9919990Y-9792990D02*
X9953010Y-9826010D01*
X9953010Y-9792990D02*
X9919990Y-9826010D01*
X9919990Y-9919990D02*
X9953010Y-9953010D01*
X9953010Y-9919990D02*
X9919990Y-9953010D01*
X9919990Y-10046990D02*
X9953010Y-10080010D01*
X9953010Y-10046990D02*
X9919990Y-10080010D01*
X9919990Y-10173990D02*
X9953010Y-10207010D01*
X9953010Y-10173990D02*
X9919990Y-10207010D01*
X9919990Y-10300990D02*
X9953010Y-10334010D01*
X9953010Y-10300990D02*
X9919990Y-10334010D01*
X9919990Y-10427990D02*
X9953010Y-10461010D01*
X9953010Y-10427990D02*
X9919990Y-10461010D01*
X10046990Y-9538990D02*
X10080010Y-9572010D01*
X10080010Y-9538990D02*
X10046990Y-9572010D01*
X10046990Y-9665990D02*
X10080010Y-9699010D01*
X10080010Y-9665990D02*
X10046990Y-9699010D01*
X10046990Y-9792990D02*
X10080010Y-9826010D01*
X10080010Y-9792990D02*
X10046990Y-9826010D01*
X10046990Y-9919990D02*
X10080010Y-9953010D01*
X10080010Y-9919990D02*
X10046990Y-9953010D01*
X10046990Y-10046990D02*
X10080010Y-10080010D01*
X10080010Y-10046990D02*
X10046990Y-10080010D01*
X10046990Y-10173990D02*
X10080010Y-10207010D01*
X10080010Y-10173990D02*
X10046990Y-10207010D01*
X10046990Y-10300990D02*
X10080010Y-10334010D01*
X10080010Y-10300990D02*
X10046990Y-10334010D01*
X10046990Y-10427990D02*
X10080010Y-10461010D01*
X10080010Y-10427990D02*
X10046990Y-10461010D01*
X10063490Y-13028490D02*
X10096510Y-13061510D01*
X10096510Y-13028490D02*
X10063490Y-13061510D01*
X10068490Y-12788490D02*
X10101510Y-12821510D01*
X10101510Y-12788490D02*
X10068490Y-12821510D01*
X10173990Y-9538990D02*
X10207010Y-9572010D01*
X10207010Y-9538990D02*
X10173990Y-9572010D01*
X10173990Y-9665990D02*
X10207010Y-9699010D01*
X10207010Y-9665990D02*
X10173990Y-9699010D01*
X10173990Y-9792990D02*
X10207010Y-9826010D01*
X10207010Y-9792990D02*
X10173990Y-9826010D01*
X10173990Y-9919990D02*
X10207010Y-9953010D01*
X10207010Y-9919990D02*
X10173990Y-9953010D01*
X10173990Y-10046990D02*
X10207010Y-10080010D01*
X10207010Y-10046990D02*
X10173990Y-10080010D01*
X10173990Y-10173990D02*
X10207010Y-10207010D01*
X10207010Y-10173990D02*
X10173990Y-10207010D01*
X10173990Y-10300990D02*
X10207010Y-10334010D01*
X10207010Y-10300990D02*
X10173990Y-10334010D01*
X10173990Y-10427990D02*
X10207010Y-10461010D01*
X10207010Y-10427990D02*
X10173990Y-10461010D01*
X10300990Y-9538990D02*
X10334010Y-9572010D01*
X10334010Y-9538990D02*
X10300990Y-9572010D01*
X10300990Y-9665990D02*
X10334010Y-9699010D01*
X10334010Y-9665990D02*
X10300990Y-9699010D01*
X10300990Y-9792990D02*
X10334010Y-9826010D01*
X10334010Y-9792990D02*
X10300990Y-9826010D01*
X10300990Y-9919990D02*
X10334010Y-9953010D01*
X10334010Y-9919990D02*
X10300990Y-9953010D01*
X10300990Y-10046990D02*
X10334010Y-10080010D01*
X10334010Y-10046990D02*
X10300990Y-10080010D01*
X10300990Y-10173990D02*
X10334010Y-10207010D01*
X10334010Y-10173990D02*
X10300990Y-10207010D01*
X10300990Y-10300990D02*
X10334010Y-10334010D01*
X10334010Y-10300990D02*
X10300990Y-10334010D01*
X10300990Y-10427990D02*
X10334010Y-10461010D01*
X10334010Y-10427990D02*
X10300990Y-10461010D01*
X10427990Y-9538990D02*
X10461010Y-9572010D01*
X10461010Y-9538990D02*
X10427990Y-9572010D01*
X10427990Y-9665990D02*
X10461010Y-9699010D01*
X10461010Y-9665990D02*
X10427990Y-9699010D01*
X10427990Y-9792990D02*
X10461010Y-9826010D01*
X10461010Y-9792990D02*
X10427990Y-9826010D01*
X10427990Y-9919990D02*
X10461010Y-9953010D01*
X10461010Y-9919990D02*
X10427990Y-9953010D01*
X10427990Y-10046990D02*
X10461010Y-10080010D01*
X10461010Y-10046990D02*
X10427990Y-10080010D01*
X10427990Y-10173990D02*
X10461010Y-10207010D01*
X10461010Y-10173990D02*
X10427990Y-10207010D01*
X10427990Y-10300990D02*
X10461010Y-10334010D01*
X10461010Y-10300990D02*
X10427990Y-10334010D01*
X10427990Y-10427990D02*
X10461010Y-10461010D01*
X10461010Y-10427990D02*
X10427990Y-10461010D01*
X10554990Y-9538990D02*
X10588010Y-9572010D01*
X10588010Y-9538990D02*
X10554990Y-9572010D01*
X10554990Y-9665990D02*
X10588010Y-9699010D01*
X10588010Y-9665990D02*
X10554990Y-9699010D01*
X10554990Y-9792990D02*
X10588010Y-9826010D01*
X10588010Y-9792990D02*
X10554990Y-9826010D01*
X10554990Y-9919990D02*
X10588010Y-9953010D01*
X10588010Y-9919990D02*
X10554990Y-9953010D01*
X10554990Y-10046990D02*
X10588010Y-10080010D01*
X10588010Y-10046990D02*
X10554990Y-10080010D01*
X10554990Y-10173990D02*
X10588010Y-10207010D01*
X10588010Y-10173990D02*
X10554990Y-10207010D01*
X10554990Y-10300990D02*
X10588010Y-10334010D01*
X10588010Y-10300990D02*
X10554990Y-10334010D01*
X10554990Y-10427990D02*
X10588010Y-10461010D01*
X10588010Y-10427990D02*
X10554990Y-10461010D01*
X10679699Y-10046990D02*
X10712719Y-10080010D01*
X10712719Y-10046990D02*
X10679699Y-10080010D01*
X10679699Y-10173990D02*
X10712719Y-10207010D01*
X10712719Y-10173990D02*
X10679699Y-10207010D01*
X10679699Y-10300990D02*
X10712719Y-10334010D01*
X10712719Y-10300990D02*
X10679699Y-10334010D01*
X10679699Y-10427990D02*
X10712719Y-10461010D01*
X10712719Y-10427990D02*
X10679699Y-10461010D01*
X10681990Y-9538990D02*
X10715010Y-9572010D01*
X10715010Y-9538990D02*
X10681990Y-9572010D01*
X10681990Y-9665990D02*
X10715010Y-9699010D01*
X10715010Y-9665990D02*
X10681990Y-9699010D01*
X10681990Y-9792990D02*
X10715010Y-9826010D01*
X10715010Y-9792990D02*
X10681990Y-9826010D01*
X10681990Y-9919990D02*
X10715010Y-9953010D01*
X10715010Y-9919990D02*
X10681990Y-9953010D01*
X10806699Y-10046990D02*
X10839719Y-10080010D01*
X10839719Y-10046990D02*
X10806699Y-10080010D01*
X10808990Y-9538990D02*
X10842010Y-9572010D01*
X10842010Y-9538990D02*
X10808990Y-9572010D01*
X10808990Y-9665990D02*
X10842010Y-9699010D01*
X10842010Y-9665990D02*
X10808990Y-9699010D01*
X10808990Y-9792990D02*
X10842010Y-9826010D01*
X10842010Y-9792990D02*
X10808990Y-9826010D01*
X10808990Y-9919990D02*
X10842010Y-9953010D01*
X10842010Y-9919990D02*
X10808990Y-9953010D01*
X10810721Y-10173990D02*
X10843741Y-10207010D01*
X10843741Y-10173990D02*
X10810721Y-10207010D01*
X10810721Y-10300990D02*
X10843741Y-10334010D01*
X10843741Y-10300990D02*
X10810721Y-10334010D01*
X10810721Y-10427990D02*
X10843741Y-10461010D01*
X10843741Y-10427990D02*
X10810721Y-10461010D01*
X10913490Y-12003490D02*
X10946510Y-12036510D01*
X10946510Y-12003490D02*
X10913490Y-12036510D01*
X10935990Y-9538990D02*
X10969010Y-9572010D01*
X10969010Y-9538990D02*
X10935990Y-9572010D01*
X10935990Y-9665990D02*
X10969010Y-9699010D01*
X10969010Y-9665990D02*
X10935990Y-9699010D01*
X10935990Y-9792990D02*
X10969010Y-9826010D01*
X10969010Y-9792990D02*
X10935990Y-9826010D01*
X10935990Y-9919990D02*
X10969010Y-9953010D01*
X10969010Y-9919990D02*
X10935990Y-9953010D01*
X10935990Y-10046990D02*
X10969010Y-10080010D01*
X10969010Y-10046990D02*
X10935990Y-10080010D01*
X10935990Y-10173990D02*
X10969010Y-10207010D01*
X10969010Y-10173990D02*
X10935990Y-10207010D01*
X10935990Y-10300990D02*
X10969010Y-10334010D01*
X10969010Y-10300990D02*
X10935990Y-10334010D01*
X10935990Y-10427990D02*
X10969010Y-10461010D01*
X10969010Y-10427990D02*
X10935990Y-10461010D01*
X11061259Y-9920032D02*
X11094279Y-9953052D01*
X11094279Y-9920032D02*
X11061259Y-9953052D01*
X11061259Y-10047674D02*
X11094279Y-10080694D01*
X11094279Y-10047674D02*
X11061259Y-10080694D01*
X11061259Y-10174503D02*
X11094279Y-10207523D01*
X11094279Y-10174503D02*
X11061259Y-10207523D01*
X11061259Y-10301394D02*
X11094279Y-10334414D01*
X11094279Y-10301394D02*
X11061259Y-10334414D01*
X11061259Y-10428663D02*
X11094279Y-10461683D01*
X11094279Y-10428663D02*
X11061259Y-10461683D01*
X11062990Y-9538990D02*
X11096010Y-9572010D01*
X11096010Y-9538990D02*
X11062990Y-9572010D01*
X11062990Y-9665990D02*
X11096010Y-9699010D01*
X11096010Y-9665990D02*
X11062990Y-9699010D01*
X11062990Y-9790699D02*
X11096010Y-9823719D01*
X11096010Y-9790699D02*
X11062990Y-9823719D01*
X11189990Y-9538990D02*
X11223010Y-9572010D01*
X11223010Y-9538990D02*
X11189990Y-9572010D01*
X11189990Y-9665990D02*
X11223010Y-9699010D01*
X11223010Y-9665990D02*
X11189990Y-9699010D01*
X11189990Y-9792990D02*
X11223010Y-9826010D01*
X11223010Y-9792990D02*
X11189990Y-9826010D01*
X11192281Y-9919990D02*
X11225301Y-9953010D01*
X11225301Y-9919990D02*
X11192281Y-9953010D01*
X11192281Y-10046990D02*
X11225301Y-10080010D01*
X11225301Y-10046990D02*
X11192281Y-10080010D01*
X11192281Y-10173990D02*
X11225301Y-10207010D01*
X11225301Y-10173990D02*
X11192281Y-10207010D01*
X11192281Y-10300990D02*
X11225301Y-10334010D01*
X11225301Y-10300990D02*
X11192281Y-10334010D01*
X11192281Y-10427990D02*
X11225301Y-10461010D01*
X11225301Y-10427990D02*
X11192281Y-10461010D01*
X11316990Y-9538990D02*
X11350010Y-9572010D01*
X11350010Y-9538990D02*
X11316990Y-9572010D01*
X11316990Y-9665990D02*
X11350010Y-9699010D01*
X11350010Y-9665990D02*
X11316990Y-9699010D01*
X11316990Y-9792990D02*
X11350010Y-9826010D01*
X11350010Y-9792990D02*
X11316990Y-9826010D01*
X11316990Y-9919990D02*
X11350010Y-9953010D01*
X11350010Y-9919990D02*
X11316990Y-9953010D01*
X11316990Y-10046990D02*
X11350010Y-10080010D01*
X11350010Y-10046990D02*
X11316990Y-10080010D01*
X11316990Y-10173990D02*
X11350010Y-10207010D01*
X11350010Y-10173990D02*
X11316990Y-10207010D01*
X11316990Y-10300990D02*
X11350010Y-10334010D01*
X11350010Y-10300990D02*
X11316990Y-10334010D01*
X11316990Y-10427990D02*
X11350010Y-10461010D01*
X11350010Y-10427990D02*
X11316990Y-10461010D01*
X11443990Y-9538990D02*
X11477010Y-9572010D01*
X11477010Y-9538990D02*
X11443990Y-9572010D01*
X11443990Y-9665990D02*
X11477010Y-9699010D01*
X11477010Y-9665990D02*
X11443990Y-9699010D01*
X11443990Y-9792990D02*
X11477010Y-9826010D01*
X11477010Y-9792990D02*
X11443990Y-9826010D01*
X11443990Y-9919990D02*
X11477010Y-9953010D01*
X11477010Y-9919990D02*
X11443990Y-9953010D01*
X11443990Y-10046990D02*
X11477010Y-10080010D01*
X11477010Y-10046990D02*
X11443990Y-10080010D01*
X11443990Y-10173990D02*
X11477010Y-10207010D01*
X11477010Y-10173990D02*
X11443990Y-10207010D01*
X11443990Y-10300990D02*
X11477010Y-10334010D01*
X11477010Y-10300990D02*
X11443990Y-10334010D01*
X11443990Y-10427990D02*
X11477010Y-10461010D01*
X11477010Y-10427990D02*
X11443990Y-10461010D01*
X11570990Y-9538990D02*
X11604010Y-9572010D01*
X11604010Y-9538990D02*
X11570990Y-9572010D01*
X11570990Y-9665990D02*
X11604010Y-9699010D01*
X11604010Y-9665990D02*
X11570990Y-9699010D01*
X11570990Y-9792990D02*
X11604010Y-9826010D01*
X11604010Y-9792990D02*
X11570990Y-9826010D01*
X11570990Y-9919990D02*
X11604010Y-9953010D01*
X11604010Y-9919990D02*
X11570990Y-9953010D01*
X11570990Y-10046990D02*
X11604010Y-10080010D01*
X11604010Y-10046990D02*
X11570990Y-10080010D01*
X11570990Y-10173990D02*
X11604010Y-10207010D01*
X11604010Y-10173990D02*
X11570990Y-10207010D01*
X11570990Y-10300990D02*
X11604010Y-10334010D01*
X11604010Y-10300990D02*
X11570990Y-10334010D01*
X11570990Y-10427990D02*
X11604010Y-10461010D01*
X11604010Y-10427990D02*
X11570990Y-10461010D01*
X11697990Y-9538990D02*
X11731010Y-9572010D01*
X11731010Y-9538990D02*
X11697990Y-9572010D01*
X11697990Y-9665990D02*
X11731010Y-9699010D01*
X11731010Y-9665990D02*
X11697990Y-9699010D01*
X11697990Y-9792990D02*
X11731010Y-9826010D01*
X11731010Y-9792990D02*
X11697990Y-9826010D01*
X11697990Y-9919990D02*
X11731010Y-9953010D01*
X11731010Y-9919990D02*
X11697990Y-9953010D01*
X11697990Y-10046990D02*
X11731010Y-10080010D01*
X11731010Y-10046990D02*
X11697990Y-10080010D01*
X11697990Y-10173990D02*
X11731010Y-10207010D01*
X11731010Y-10173990D02*
X11697990Y-10207010D01*
X11697990Y-10300990D02*
X11731010Y-10334010D01*
X11731010Y-10300990D02*
X11697990Y-10334010D01*
X11697990Y-10427990D02*
X11731010Y-10461010D01*
X11731010Y-10427990D02*
X11697990Y-10461010D01*
X11824990Y-9538990D02*
X11858010Y-9572010D01*
X11858010Y-9538990D02*
X11824990Y-9572010D01*
X11824990Y-9665990D02*
X11858010Y-9699010D01*
X11858010Y-9665990D02*
X11824990Y-9699010D01*
X11824990Y-9792990D02*
X11858010Y-9826010D01*
X11858010Y-9792990D02*
X11824990Y-9826010D01*
X11824990Y-9919990D02*
X11858010Y-9953010D01*
X11858010Y-9919990D02*
X11824990Y-9953010D01*
X11824990Y-10046990D02*
X11858010Y-10080010D01*
X11858010Y-10046990D02*
X11824990Y-10080010D01*
X11824990Y-10173990D02*
X11858010Y-10207010D01*
X11858010Y-10173990D02*
X11824990Y-10207010D01*
X11824990Y-10300990D02*
X11858010Y-10334010D01*
X11858010Y-10300990D02*
X11824990Y-10334010D01*
X11824990Y-10427990D02*
X11858010Y-10461010D01*
X11858010Y-10427990D02*
X11824990Y-10461010D01*
X11858490Y-12413490D02*
X11891510Y-12446510D01*
X11891510Y-12413490D02*
X11858490Y-12446510D01*
X11951990Y-9538990D02*
X11985010Y-9572010D01*
X11985010Y-9538990D02*
X11951990Y-9572010D01*
X11951990Y-9665990D02*
X11985010Y-9699010D01*
X11985010Y-9665990D02*
X11951990Y-9699010D01*
X11951990Y-9792990D02*
X11985010Y-9826010D01*
X11985010Y-9792990D02*
X11951990Y-9826010D01*
X11951990Y-9919990D02*
X11985010Y-9953010D01*
X11985010Y-9919990D02*
X11951990Y-9953010D01*
X11951990Y-10046990D02*
X11985010Y-10080010D01*
X11985010Y-10046990D02*
X11951990Y-10080010D01*
X11951990Y-10173990D02*
X11985010Y-10207010D01*
X11985010Y-10173990D02*
X11951990Y-10207010D01*
X11951990Y-10300990D02*
X11985010Y-10334010D01*
X11985010Y-10300990D02*
X11951990Y-10334010D01*
X11951990Y-10427990D02*
X11985010Y-10461010D01*
X11985010Y-10427990D02*
X11951990Y-10461010D01*
X12078990Y-9538990D02*
X12112010Y-9572010D01*
X12112010Y-9538990D02*
X12078990Y-9572010D01*
X12078990Y-9665990D02*
X12112010Y-9699010D01*
X12112010Y-9665990D02*
X12078990Y-9699010D01*
X12078990Y-9792990D02*
X12112010Y-9826010D01*
X12112010Y-9792990D02*
X12078990Y-9826010D01*
X12078990Y-9919990D02*
X12112010Y-9953010D01*
X12112010Y-9919990D02*
X12078990Y-9953010D01*
X12078990Y-10046990D02*
X12112010Y-10080010D01*
X12112010Y-10046990D02*
X12078990Y-10080010D01*
X12078990Y-10173990D02*
X12112010Y-10207010D01*
X12112010Y-10173990D02*
X12078990Y-10207010D01*
X12078990Y-10300990D02*
X12112010Y-10334010D01*
X12112010Y-10300990D02*
X12078990Y-10334010D01*
X12078990Y-10427990D02*
X12112010Y-10461010D01*
X12112010Y-10427990D02*
X12078990Y-10461010D01*
X12205990Y-9538990D02*
X12239010Y-9572010D01*
X12239010Y-9538990D02*
X12205990Y-9572010D01*
X12205990Y-9665990D02*
X12239010Y-9699010D01*
X12239010Y-9665990D02*
X12205990Y-9699010D01*
X12205990Y-9792990D02*
X12239010Y-9826010D01*
X12239010Y-9792990D02*
X12205990Y-9826010D01*
X12205990Y-9919990D02*
X12239010Y-9953010D01*
X12239010Y-9919990D02*
X12205990Y-9953010D01*
X12205990Y-10046990D02*
X12239010Y-10080010D01*
X12239010Y-10046990D02*
X12205990Y-10080010D01*
X12205990Y-10173990D02*
X12239010Y-10207010D01*
X12239010Y-10173990D02*
X12205990Y-10207010D01*
X12205990Y-10300990D02*
X12239010Y-10334010D01*
X12239010Y-10300990D02*
X12205990Y-10334010D01*
X12205990Y-10427990D02*
X12239010Y-10461010D01*
X12239010Y-10427990D02*
X12205990Y-10461010D01*
X12332990Y-9538990D02*
X12366010Y-9572010D01*
X12366010Y-9538990D02*
X12332990Y-9572010D01*
X12332990Y-9665990D02*
X12366010Y-9699010D01*
X12366010Y-9665990D02*
X12332990Y-9699010D01*
X12332990Y-9792990D02*
X12366010Y-9826010D01*
X12366010Y-9792990D02*
X12332990Y-9826010D01*
X12332990Y-9919990D02*
X12366010Y-9953010D01*
X12366010Y-9919990D02*
X12332990Y-9953010D01*
X12332990Y-10046990D02*
X12366010Y-10080010D01*
X12366010Y-10046990D02*
X12332990Y-10080010D01*
X12332990Y-10173990D02*
X12366010Y-10207010D01*
X12366010Y-10173990D02*
X12332990Y-10207010D01*
X12332990Y-10300990D02*
X12366010Y-10334010D01*
X12366010Y-10300990D02*
X12332990Y-10334010D01*
X12332990Y-10427990D02*
X12366010Y-10461010D01*
X12366010Y-10427990D02*
X12332990Y-10461010D01*
X12459990Y-9538990D02*
X12493010Y-9572010D01*
X12493010Y-9538990D02*
X12459990Y-9572010D01*
X12459990Y-9665990D02*
X12493010Y-9699010D01*
X12493010Y-9665990D02*
X12459990Y-9699010D01*
X12459990Y-9792990D02*
X12493010Y-9826010D01*
X12493010Y-9792990D02*
X12459990Y-9826010D01*
X12459990Y-9919990D02*
X12493010Y-9953010D01*
X12493010Y-9919990D02*
X12459990Y-9953010D01*
X12459990Y-10046990D02*
X12493010Y-10080010D01*
X12493010Y-10046990D02*
X12459990Y-10080010D01*
X12459990Y-10173990D02*
X12493010Y-10207010D01*
X12493010Y-10173990D02*
X12459990Y-10207010D01*
X12459990Y-10300990D02*
X12493010Y-10334010D01*
X12493010Y-10300990D02*
X12459990Y-10334010D01*
X12459990Y-10427990D02*
X12493010Y-10461010D01*
X12493010Y-10427990D02*
X12459990Y-10461010D01*
X12586990Y-9538990D02*
X12620010Y-9572010D01*
X12620010Y-9538990D02*
X12586990Y-9572010D01*
X12586990Y-9665990D02*
X12620010Y-9699010D01*
X12620010Y-9665990D02*
X12586990Y-9699010D01*
X12586990Y-9792990D02*
X12620010Y-9826010D01*
X12620010Y-9792990D02*
X12586990Y-9826010D01*
X12586990Y-9919990D02*
X12620010Y-9953010D01*
X12620010Y-9919990D02*
X12586990Y-9953010D01*
X12586990Y-10046990D02*
X12620010Y-10080010D01*
X12620010Y-10046990D02*
X12586990Y-10080010D01*
X12586990Y-10173990D02*
X12620010Y-10207010D01*
X12620010Y-10173990D02*
X12586990Y-10207010D01*
X12586990Y-10300990D02*
X12620010Y-10334010D01*
X12620010Y-10300990D02*
X12586990Y-10334010D01*
X12586990Y-10427990D02*
X12620010Y-10461010D01*
X12620010Y-10427990D02*
X12586990Y-10461010D01*
X12713990Y-9538990D02*
X12747010Y-9572010D01*
X12747010Y-9538990D02*
X12713990Y-9572010D01*
X12713990Y-9665990D02*
X12747010Y-9699010D01*
X12747010Y-9665990D02*
X12713990Y-9699010D01*
X12713990Y-9792990D02*
X12747010Y-9826010D01*
X12747010Y-9792990D02*
X12713990Y-9826010D01*
X12713990Y-9919990D02*
X12747010Y-9953010D01*
X12747010Y-9919990D02*
X12713990Y-9953010D01*
X12713990Y-10046990D02*
X12747010Y-10080010D01*
X12747010Y-10046990D02*
X12713990Y-10080010D01*
X12713990Y-10173990D02*
X12747010Y-10207010D01*
X12747010Y-10173990D02*
X12713990Y-10207010D01*
X12713990Y-10300990D02*
X12747010Y-10334010D01*
X12747010Y-10300990D02*
X12713990Y-10334010D01*
X12713990Y-10427990D02*
X12747010Y-10461010D01*
X12747010Y-10427990D02*
X12713990Y-10461010D01*
X12840990Y-9538990D02*
X12874010Y-9572010D01*
X12874010Y-9538990D02*
X12840990Y-9572010D01*
X12840990Y-9665990D02*
X12874010Y-9699010D01*
X12874010Y-9665990D02*
X12840990Y-9699010D01*
X12840990Y-9792990D02*
X12874010Y-9826010D01*
X12874010Y-9792990D02*
X12840990Y-9826010D01*
X12840990Y-9919990D02*
X12874010Y-9953010D01*
X12874010Y-9919990D02*
X12840990Y-9953010D01*
X12840990Y-10046990D02*
X12874010Y-10080010D01*
X12874010Y-10046990D02*
X12840990Y-10080010D01*
X12840990Y-10173990D02*
X12874010Y-10207010D01*
X12874010Y-10173990D02*
X12840990Y-10207010D01*
X12840990Y-10300990D02*
X12874010Y-10334010D01*
X12874010Y-10300990D02*
X12840990Y-10334010D01*
X12840990Y-10427990D02*
X12874010Y-10461010D01*
X12874010Y-10427990D02*
X12840990Y-10461010D01*
X12953490Y-12528490D02*
X12986510Y-12561510D01*
X12986510Y-12528490D02*
X12953490Y-12561510D01*
X12967990Y-9538990D02*
X13001010Y-9572010D01*
X13001010Y-9538990D02*
X12967990Y-9572010D01*
X12967990Y-9665990D02*
X13001010Y-9699010D01*
X13001010Y-9665990D02*
X12967990Y-9699010D01*
X12967990Y-9792990D02*
X13001010Y-9826010D01*
X13001010Y-9792990D02*
X12967990Y-9826010D01*
X12967990Y-9919990D02*
X13001010Y-9953010D01*
X13001010Y-9919990D02*
X12967990Y-9953010D01*
X12967990Y-10046990D02*
X13001010Y-10080010D01*
X13001010Y-10046990D02*
X12967990Y-10080010D01*
X12967990Y-10173990D02*
X13001010Y-10207010D01*
X13001010Y-10173990D02*
X12967990Y-10207010D01*
X12967990Y-10300990D02*
X13001010Y-10334010D01*
X13001010Y-10300990D02*
X12967990Y-10334010D01*
X12967990Y-10427990D02*
X13001010Y-10461010D01*
X13001010Y-10427990D02*
X12967990Y-10461010D01*
X13094990Y-9538990D02*
X13128010Y-9572010D01*
X13128010Y-9538990D02*
X13094990Y-9572010D01*
X13094990Y-9665990D02*
X13128010Y-9699010D01*
X13128010Y-9665990D02*
X13094990Y-9699010D01*
X13094990Y-9792990D02*
X13128010Y-9826010D01*
X13128010Y-9792990D02*
X13094990Y-9826010D01*
X13094990Y-9919990D02*
X13128010Y-9953010D01*
X13128010Y-9919990D02*
X13094990Y-9953010D01*
X13094990Y-10046990D02*
X13128010Y-10080010D01*
X13128010Y-10046990D02*
X13094990Y-10080010D01*
X13094990Y-10173990D02*
X13128010Y-10207010D01*
X13128010Y-10173990D02*
X13094990Y-10207010D01*
X13094990Y-10300990D02*
X13128010Y-10334010D01*
X13128010Y-10300990D02*
X13094990Y-10334010D01*
X13094990Y-10427990D02*
X13128010Y-10461010D01*
X13128010Y-10427990D02*
X13094990Y-10461010D01*
X13648114Y-12002008D02*
X13681134Y-12035028D01*
X13681134Y-12002008D02*
X13648114Y-12035028D01*
X8331000Y-14700000D02*
G75*
G03X8331000Y-14700000I-85000J0D01*
G01*
X8839000Y-14700000D02*
G75*
G03X8839000Y-14700000I-85000J0D01*
G01*
X10862000Y-14690000D02*
G75*
G03X10862000Y-14690000I-85000J0D01*
G01*
X11370000Y-14690000D02*
G75*
G03X11370000Y-14690000I-85000J0D01*
G01*
X6050000Y-9485000D02*
X6050000Y-9835000D01*
X5875000Y-9660000D02*
X6225000Y-9660000D01*
X6050000Y-13685000D02*
X6050000Y-14035000D01*
X5875000Y-13860000D02*
X6225000Y-13860000D01*
X13950000Y-9485000D02*
X13950000Y-9835000D01*
X13775000Y-9660000D02*
X14125000Y-9660000D01*
X13950000Y-13685000D02*
X13950000Y-14035000D01*
X13775000Y-13860000D02*
X14125000Y-13860000D01*
D13*
X5913904Y-15723214D02*
X5913904Y-15423214D01*
X5985333Y-15423214D01*
X6028190Y-15437500D01*
X6056762Y-15466071D01*
X6071047Y-15494643D01*
X6085333Y-15551786D01*
X6085333Y-15594643D01*
X6071047Y-15651786D01*
X6056762Y-15680357D01*
X6028190Y-15708929D01*
X5985333Y-15723214D01*
X5913904Y-15723214D01*
X6213904Y-15723214D02*
X6213904Y-15523214D01*
X6213904Y-15580357D02*
X6228190Y-15551786D01*
X6242476Y-15537500D01*
X6271047Y-15523214D01*
X6299619Y-15523214D01*
X6399619Y-15723214D02*
X6399619Y-15523214D01*
X6399619Y-15423214D02*
X6385333Y-15437500D01*
X6399619Y-15451786D01*
X6413904Y-15437500D01*
X6399619Y-15423214D01*
X6399619Y-15451786D01*
X6585333Y-15723214D02*
X6556762Y-15708929D01*
X6542476Y-15680357D01*
X6542476Y-15423214D01*
X6742476Y-15723214D02*
X6713904Y-15708929D01*
X6699619Y-15680357D01*
X6699619Y-15423214D01*
X7085333Y-15723214D02*
X7085333Y-15423214D01*
X7185333Y-15637500D01*
X7285333Y-15423214D01*
X7285333Y-15723214D01*
X7556762Y-15723214D02*
X7556762Y-15566071D01*
X7542476Y-15537500D01*
X7513904Y-15523214D01*
X7456762Y-15523214D01*
X7428190Y-15537500D01*
X7556762Y-15708929D02*
X7528190Y-15723214D01*
X7456762Y-15723214D01*
X7428190Y-15708929D01*
X7413904Y-15680357D01*
X7413904Y-15651786D01*
X7428190Y-15623214D01*
X7456762Y-15608929D01*
X7528190Y-15608929D01*
X7556762Y-15594643D01*
X7699619Y-15523214D02*
X7699619Y-15823214D01*
X7699619Y-15537500D02*
X7728190Y-15523214D01*
X7785333Y-15523214D01*
X7813904Y-15537500D01*
X7828190Y-15551786D01*
X7842476Y-15580357D01*
X7842476Y-15666071D01*
X7828190Y-15694643D01*
X7813904Y-15708929D01*
X7785333Y-15723214D01*
X7728190Y-15723214D01*
X7699619Y-15708929D01*
X7971047Y-15694643D02*
X7985333Y-15708929D01*
X7971047Y-15723214D01*
X7956762Y-15708929D01*
X7971047Y-15694643D01*
X7971047Y-15723214D01*
X7971047Y-15537500D02*
X7985333Y-15551786D01*
X7971047Y-15566071D01*
X7956762Y-15551786D01*
X7971047Y-15537500D01*
X7971047Y-15566071D01*
X5609456Y-16200990D02*
X5642476Y-16234010D01*
X5642476Y-16200990D02*
X5609456Y-16234010D01*
X5971047Y-16053214D02*
X5999619Y-16053214D01*
X6028190Y-16067500D01*
X6042476Y-16081786D01*
X6056762Y-16110357D01*
X6071047Y-16167500D01*
X6071047Y-16238929D01*
X6056762Y-16296071D01*
X6042476Y-16324643D01*
X6028190Y-16338929D01*
X5999619Y-16353214D01*
X5971047Y-16353214D01*
X5942476Y-16338929D01*
X5928190Y-16324643D01*
X5913904Y-16296071D01*
X5899619Y-16238929D01*
X5899619Y-16167500D01*
X5913904Y-16110357D01*
X5928190Y-16081786D01*
X5942476Y-16067500D01*
X5971047Y-16053214D01*
X6199619Y-16324643D02*
X6213904Y-16338929D01*
X6199619Y-16353214D01*
X6185333Y-16338929D01*
X6199619Y-16324643D01*
X6199619Y-16353214D01*
X6313904Y-16053214D02*
X6499619Y-16053214D01*
X6399619Y-16167500D01*
X6442476Y-16167500D01*
X6471047Y-16181786D01*
X6485333Y-16196071D01*
X6499619Y-16224643D01*
X6499619Y-16296071D01*
X6485333Y-16324643D01*
X6471047Y-16338929D01*
X6442476Y-16353214D01*
X6356762Y-16353214D01*
X6328190Y-16338929D01*
X6313904Y-16324643D01*
X6599619Y-16053214D02*
X6785333Y-16053214D01*
X6685333Y-16167500D01*
X6728190Y-16167500D01*
X6756762Y-16181786D01*
X6771047Y-16196071D01*
X6785333Y-16224643D01*
X6785333Y-16296071D01*
X6771047Y-16324643D01*
X6756762Y-16338929D01*
X6728190Y-16353214D01*
X6642476Y-16353214D01*
X6613904Y-16338929D01*
X6599619Y-16324643D01*
X6913904Y-16353214D02*
X6913904Y-16153214D01*
X6913904Y-16181786D02*
X6928190Y-16167500D01*
X6956762Y-16153214D01*
X6999619Y-16153214D01*
X7028190Y-16167500D01*
X7042476Y-16196071D01*
X7042476Y-16353214D01*
X7042476Y-16196071D02*
X7056762Y-16167500D01*
X7085333Y-16153214D01*
X7128190Y-16153214D01*
X7156762Y-16167500D01*
X7171047Y-16196071D01*
X7171047Y-16353214D01*
X7313904Y-16353214D02*
X7313904Y-16153214D01*
X7313904Y-16181786D02*
X7328190Y-16167500D01*
X7356762Y-16153214D01*
X7399619Y-16153214D01*
X7428190Y-16167500D01*
X7442476Y-16196071D01*
X7442476Y-16353214D01*
X7442476Y-16196071D02*
X7456762Y-16167500D01*
X7485333Y-16153214D01*
X7528190Y-16153214D01*
X7556762Y-16167500D01*
X7571047Y-16196071D01*
X7571047Y-16353214D01*
X8156762Y-16038929D02*
X7899619Y-16424643D01*
X8542476Y-16053214D02*
X8571047Y-16053214D01*
X8599619Y-16067500D01*
X8613904Y-16081786D01*
X8628190Y-16110357D01*
X8642476Y-16167500D01*
X8642476Y-16238929D01*
X8628190Y-16296071D01*
X8613904Y-16324643D01*
X8599619Y-16338929D01*
X8571047Y-16353214D01*
X8542476Y-16353214D01*
X8513904Y-16338929D01*
X8499619Y-16324643D01*
X8485333Y-16296071D01*
X8471047Y-16238929D01*
X8471047Y-16167500D01*
X8485333Y-16110357D01*
X8499619Y-16081786D01*
X8513904Y-16067500D01*
X8542476Y-16053214D01*
X8771047Y-16324643D02*
X8785333Y-16338929D01*
X8771047Y-16353214D01*
X8756762Y-16338929D01*
X8771047Y-16324643D01*
X8771047Y-16353214D01*
X8971047Y-16053214D02*
X8999619Y-16053214D01*
X9028190Y-16067500D01*
X9042476Y-16081786D01*
X9056762Y-16110357D01*
X9071047Y-16167500D01*
X9071047Y-16238929D01*
X9056762Y-16296071D01*
X9042476Y-16324643D01*
X9028190Y-16338929D01*
X8999619Y-16353214D01*
X8971047Y-16353214D01*
X8942476Y-16338929D01*
X8928190Y-16324643D01*
X8913904Y-16296071D01*
X8899619Y-16238929D01*
X8899619Y-16167500D01*
X8913904Y-16110357D01*
X8928190Y-16081786D01*
X8942476Y-16067500D01*
X8971047Y-16053214D01*
X9356762Y-16353214D02*
X9185333Y-16353214D01*
X9271047Y-16353214D02*
X9271047Y-16053214D01*
X9242476Y-16096071D01*
X9213904Y-16124643D01*
X9185333Y-16138929D01*
X9456762Y-16053214D02*
X9642476Y-16053214D01*
X9542476Y-16167500D01*
X9585333Y-16167500D01*
X9613904Y-16181786D01*
X9628190Y-16196071D01*
X9642476Y-16224643D01*
X9642476Y-16296071D01*
X9628190Y-16324643D01*
X9613904Y-16338929D01*
X9585333Y-16353214D01*
X9499619Y-16353214D01*
X9471047Y-16338929D01*
X9456762Y-16324643D01*
X9756762Y-16053214D02*
X9756762Y-16110357D01*
X9871047Y-16053214D02*
X9871047Y-16110357D01*
X10313904Y-16467500D02*
X10299619Y-16453214D01*
X10271047Y-16410357D01*
X10256762Y-16381786D01*
X10242476Y-16338929D01*
X10228190Y-16267500D01*
X10228190Y-16210357D01*
X10242476Y-16138929D01*
X10256762Y-16096071D01*
X10271047Y-16067500D01*
X10299619Y-16024643D01*
X10313904Y-16010357D01*
X10556762Y-16153214D02*
X10556762Y-16353214D01*
X10485333Y-16038929D02*
X10413904Y-16253214D01*
X10599619Y-16253214D01*
X10771047Y-16053214D02*
X10799619Y-16053214D01*
X10828190Y-16067500D01*
X10842476Y-16081786D01*
X10856762Y-16110357D01*
X10871047Y-16167500D01*
X10871047Y-16238929D01*
X10856762Y-16296071D01*
X10842476Y-16324643D01*
X10828190Y-16338929D01*
X10799619Y-16353214D01*
X10771047Y-16353214D01*
X10742476Y-16338929D01*
X10728190Y-16324643D01*
X10713904Y-16296071D01*
X10699619Y-16238929D01*
X10699619Y-16167500D01*
X10713904Y-16110357D01*
X10728190Y-16081786D01*
X10742476Y-16067500D01*
X10771047Y-16053214D01*
X10971047Y-16053214D02*
X11171047Y-16053214D01*
X11042476Y-16353214D01*
X11513904Y-16353214D02*
X11513904Y-16053214D01*
X11642476Y-16353214D02*
X11642476Y-16196071D01*
X11628190Y-16167500D01*
X11599619Y-16153214D01*
X11556761Y-16153214D01*
X11528190Y-16167500D01*
X11513904Y-16181786D01*
X11828190Y-16353214D02*
X11799619Y-16338929D01*
X11785333Y-16324643D01*
X11771047Y-16296071D01*
X11771047Y-16210357D01*
X11785333Y-16181786D01*
X11799619Y-16167500D01*
X11828190Y-16153214D01*
X11871047Y-16153214D01*
X11899619Y-16167500D01*
X11913904Y-16181786D01*
X11928190Y-16210357D01*
X11928190Y-16296071D01*
X11913904Y-16324643D01*
X11899619Y-16338929D01*
X11871047Y-16353214D01*
X11828190Y-16353214D01*
X12099619Y-16353214D02*
X12071047Y-16338929D01*
X12056762Y-16310357D01*
X12056762Y-16053214D01*
X12328190Y-16338929D02*
X12299619Y-16353214D01*
X12242476Y-16353214D01*
X12213904Y-16338929D01*
X12199619Y-16310357D01*
X12199619Y-16196071D01*
X12213904Y-16167500D01*
X12242476Y-16153214D01*
X12299619Y-16153214D01*
X12328190Y-16167500D01*
X12342476Y-16196071D01*
X12342476Y-16224643D01*
X12199619Y-16253214D01*
X12456762Y-16338929D02*
X12485333Y-16353214D01*
X12542476Y-16353214D01*
X12571047Y-16338929D01*
X12585333Y-16310357D01*
X12585333Y-16296071D01*
X12571047Y-16267500D01*
X12542476Y-16253214D01*
X12499619Y-16253214D01*
X12471047Y-16238929D01*
X12456762Y-16210357D01*
X12456762Y-16196071D01*
X12471047Y-16167500D01*
X12499619Y-16153214D01*
X12542476Y-16153214D01*
X12571047Y-16167500D01*
X12685333Y-16467500D02*
X12699619Y-16453214D01*
X12728190Y-16410357D01*
X12742476Y-16381786D01*
X12756762Y-16338929D01*
X12771047Y-16267500D01*
X12771047Y-16210357D01*
X12756762Y-16138929D01*
X12742476Y-16096071D01*
X12728190Y-16067500D01*
X12699619Y-16024643D01*
X12685333Y-16010357D01*
X5642476Y-16613500D02*
G75*
G03X5642476Y-16613500I-85000J0D01*
G01*
X6071047Y-16749214D02*
X5899619Y-16749214D01*
X5985333Y-16749214D02*
X5985333Y-16449214D01*
X5956762Y-16492071D01*
X5928190Y-16520643D01*
X5899619Y-16534929D01*
X6199619Y-16720643D02*
X6213904Y-16734929D01*
X6199619Y-16749214D01*
X6185333Y-16734929D01*
X6199619Y-16720643D01*
X6199619Y-16749214D01*
X6313904Y-16449214D02*
X6513904Y-16449214D01*
X6385333Y-16749214D01*
X6685333Y-16449214D02*
X6713904Y-16449214D01*
X6742476Y-16463500D01*
X6756762Y-16477786D01*
X6771047Y-16506357D01*
X6785333Y-16563500D01*
X6785333Y-16634929D01*
X6771047Y-16692071D01*
X6756762Y-16720643D01*
X6742476Y-16734929D01*
X6713904Y-16749214D01*
X6685333Y-16749214D01*
X6656762Y-16734929D01*
X6642476Y-16720643D01*
X6628190Y-16692071D01*
X6613904Y-16634929D01*
X6613904Y-16563500D01*
X6628190Y-16506357D01*
X6642476Y-16477786D01*
X6656762Y-16463500D01*
X6685333Y-16449214D01*
X6913904Y-16749214D02*
X6913904Y-16549214D01*
X6913904Y-16577786D02*
X6928190Y-16563500D01*
X6956762Y-16549214D01*
X6999619Y-16549214D01*
X7028190Y-16563500D01*
X7042476Y-16592071D01*
X7042476Y-16749214D01*
X7042476Y-16592071D02*
X7056762Y-16563500D01*
X7085333Y-16549214D01*
X7128190Y-16549214D01*
X7156762Y-16563500D01*
X7171047Y-16592071D01*
X7171047Y-16749214D01*
X7313904Y-16749214D02*
X7313904Y-16549214D01*
X7313904Y-16577786D02*
X7328190Y-16563500D01*
X7356762Y-16549214D01*
X7399619Y-16549214D01*
X7428190Y-16563500D01*
X7442476Y-16592071D01*
X7442476Y-16749214D01*
X7442476Y-16592071D02*
X7456762Y-16563500D01*
X7485333Y-16549214D01*
X7528190Y-16549214D01*
X7556762Y-16563500D01*
X7571047Y-16592071D01*
X7571047Y-16749214D01*
X8156762Y-16434929D02*
X7899619Y-16820643D01*
X8542476Y-16449214D02*
X8571047Y-16449214D01*
X8599619Y-16463500D01*
X8613904Y-16477786D01*
X8628190Y-16506357D01*
X8642476Y-16563500D01*
X8642476Y-16634929D01*
X8628190Y-16692071D01*
X8613904Y-16720643D01*
X8599619Y-16734929D01*
X8571047Y-16749214D01*
X8542476Y-16749214D01*
X8513904Y-16734929D01*
X8499619Y-16720643D01*
X8485333Y-16692071D01*
X8471047Y-16634929D01*
X8471047Y-16563500D01*
X8485333Y-16506357D01*
X8499619Y-16477786D01*
X8513904Y-16463500D01*
X8542476Y-16449214D01*
X8771047Y-16720643D02*
X8785333Y-16734929D01*
X8771047Y-16749214D01*
X8756762Y-16734929D01*
X8771047Y-16720643D01*
X8771047Y-16749214D01*
X8971047Y-16449214D02*
X8999619Y-16449214D01*
X9028190Y-16463500D01*
X9042476Y-16477786D01*
X9056762Y-16506357D01*
X9071047Y-16563500D01*
X9071047Y-16634929D01*
X9056762Y-16692071D01*
X9042476Y-16720643D01*
X9028190Y-16734929D01*
X8999619Y-16749214D01*
X8971047Y-16749214D01*
X8942476Y-16734929D01*
X8928190Y-16720643D01*
X8913904Y-16692071D01*
X8899619Y-16634929D01*
X8899619Y-16563500D01*
X8913904Y-16506357D01*
X8928190Y-16477786D01*
X8942476Y-16463500D01*
X8971047Y-16449214D01*
X9328190Y-16449214D02*
X9271047Y-16449214D01*
X9242476Y-16463500D01*
X9228190Y-16477786D01*
X9199619Y-16520643D01*
X9185333Y-16577786D01*
X9185333Y-16692071D01*
X9199619Y-16720643D01*
X9213904Y-16734929D01*
X9242476Y-16749214D01*
X9299619Y-16749214D01*
X9328190Y-16734929D01*
X9342476Y-16720643D01*
X9356762Y-16692071D01*
X9356762Y-16620643D01*
X9342476Y-16592071D01*
X9328190Y-16577786D01*
X9299619Y-16563500D01*
X9242476Y-16563500D01*
X9213904Y-16577786D01*
X9199619Y-16592071D01*
X9185333Y-16620643D01*
X9456762Y-16449214D02*
X9656762Y-16449214D01*
X9528190Y-16749214D01*
X9756762Y-16449214D02*
X9756762Y-16506357D01*
X9871047Y-16449214D02*
X9871047Y-16506357D01*
X10313904Y-16863500D02*
X10299619Y-16849214D01*
X10271047Y-16806357D01*
X10256762Y-16777786D01*
X10242476Y-16734929D01*
X10228190Y-16663500D01*
X10228190Y-16606357D01*
X10242476Y-16534929D01*
X10256762Y-16492071D01*
X10271047Y-16463500D01*
X10299619Y-16420643D01*
X10313904Y-16406357D01*
X10556762Y-16549214D02*
X10556762Y-16749214D01*
X10485333Y-16434929D02*
X10413904Y-16649214D01*
X10599619Y-16649214D01*
X10942476Y-16749214D02*
X10942476Y-16449214D01*
X11071047Y-16749214D02*
X11071047Y-16592071D01*
X11056762Y-16563500D01*
X11028190Y-16549214D01*
X10985333Y-16549214D01*
X10956762Y-16563500D01*
X10942476Y-16577786D01*
X11256761Y-16749214D02*
X11228190Y-16734929D01*
X11213904Y-16720643D01*
X11199619Y-16692071D01*
X11199619Y-16606357D01*
X11213904Y-16577786D01*
X11228190Y-16563500D01*
X11256761Y-16549214D01*
X11299619Y-16549214D01*
X11328190Y-16563500D01*
X11342476Y-16577786D01*
X11356761Y-16606357D01*
X11356761Y-16692071D01*
X11342476Y-16720643D01*
X11328190Y-16734929D01*
X11299619Y-16749214D01*
X11256761Y-16749214D01*
X11528190Y-16749214D02*
X11499619Y-16734929D01*
X11485333Y-16706357D01*
X11485333Y-16449214D01*
X11756762Y-16734929D02*
X11728190Y-16749214D01*
X11671047Y-16749214D01*
X11642476Y-16734929D01*
X11628190Y-16706357D01*
X11628190Y-16592071D01*
X11642476Y-16563500D01*
X11671047Y-16549214D01*
X11728190Y-16549214D01*
X11756762Y-16563500D01*
X11771047Y-16592071D01*
X11771047Y-16620643D01*
X11628190Y-16649214D01*
X11885333Y-16734929D02*
X11913904Y-16749214D01*
X11971047Y-16749214D01*
X11999619Y-16734929D01*
X12013904Y-16706357D01*
X12013904Y-16692071D01*
X11999619Y-16663500D01*
X11971047Y-16649214D01*
X11928190Y-16649214D01*
X11899619Y-16634929D01*
X11885333Y-16606357D01*
X11885333Y-16592071D01*
X11899619Y-16563500D01*
X11928190Y-16549214D01*
X11971047Y-16549214D01*
X11999619Y-16563500D01*
X12113904Y-16863500D02*
X12128190Y-16849214D01*
X12156762Y-16806357D01*
X12171047Y-16777786D01*
X12185333Y-16734929D01*
X12199619Y-16663500D01*
X12199619Y-16606357D01*
X12185333Y-16534929D01*
X12171047Y-16492071D01*
X12156762Y-16463500D01*
X12128190Y-16420643D01*
X12113904Y-16406357D01*
X5467476Y-16834500D02*
X5467476Y-17184500D01*
X5292476Y-17009500D02*
X5642476Y-17009500D01*
X5885333Y-16845214D02*
X6071047Y-16845214D01*
X5971047Y-16959500D01*
X6013904Y-16959500D01*
X6042476Y-16973786D01*
X6056762Y-16988072D01*
X6071047Y-17016643D01*
X6071047Y-17088072D01*
X6056762Y-17116643D01*
X6042476Y-17130929D01*
X6013904Y-17145214D01*
X5928190Y-17145214D01*
X5899619Y-17130929D01*
X5885333Y-17116643D01*
X6199619Y-17116643D02*
X6213904Y-17130929D01*
X6199619Y-17145214D01*
X6185333Y-17130929D01*
X6199619Y-17116643D01*
X6199619Y-17145214D01*
X6485333Y-16845214D02*
X6342476Y-16845214D01*
X6328190Y-16988072D01*
X6342476Y-16973786D01*
X6371047Y-16959500D01*
X6442476Y-16959500D01*
X6471047Y-16973786D01*
X6485333Y-16988072D01*
X6499619Y-17016643D01*
X6499619Y-17088072D01*
X6485333Y-17116643D01*
X6471047Y-17130929D01*
X6442476Y-17145214D01*
X6371047Y-17145214D01*
X6342476Y-17130929D01*
X6328190Y-17116643D01*
X6685333Y-16845214D02*
X6713904Y-16845214D01*
X6742476Y-16859500D01*
X6756762Y-16873786D01*
X6771047Y-16902357D01*
X6785333Y-16959500D01*
X6785333Y-17030929D01*
X6771047Y-17088072D01*
X6756762Y-17116643D01*
X6742476Y-17130929D01*
X6713904Y-17145214D01*
X6685333Y-17145214D01*
X6656762Y-17130929D01*
X6642476Y-17116643D01*
X6628190Y-17088072D01*
X6613904Y-17030929D01*
X6613904Y-16959500D01*
X6628190Y-16902357D01*
X6642476Y-16873786D01*
X6656762Y-16859500D01*
X6685333Y-16845214D01*
X6913904Y-17145214D02*
X6913904Y-16945214D01*
X6913904Y-16973786D02*
X6928190Y-16959500D01*
X6956762Y-16945214D01*
X6999619Y-16945214D01*
X7028190Y-16959500D01*
X7042476Y-16988072D01*
X7042476Y-17145214D01*
X7042476Y-16988072D02*
X7056762Y-16959500D01*
X7085333Y-16945214D01*
X7128190Y-16945214D01*
X7156762Y-16959500D01*
X7171047Y-16988072D01*
X7171047Y-17145214D01*
X7313904Y-17145214D02*
X7313904Y-16945214D01*
X7313904Y-16973786D02*
X7328190Y-16959500D01*
X7356762Y-16945214D01*
X7399619Y-16945214D01*
X7428190Y-16959500D01*
X7442476Y-16988072D01*
X7442476Y-17145214D01*
X7442476Y-16988072D02*
X7456762Y-16959500D01*
X7485333Y-16945214D01*
X7528190Y-16945214D01*
X7556762Y-16959500D01*
X7571047Y-16988072D01*
X7571047Y-17145214D01*
X8156762Y-16830929D02*
X7899619Y-17216643D01*
X8542476Y-16845214D02*
X8571047Y-16845214D01*
X8599619Y-16859500D01*
X8613904Y-16873786D01*
X8628190Y-16902357D01*
X8642476Y-16959500D01*
X8642476Y-17030929D01*
X8628190Y-17088072D01*
X8613904Y-17116643D01*
X8599619Y-17130929D01*
X8571047Y-17145214D01*
X8542476Y-17145214D01*
X8513904Y-17130929D01*
X8499619Y-17116643D01*
X8485333Y-17088072D01*
X8471047Y-17030929D01*
X8471047Y-16959500D01*
X8485333Y-16902357D01*
X8499619Y-16873786D01*
X8513904Y-16859500D01*
X8542476Y-16845214D01*
X8771047Y-17116643D02*
X8785333Y-17130929D01*
X8771047Y-17145214D01*
X8756762Y-17130929D01*
X8771047Y-17116643D01*
X8771047Y-17145214D01*
X9071047Y-17145214D02*
X8899619Y-17145214D01*
X8985333Y-17145214D02*
X8985333Y-16845214D01*
X8956762Y-16888072D01*
X8928190Y-16916643D01*
X8899619Y-16930929D01*
X9171047Y-16845214D02*
X9356762Y-16845214D01*
X9256762Y-16959500D01*
X9299619Y-16959500D01*
X9328190Y-16973786D01*
X9342476Y-16988072D01*
X9356762Y-17016643D01*
X9356762Y-17088072D01*
X9342476Y-17116643D01*
X9328190Y-17130929D01*
X9299619Y-17145214D01*
X9213904Y-17145214D01*
X9185333Y-17130929D01*
X9171047Y-17116643D01*
X9528190Y-16973786D02*
X9499619Y-16959500D01*
X9485333Y-16945214D01*
X9471047Y-16916643D01*
X9471047Y-16902357D01*
X9485333Y-16873786D01*
X9499619Y-16859500D01*
X9528190Y-16845214D01*
X9585333Y-16845214D01*
X9613904Y-16859500D01*
X9628190Y-16873786D01*
X9642476Y-16902357D01*
X9642476Y-16916643D01*
X9628190Y-16945214D01*
X9613904Y-16959500D01*
X9585333Y-16973786D01*
X9528190Y-16973786D01*
X9499619Y-16988072D01*
X9485333Y-17002357D01*
X9471047Y-17030929D01*
X9471047Y-17088072D01*
X9485333Y-17116643D01*
X9499619Y-17130929D01*
X9528190Y-17145214D01*
X9585333Y-17145214D01*
X9613904Y-17130929D01*
X9628190Y-17116643D01*
X9642476Y-17088072D01*
X9642476Y-17030929D01*
X9628190Y-17002357D01*
X9613904Y-16988072D01*
X9585333Y-16973786D01*
X9756762Y-16845214D02*
X9756762Y-16902357D01*
X9871047Y-16845214D02*
X9871047Y-16902357D01*
X10313904Y-17259500D02*
X10299619Y-17245214D01*
X10271047Y-17202357D01*
X10256762Y-17173786D01*
X10242476Y-17130929D01*
X10228190Y-17059500D01*
X10228190Y-17002357D01*
X10242476Y-16930929D01*
X10256762Y-16888072D01*
X10271047Y-16859500D01*
X10299619Y-16816643D01*
X10313904Y-16802357D01*
X10556762Y-16945214D02*
X10556762Y-17145214D01*
X10485333Y-16830929D02*
X10413904Y-17045214D01*
X10599619Y-17045214D01*
X10942476Y-17145214D02*
X10942476Y-16845214D01*
X11071047Y-17145214D02*
X11071047Y-16988072D01*
X11056762Y-16959500D01*
X11028190Y-16945214D01*
X10985333Y-16945214D01*
X10956762Y-16959500D01*
X10942476Y-16973786D01*
X11256761Y-17145214D02*
X11228190Y-17130929D01*
X11213904Y-17116643D01*
X11199619Y-17088072D01*
X11199619Y-17002357D01*
X11213904Y-16973786D01*
X11228190Y-16959500D01*
X11256761Y-16945214D01*
X11299619Y-16945214D01*
X11328190Y-16959500D01*
X11342476Y-16973786D01*
X11356761Y-17002357D01*
X11356761Y-17088072D01*
X11342476Y-17116643D01*
X11328190Y-17130929D01*
X11299619Y-17145214D01*
X11256761Y-17145214D01*
X11528190Y-17145214D02*
X11499619Y-17130929D01*
X11485333Y-17102357D01*
X11485333Y-16845214D01*
X11756762Y-17130929D02*
X11728190Y-17145214D01*
X11671047Y-17145214D01*
X11642476Y-17130929D01*
X11628190Y-17102357D01*
X11628190Y-16988072D01*
X11642476Y-16959500D01*
X11671047Y-16945214D01*
X11728190Y-16945214D01*
X11756762Y-16959500D01*
X11771047Y-16988072D01*
X11771047Y-17016643D01*
X11628190Y-17045214D01*
X11885333Y-17130929D02*
X11913904Y-17145214D01*
X11971047Y-17145214D01*
X11999619Y-17130929D01*
X12013904Y-17102357D01*
X12013904Y-17088072D01*
X11999619Y-17059500D01*
X11971047Y-17045214D01*
X11928190Y-17045214D01*
X11899619Y-17030929D01*
X11885333Y-17002357D01*
X11885333Y-16988072D01*
X11899619Y-16959500D01*
X11928190Y-16945214D01*
X11971047Y-16945214D01*
X11999619Y-16959500D01*
X12113904Y-17259500D02*
X12128190Y-17245214D01*
X12156762Y-17202357D01*
X12171047Y-17173786D01*
X12185333Y-17130929D01*
X12199619Y-17059500D01*
X12199619Y-17002357D01*
X12185333Y-16930929D01*
X12171047Y-16888072D01*
X12156762Y-16859500D01*
X12128190Y-16816643D01*
X12113904Y-16802357D01*
M02*
