%FSLAX45Y45*%
G04 Gerber Fmt 4.5, Leading zero omitted, Abs format (unit mm)*
G04 Created by KiCad (PCBNEW 4.0.7) date Fri Jan 12 23:49:57 2018*
%MOMM*%
%LPD*%
G01*
G04 APERTURE LIST*
%ADD10C,0.127000*%
%ADD11C,0.150000*%
%ADD12C,0.200000*%
%ADD13C,0.300000*%
G04 APERTURE END LIST*
D10*
D11*
X7435000Y-14260000D02*
X5650000Y-14260000D01*
X7435000Y-15250000D02*
X7435000Y-14260000D01*
X12075000Y-15250000D02*
X7435000Y-15250000D01*
X12075000Y-14260000D02*
X12075000Y-15250000D01*
X14350000Y-14260000D02*
X12075000Y-14260000D01*
X14350000Y-9260000D02*
X14350000Y-14260000D01*
X14349984Y-9260078D02*
X5649976Y-9260078D01*
X5650000Y-9260000D02*
X5650000Y-14260000D01*
D12*
X6582400Y-9936500D02*
X6709400Y-10063500D01*
X6709400Y-9936500D02*
X6582400Y-10063500D01*
X6582400Y-10241500D02*
X6709400Y-10368500D01*
X6709400Y-10241500D02*
X6582400Y-10368500D01*
X13290400Y-9631500D02*
X13417400Y-9758500D01*
X13417400Y-9631500D02*
X13290400Y-9758500D01*
X13290400Y-9936500D02*
X13417400Y-10063500D01*
X13417400Y-9936500D02*
X13290400Y-10063500D01*
D13*
X5913904Y-15723214D02*
X5913904Y-15423214D01*
X5985333Y-15423214D01*
X6028190Y-15437500D01*
X6056762Y-15466071D01*
X6071047Y-15494643D01*
X6085333Y-15551786D01*
X6085333Y-15594643D01*
X6071047Y-15651786D01*
X6056762Y-15680357D01*
X6028190Y-15708929D01*
X5985333Y-15723214D01*
X5913904Y-15723214D01*
X6213904Y-15723214D02*
X6213904Y-15523214D01*
X6213904Y-15580357D02*
X6228190Y-15551786D01*
X6242476Y-15537500D01*
X6271047Y-15523214D01*
X6299619Y-15523214D01*
X6399619Y-15723214D02*
X6399619Y-15523214D01*
X6399619Y-15423214D02*
X6385333Y-15437500D01*
X6399619Y-15451786D01*
X6413904Y-15437500D01*
X6399619Y-15423214D01*
X6399619Y-15451786D01*
X6585333Y-15723214D02*
X6556762Y-15708929D01*
X6542476Y-15680357D01*
X6542476Y-15423214D01*
X6742476Y-15723214D02*
X6713904Y-15708929D01*
X6699619Y-15680357D01*
X6699619Y-15423214D01*
X7085333Y-15723214D02*
X7085333Y-15423214D01*
X7185333Y-15637500D01*
X7285333Y-15423214D01*
X7285333Y-15723214D01*
X7556762Y-15723214D02*
X7556762Y-15566071D01*
X7542476Y-15537500D01*
X7513904Y-15523214D01*
X7456762Y-15523214D01*
X7428190Y-15537500D01*
X7556762Y-15708929D02*
X7528190Y-15723214D01*
X7456762Y-15723214D01*
X7428190Y-15708929D01*
X7413904Y-15680357D01*
X7413904Y-15651786D01*
X7428190Y-15623214D01*
X7456762Y-15608929D01*
X7528190Y-15608929D01*
X7556762Y-15594643D01*
X7699619Y-15523214D02*
X7699619Y-15823214D01*
X7699619Y-15537500D02*
X7728190Y-15523214D01*
X7785333Y-15523214D01*
X7813904Y-15537500D01*
X7828190Y-15551786D01*
X7842476Y-15580357D01*
X7842476Y-15666071D01*
X7828190Y-15694643D01*
X7813904Y-15708929D01*
X7785333Y-15723214D01*
X7728190Y-15723214D01*
X7699619Y-15708929D01*
X7971047Y-15694643D02*
X7985333Y-15708929D01*
X7971047Y-15723214D01*
X7956762Y-15708929D01*
X7971047Y-15694643D01*
X7971047Y-15723214D01*
X7971047Y-15537500D02*
X7985333Y-15551786D01*
X7971047Y-15566071D01*
X7956762Y-15551786D01*
X7971047Y-15537500D01*
X7971047Y-15566071D01*
X5515476Y-16154000D02*
X5642476Y-16281000D01*
X5642476Y-16154000D02*
X5515476Y-16281000D01*
X6071047Y-16353214D02*
X5899619Y-16353214D01*
X5985333Y-16353214D02*
X5985333Y-16053214D01*
X5956762Y-16096071D01*
X5928190Y-16124643D01*
X5899619Y-16138929D01*
X6199619Y-16324643D02*
X6213904Y-16338929D01*
X6199619Y-16353214D01*
X6185333Y-16338929D01*
X6199619Y-16324643D01*
X6199619Y-16353214D01*
X6328190Y-16081786D02*
X6342476Y-16067500D01*
X6371047Y-16053214D01*
X6442476Y-16053214D01*
X6471047Y-16067500D01*
X6485333Y-16081786D01*
X6499619Y-16110357D01*
X6499619Y-16138929D01*
X6485333Y-16181786D01*
X6313904Y-16353214D01*
X6499619Y-16353214D01*
X6599619Y-16053214D02*
X6799619Y-16053214D01*
X6671047Y-16353214D01*
X6913904Y-16353214D02*
X6913904Y-16153214D01*
X6913904Y-16181786D02*
X6928190Y-16167500D01*
X6956762Y-16153214D01*
X6999619Y-16153214D01*
X7028190Y-16167500D01*
X7042476Y-16196071D01*
X7042476Y-16353214D01*
X7042476Y-16196071D02*
X7056762Y-16167500D01*
X7085333Y-16153214D01*
X7128190Y-16153214D01*
X7156762Y-16167500D01*
X7171047Y-16196071D01*
X7171047Y-16353214D01*
X7313904Y-16353214D02*
X7313904Y-16153214D01*
X7313904Y-16181786D02*
X7328190Y-16167500D01*
X7356762Y-16153214D01*
X7399619Y-16153214D01*
X7428190Y-16167500D01*
X7442476Y-16196071D01*
X7442476Y-16353214D01*
X7442476Y-16196071D02*
X7456762Y-16167500D01*
X7485333Y-16153214D01*
X7528190Y-16153214D01*
X7556762Y-16167500D01*
X7571047Y-16196071D01*
X7571047Y-16353214D01*
X8156762Y-16038929D02*
X7899619Y-16424643D01*
X8542476Y-16053214D02*
X8571047Y-16053214D01*
X8599619Y-16067500D01*
X8613904Y-16081786D01*
X8628190Y-16110357D01*
X8642476Y-16167500D01*
X8642476Y-16238929D01*
X8628190Y-16296071D01*
X8613904Y-16324643D01*
X8599619Y-16338929D01*
X8571047Y-16353214D01*
X8542476Y-16353214D01*
X8513904Y-16338929D01*
X8499619Y-16324643D01*
X8485333Y-16296071D01*
X8471047Y-16238929D01*
X8471047Y-16167500D01*
X8485333Y-16110357D01*
X8499619Y-16081786D01*
X8513904Y-16067500D01*
X8542476Y-16053214D01*
X8771047Y-16324643D02*
X8785333Y-16338929D01*
X8771047Y-16353214D01*
X8756762Y-16338929D01*
X8771047Y-16324643D01*
X8771047Y-16353214D01*
X8971047Y-16053214D02*
X8999619Y-16053214D01*
X9028190Y-16067500D01*
X9042476Y-16081786D01*
X9056762Y-16110357D01*
X9071047Y-16167500D01*
X9071047Y-16238929D01*
X9056762Y-16296071D01*
X9042476Y-16324643D01*
X9028190Y-16338929D01*
X8999619Y-16353214D01*
X8971047Y-16353214D01*
X8942476Y-16338929D01*
X8928190Y-16324643D01*
X8913904Y-16296071D01*
X8899619Y-16238929D01*
X8899619Y-16167500D01*
X8913904Y-16110357D01*
X8928190Y-16081786D01*
X8942476Y-16067500D01*
X8971047Y-16053214D01*
X9342476Y-16053214D02*
X9199619Y-16053214D01*
X9185333Y-16196071D01*
X9199619Y-16181786D01*
X9228190Y-16167500D01*
X9299619Y-16167500D01*
X9328190Y-16181786D01*
X9342476Y-16196071D01*
X9356762Y-16224643D01*
X9356762Y-16296071D01*
X9342476Y-16324643D01*
X9328190Y-16338929D01*
X9299619Y-16353214D01*
X9228190Y-16353214D01*
X9199619Y-16338929D01*
X9185333Y-16324643D01*
X9542476Y-16053214D02*
X9571047Y-16053214D01*
X9599619Y-16067500D01*
X9613904Y-16081786D01*
X9628190Y-16110357D01*
X9642476Y-16167500D01*
X9642476Y-16238929D01*
X9628190Y-16296071D01*
X9613904Y-16324643D01*
X9599619Y-16338929D01*
X9571047Y-16353214D01*
X9542476Y-16353214D01*
X9513904Y-16338929D01*
X9499619Y-16324643D01*
X9485333Y-16296071D01*
X9471047Y-16238929D01*
X9471047Y-16167500D01*
X9485333Y-16110357D01*
X9499619Y-16081786D01*
X9513904Y-16067500D01*
X9542476Y-16053214D01*
X9756762Y-16053214D02*
X9756762Y-16110357D01*
X9871047Y-16053214D02*
X9871047Y-16110357D01*
X10313904Y-16467500D02*
X10299619Y-16453214D01*
X10271047Y-16410357D01*
X10256762Y-16381786D01*
X10242476Y-16338929D01*
X10228190Y-16267500D01*
X10228190Y-16210357D01*
X10242476Y-16138929D01*
X10256762Y-16096071D01*
X10271047Y-16067500D01*
X10299619Y-16024643D01*
X10313904Y-16010357D01*
X10556762Y-16153214D02*
X10556762Y-16353214D01*
X10485333Y-16038929D02*
X10413904Y-16253214D01*
X10599619Y-16253214D01*
X10942476Y-16353214D02*
X10942476Y-16053214D01*
X11071047Y-16353214D02*
X11071047Y-16196071D01*
X11056762Y-16167500D01*
X11028190Y-16153214D01*
X10985333Y-16153214D01*
X10956762Y-16167500D01*
X10942476Y-16181786D01*
X11256761Y-16353214D02*
X11228190Y-16338929D01*
X11213904Y-16324643D01*
X11199619Y-16296071D01*
X11199619Y-16210357D01*
X11213904Y-16181786D01*
X11228190Y-16167500D01*
X11256761Y-16153214D01*
X11299619Y-16153214D01*
X11328190Y-16167500D01*
X11342476Y-16181786D01*
X11356761Y-16210357D01*
X11356761Y-16296071D01*
X11342476Y-16324643D01*
X11328190Y-16338929D01*
X11299619Y-16353214D01*
X11256761Y-16353214D01*
X11528190Y-16353214D02*
X11499619Y-16338929D01*
X11485333Y-16310357D01*
X11485333Y-16053214D01*
X11756762Y-16338929D02*
X11728190Y-16353214D01*
X11671047Y-16353214D01*
X11642476Y-16338929D01*
X11628190Y-16310357D01*
X11628190Y-16196071D01*
X11642476Y-16167500D01*
X11671047Y-16153214D01*
X11728190Y-16153214D01*
X11756762Y-16167500D01*
X11771047Y-16196071D01*
X11771047Y-16224643D01*
X11628190Y-16253214D01*
X11885333Y-16338929D02*
X11913904Y-16353214D01*
X11971047Y-16353214D01*
X11999619Y-16338929D01*
X12013904Y-16310357D01*
X12013904Y-16296071D01*
X11999619Y-16267500D01*
X11971047Y-16253214D01*
X11928190Y-16253214D01*
X11899619Y-16238929D01*
X11885333Y-16210357D01*
X11885333Y-16196071D01*
X11899619Y-16167500D01*
X11928190Y-16153214D01*
X11971047Y-16153214D01*
X11999619Y-16167500D01*
X12113904Y-16467500D02*
X12128190Y-16453214D01*
X12156762Y-16410357D01*
X12171047Y-16381786D01*
X12185333Y-16338929D01*
X12199619Y-16267500D01*
X12199619Y-16210357D01*
X12185333Y-16138929D01*
X12171047Y-16096071D01*
X12156762Y-16067500D01*
X12128190Y-16024643D01*
X12113904Y-16010357D01*
X12656762Y-16467500D02*
X12642476Y-16453214D01*
X12613904Y-16410357D01*
X12599619Y-16381786D01*
X12585333Y-16338929D01*
X12571047Y-16267500D01*
X12571047Y-16210357D01*
X12585333Y-16138929D01*
X12599619Y-16096071D01*
X12613904Y-16067500D01*
X12642476Y-16024643D01*
X12656762Y-16010357D01*
X12771047Y-16153214D02*
X12771047Y-16353214D01*
X12771047Y-16181786D02*
X12785333Y-16167500D01*
X12813904Y-16153214D01*
X12856762Y-16153214D01*
X12885333Y-16167500D01*
X12899619Y-16196071D01*
X12899619Y-16353214D01*
X13085333Y-16353214D02*
X13056762Y-16338929D01*
X13042476Y-16324643D01*
X13028190Y-16296071D01*
X13028190Y-16210357D01*
X13042476Y-16181786D01*
X13056762Y-16167500D01*
X13085333Y-16153214D01*
X13128190Y-16153214D01*
X13156762Y-16167500D01*
X13171047Y-16181786D01*
X13185333Y-16210357D01*
X13185333Y-16296071D01*
X13171047Y-16324643D01*
X13156762Y-16338929D01*
X13128190Y-16353214D01*
X13085333Y-16353214D01*
X13271047Y-16153214D02*
X13385333Y-16153214D01*
X13313904Y-16053214D02*
X13313904Y-16310357D01*
X13328190Y-16338929D01*
X13356762Y-16353214D01*
X13385333Y-16353214D01*
X13713904Y-16153214D02*
X13713904Y-16453214D01*
X13713904Y-16167500D02*
X13742476Y-16153214D01*
X13799619Y-16153214D01*
X13828190Y-16167500D01*
X13842476Y-16181786D01*
X13856762Y-16210357D01*
X13856762Y-16296071D01*
X13842476Y-16324643D01*
X13828190Y-16338929D01*
X13799619Y-16353214D01*
X13742476Y-16353214D01*
X13713904Y-16338929D01*
X14028190Y-16353214D02*
X13999619Y-16338929D01*
X13985333Y-16310357D01*
X13985333Y-16053214D01*
X14271047Y-16353214D02*
X14271047Y-16196071D01*
X14256762Y-16167500D01*
X14228190Y-16153214D01*
X14171047Y-16153214D01*
X14142476Y-16167500D01*
X14271047Y-16338929D02*
X14242476Y-16353214D01*
X14171047Y-16353214D01*
X14142476Y-16338929D01*
X14128190Y-16310357D01*
X14128190Y-16281786D01*
X14142476Y-16253214D01*
X14171047Y-16238929D01*
X14242476Y-16238929D01*
X14271047Y-16224643D01*
X14371047Y-16153214D02*
X14485333Y-16153214D01*
X14413905Y-16053214D02*
X14413905Y-16310357D01*
X14428190Y-16338929D01*
X14456762Y-16353214D01*
X14485333Y-16353214D01*
X14699619Y-16338929D02*
X14671047Y-16353214D01*
X14613905Y-16353214D01*
X14585333Y-16338929D01*
X14571047Y-16310357D01*
X14571047Y-16196071D01*
X14585333Y-16167500D01*
X14613905Y-16153214D01*
X14671047Y-16153214D01*
X14699619Y-16167500D01*
X14713905Y-16196071D01*
X14713905Y-16224643D01*
X14571047Y-16253214D01*
X14971047Y-16353214D02*
X14971047Y-16053214D01*
X14971047Y-16338929D02*
X14942476Y-16353214D01*
X14885333Y-16353214D01*
X14856762Y-16338929D01*
X14842476Y-16324643D01*
X14828190Y-16296071D01*
X14828190Y-16210357D01*
X14842476Y-16181786D01*
X14856762Y-16167500D01*
X14885333Y-16153214D01*
X14942476Y-16153214D01*
X14971047Y-16167500D01*
X15085333Y-16467500D02*
X15099619Y-16453214D01*
X15128190Y-16410357D01*
X15142476Y-16381786D01*
X15156762Y-16338929D01*
X15171047Y-16267500D01*
X15171047Y-16210357D01*
X15156762Y-16138929D01*
X15142476Y-16096071D01*
X15128190Y-16067500D01*
X15099619Y-16024643D01*
X15085333Y-16010357D01*
M02*
