G04 #@! TF.FileFunction,Soldermask,Top*
%FSLAX46Y46*%
G04 Gerber Fmt 4.6, Leading zero omitted, Abs format (unit mm)*
G04 Created by KiCad (PCBNEW 4.0.7) date Fri Jan 12 23:49:52 2018*
%MOMM*%
%LPD*%
G01*
G04 APERTURE LIST*
%ADD10C,0.100000*%
%ADD11C,7.400000*%
%ADD12C,0.840000*%
%ADD13C,1.670000*%
%ADD14R,2.100000X2.400000*%
%ADD15R,0.900000X2.788000*%
%ADD16R,2.400000X2.100000*%
%ADD17R,2.400000X2.000000*%
%ADD18R,2.000000X2.400000*%
%ADD19R,1.900000X1.650000*%
%ADD20C,3.100000*%
%ADD21R,1.700000X1.900000*%
%ADD22R,1.050000X1.460000*%
%ADD23C,1.900000*%
%ADD24R,2.550000X1.350000*%
%ADD25R,2.550000X3.650000*%
G04 APERTURE END LIST*
D10*
D11*
X139500000Y-138600000D03*
X60500000Y-138600000D03*
X139500000Y-96600000D03*
D12*
X68885000Y-95555000D03*
X70155000Y-95555000D03*
X71425000Y-95555000D03*
X72695000Y-95555000D03*
X73965000Y-95555000D03*
X75235000Y-95555000D03*
X76505000Y-95555000D03*
X77775000Y-95555000D03*
X79045000Y-95555000D03*
X80315000Y-95555000D03*
X81585000Y-95555000D03*
X82855000Y-95555000D03*
X84125000Y-95555000D03*
X85395000Y-95555000D03*
X86665000Y-95555000D03*
X87935000Y-95555000D03*
X89205000Y-95555000D03*
X90475000Y-95555000D03*
X91745000Y-95555000D03*
X93015000Y-95555000D03*
X94285000Y-95555000D03*
X95555000Y-95555000D03*
X96825000Y-95555000D03*
X98095000Y-95555000D03*
X99365000Y-95555000D03*
X100635000Y-95555000D03*
X101905000Y-95555000D03*
X103175000Y-95555000D03*
X104445000Y-95555000D03*
X105715000Y-95555000D03*
X106985000Y-95555000D03*
X108255000Y-95555000D03*
X109525000Y-95555000D03*
X110795000Y-95555000D03*
X112065000Y-95555000D03*
X113335000Y-95555000D03*
X114605000Y-95555000D03*
X115875000Y-95555000D03*
X117145000Y-95555000D03*
X118415000Y-95555000D03*
X119685000Y-95555000D03*
X120955000Y-95555000D03*
X122225000Y-95555000D03*
X123495000Y-95555000D03*
X124765000Y-95555000D03*
X126035000Y-95555000D03*
X127305000Y-95555000D03*
X128575000Y-95555000D03*
X129845000Y-95555000D03*
X131115000Y-95555000D03*
X68885000Y-96825000D03*
X70155000Y-96825000D03*
X71425000Y-96825000D03*
X72695000Y-96825000D03*
X73965000Y-96825000D03*
X75235000Y-96825000D03*
X76505000Y-96825000D03*
X77775000Y-96825000D03*
X79045000Y-96825000D03*
X80315000Y-96825000D03*
X81585000Y-96825000D03*
X82855000Y-96825000D03*
X84125000Y-96825000D03*
X85395000Y-96825000D03*
X86665000Y-96825000D03*
X87935000Y-96825000D03*
X89205000Y-96825000D03*
X90475000Y-96825000D03*
X91745000Y-96825000D03*
X93015000Y-96825000D03*
X94285000Y-96825000D03*
X95555000Y-96825000D03*
X96825000Y-96825000D03*
X98095000Y-96825000D03*
X99365000Y-96825000D03*
X100635000Y-96825000D03*
X101905000Y-96825000D03*
X103175000Y-96825000D03*
X104445000Y-96825000D03*
X105715000Y-96825000D03*
X106985000Y-96825000D03*
X108255000Y-96825000D03*
X109525000Y-96825000D03*
X110795000Y-96825000D03*
X112065000Y-96825000D03*
X113335000Y-96825000D03*
X114605000Y-96825000D03*
X115875000Y-96825000D03*
X117145000Y-96825000D03*
X118415000Y-96825000D03*
X119685000Y-96825000D03*
X120955000Y-96825000D03*
X122225000Y-96825000D03*
X123495000Y-96825000D03*
X124765000Y-96825000D03*
X126035000Y-96825000D03*
X127305000Y-96825000D03*
X128575000Y-96825000D03*
X129845000Y-96825000D03*
X131115000Y-96825000D03*
X68885000Y-98095000D03*
X70155000Y-98095000D03*
X71425000Y-98095000D03*
X72695000Y-98095000D03*
X73965000Y-98095000D03*
X75235000Y-98095000D03*
X76505000Y-98095000D03*
X77775000Y-98095000D03*
X79045000Y-98095000D03*
X80315000Y-98095000D03*
X81585000Y-98095000D03*
X82855000Y-98095000D03*
X84125000Y-98095000D03*
X85395000Y-98095000D03*
X86665000Y-98095000D03*
X87935000Y-98095000D03*
X89205000Y-98095000D03*
X90475000Y-98095000D03*
X91745000Y-98095000D03*
X93015000Y-98095000D03*
X94285000Y-98095000D03*
X95555000Y-98095000D03*
X96825000Y-98095000D03*
X98095000Y-98095000D03*
X99365000Y-98095000D03*
X100635000Y-98095000D03*
X101905000Y-98095000D03*
X103175000Y-98095000D03*
X104445000Y-98095000D03*
X105715000Y-98095000D03*
X106985000Y-98095000D03*
X108255000Y-98095000D03*
X109525000Y-98095000D03*
X110795000Y-98095000D03*
X112065000Y-98095000D03*
X113335000Y-98095000D03*
X114605000Y-98095000D03*
X115875000Y-98095000D03*
X117145000Y-98095000D03*
X118415000Y-98095000D03*
X119685000Y-98095000D03*
X120955000Y-98095000D03*
X122225000Y-98095000D03*
X123495000Y-98095000D03*
X124765000Y-98095000D03*
X126035000Y-98095000D03*
X127305000Y-98095000D03*
X128575000Y-98095000D03*
X129845000Y-98095000D03*
X131115000Y-98095000D03*
X68885000Y-99365000D03*
X70155000Y-99365000D03*
X71425000Y-99365000D03*
X72695000Y-99365000D03*
X73965000Y-99365000D03*
X75235000Y-99365000D03*
X76505000Y-99365000D03*
X77775000Y-99365000D03*
X79045000Y-99365000D03*
X80315000Y-99365000D03*
X81585000Y-99365000D03*
X82855000Y-99365000D03*
X84125000Y-99365000D03*
X85395000Y-99365000D03*
X86665000Y-99365000D03*
X87935000Y-99365000D03*
X89205000Y-99365000D03*
X90475000Y-99365000D03*
X91745000Y-99365000D03*
X93015000Y-99365000D03*
X94285000Y-99365000D03*
X95555000Y-99365000D03*
X96825000Y-99365000D03*
X98095000Y-99365000D03*
X99365000Y-99365000D03*
X100635000Y-99365000D03*
X101905000Y-99365000D03*
X103175000Y-99365000D03*
X104445000Y-99365000D03*
X105715000Y-99365000D03*
X106985000Y-99365000D03*
X108255000Y-99365000D03*
X109525000Y-99365000D03*
X110795000Y-99365000D03*
X112065000Y-99365000D03*
X113335000Y-99365000D03*
X114605000Y-99365000D03*
X115875000Y-99365000D03*
X117145000Y-99365000D03*
X118415000Y-99365000D03*
X119685000Y-99365000D03*
X120955000Y-99365000D03*
X122225000Y-99365000D03*
X123495000Y-99365000D03*
X124765000Y-99365000D03*
X126035000Y-99365000D03*
X127305000Y-99365000D03*
X128575000Y-99365000D03*
X129845000Y-99365000D03*
X131115000Y-99365000D03*
X68885000Y-100635000D03*
X70155000Y-100635000D03*
X71425000Y-100635000D03*
X72695000Y-100635000D03*
X73965000Y-100635000D03*
X75235000Y-100635000D03*
X76505000Y-100635000D03*
X77775000Y-100635000D03*
X79045000Y-100635000D03*
X80315000Y-100635000D03*
X81585000Y-100635000D03*
X82855000Y-100635000D03*
X84125000Y-100635000D03*
X85395000Y-100635000D03*
X86665000Y-100635000D03*
X87935000Y-100635000D03*
X89205000Y-100635000D03*
X90475000Y-100635000D03*
X91745000Y-100635000D03*
X93015000Y-100635000D03*
X94285000Y-100635000D03*
X95555000Y-100635000D03*
X96825000Y-100635000D03*
X98095000Y-100635000D03*
X99365000Y-100635000D03*
X100635000Y-100635000D03*
X101905000Y-100635000D03*
X103175000Y-100635000D03*
X104445000Y-100635000D03*
X105715000Y-100635000D03*
X106985000Y-100635000D03*
X108255000Y-100635000D03*
X109525000Y-100635000D03*
X110795000Y-100635000D03*
X112065000Y-100635000D03*
X113335000Y-100635000D03*
X114605000Y-100635000D03*
X115875000Y-100635000D03*
X117145000Y-100635000D03*
X118415000Y-100635000D03*
X119685000Y-100635000D03*
X120955000Y-100635000D03*
X122225000Y-100635000D03*
X123495000Y-100635000D03*
X124765000Y-100635000D03*
X126035000Y-100635000D03*
X127305000Y-100635000D03*
X128575000Y-100635000D03*
X129845000Y-100635000D03*
X131115000Y-100635000D03*
X68885000Y-101905000D03*
X70155000Y-101905000D03*
X71425000Y-101905000D03*
X72695000Y-101905000D03*
X73965000Y-101905000D03*
X75235000Y-101905000D03*
X76505000Y-101905000D03*
X77775000Y-101905000D03*
X79045000Y-101905000D03*
X80315000Y-101905000D03*
X81585000Y-101905000D03*
X82855000Y-101905000D03*
X84125000Y-101905000D03*
X85395000Y-101905000D03*
X86665000Y-101905000D03*
X87935000Y-101905000D03*
X89205000Y-101905000D03*
X90475000Y-101905000D03*
X91745000Y-101905000D03*
X93015000Y-101905000D03*
X94285000Y-101905000D03*
X95555000Y-101905000D03*
X96825000Y-101905000D03*
X98095000Y-101905000D03*
X99365000Y-101905000D03*
X100635000Y-101905000D03*
X101905000Y-101905000D03*
X103175000Y-101905000D03*
X104445000Y-101905000D03*
X105715000Y-101905000D03*
X106985000Y-101905000D03*
X108255000Y-101905000D03*
X109525000Y-101905000D03*
X110795000Y-101905000D03*
X112065000Y-101905000D03*
X113335000Y-101905000D03*
X114605000Y-101905000D03*
X115875000Y-101905000D03*
X117145000Y-101905000D03*
X118415000Y-101905000D03*
X119685000Y-101905000D03*
X120955000Y-101905000D03*
X122225000Y-101905000D03*
X123495000Y-101905000D03*
X124765000Y-101905000D03*
X126035000Y-101905000D03*
X127305000Y-101905000D03*
X128575000Y-101905000D03*
X129845000Y-101905000D03*
X131115000Y-101905000D03*
X68885000Y-103175000D03*
X70155000Y-103175000D03*
X71425000Y-103175000D03*
X72695000Y-103175000D03*
X73965000Y-103175000D03*
X75235000Y-103175000D03*
X76505000Y-103175000D03*
X77775000Y-103175000D03*
X79045000Y-103175000D03*
X80315000Y-103175000D03*
X81585000Y-103175000D03*
X82855000Y-103175000D03*
X84125000Y-103175000D03*
X85395000Y-103175000D03*
X86665000Y-103175000D03*
X87935000Y-103175000D03*
X89205000Y-103175000D03*
X90475000Y-103175000D03*
X91745000Y-103175000D03*
X93015000Y-103175000D03*
X94285000Y-103175000D03*
X95555000Y-103175000D03*
X96825000Y-103175000D03*
X98095000Y-103175000D03*
X99365000Y-103175000D03*
X100635000Y-103175000D03*
X101905000Y-103175000D03*
X103175000Y-103175000D03*
X104445000Y-103175000D03*
X105715000Y-103175000D03*
X106985000Y-103175000D03*
X108255000Y-103175000D03*
X109525000Y-103175000D03*
X110795000Y-103175000D03*
X112065000Y-103175000D03*
X113335000Y-103175000D03*
X114605000Y-103175000D03*
X115875000Y-103175000D03*
X117145000Y-103175000D03*
X118415000Y-103175000D03*
X119685000Y-103175000D03*
X120955000Y-103175000D03*
X122225000Y-103175000D03*
X123495000Y-103175000D03*
X124765000Y-103175000D03*
X126035000Y-103175000D03*
X127305000Y-103175000D03*
X128575000Y-103175000D03*
X129845000Y-103175000D03*
X131115000Y-103175000D03*
X68885000Y-104445000D03*
X70155000Y-104445000D03*
X71425000Y-104445000D03*
X72695000Y-104445000D03*
X73965000Y-104445000D03*
X75235000Y-104445000D03*
X76505000Y-104445000D03*
X77775000Y-104445000D03*
X79045000Y-104445000D03*
X80315000Y-104445000D03*
X81585000Y-104445000D03*
X82855000Y-104445000D03*
X84125000Y-104445000D03*
X85395000Y-104445000D03*
X86665000Y-104445000D03*
X87935000Y-104445000D03*
X89205000Y-104445000D03*
X90475000Y-104445000D03*
X91745000Y-104445000D03*
X93015000Y-104445000D03*
X94285000Y-104445000D03*
X95555000Y-104445000D03*
X96825000Y-104445000D03*
X98095000Y-104445000D03*
X99365000Y-104445000D03*
X100635000Y-104445000D03*
X101905000Y-104445000D03*
X103175000Y-104445000D03*
X104445000Y-104445000D03*
X105715000Y-104445000D03*
X106985000Y-104445000D03*
X108255000Y-104445000D03*
X109525000Y-104445000D03*
X110795000Y-104445000D03*
X112065000Y-104445000D03*
X113335000Y-104445000D03*
X114605000Y-104445000D03*
X115875000Y-104445000D03*
X117145000Y-104445000D03*
X118415000Y-104445000D03*
X119685000Y-104445000D03*
X120955000Y-104445000D03*
X122225000Y-104445000D03*
X123495000Y-104445000D03*
X124765000Y-104445000D03*
X126035000Y-104445000D03*
X127305000Y-104445000D03*
X128575000Y-104445000D03*
X129845000Y-104445000D03*
X131115000Y-104445000D03*
D13*
X66459000Y-103050000D03*
X133539000Y-100000000D03*
X66459000Y-100000000D03*
X133539000Y-96950000D03*
D14*
X84000000Y-113500000D03*
X84000000Y-117500000D03*
D15*
X86635000Y-131324000D03*
X85365000Y-131324000D03*
X85365000Y-126676000D03*
X86635000Y-126676000D03*
X87905000Y-126676000D03*
X84095000Y-126676000D03*
X84095000Y-131324000D03*
X87905000Y-131324000D03*
D16*
X88000000Y-135500000D03*
X84000000Y-135500000D03*
D17*
X131318500Y-113985040D03*
X135318500Y-113985040D03*
D18*
X126500000Y-131500000D03*
X126500000Y-127500000D03*
X129500000Y-131500000D03*
X129500000Y-127500000D03*
X123750000Y-123750000D03*
X123750000Y-119750000D03*
X120750000Y-123774200D03*
X120750000Y-119774200D03*
X126500000Y-123750000D03*
X126500000Y-119750000D03*
D19*
X91750000Y-135500000D03*
X94250000Y-135500000D03*
X117000000Y-135500000D03*
X119500000Y-135500000D03*
D20*
X87540000Y-147000000D03*
X82460000Y-147000000D03*
X112850000Y-146900000D03*
X107770000Y-146900000D03*
D16*
X135413500Y-110332520D03*
X131413500Y-110332520D03*
D21*
X92000000Y-127900000D03*
X92000000Y-130600000D03*
D14*
X87000000Y-113500000D03*
X87000000Y-117500000D03*
D16*
X88000000Y-139250000D03*
X84000000Y-139250000D03*
D21*
X95500000Y-130750000D03*
X95500000Y-128050000D03*
X117500000Y-127750000D03*
X117500000Y-130450000D03*
D14*
X111500000Y-113500000D03*
X111500000Y-117500000D03*
X108500000Y-113500000D03*
X108500000Y-117500000D03*
D16*
X113750000Y-139250000D03*
X109750000Y-139250000D03*
D21*
X120250000Y-130450000D03*
X120250000Y-127750000D03*
D16*
X113750000Y-135500000D03*
X109750000Y-135500000D03*
D22*
X134750000Y-126050000D03*
X133800000Y-126050000D03*
X132850000Y-126050000D03*
X132850000Y-128250000D03*
X134750000Y-128250000D03*
D15*
X112334860Y-131282900D03*
X111064860Y-131282900D03*
X111064860Y-126634900D03*
X112334860Y-126634900D03*
X113604860Y-126634900D03*
X109794860Y-126634900D03*
X109794860Y-131282900D03*
X113604860Y-131282900D03*
D11*
X60500000Y-96600000D03*
D23*
X139200000Y-126600000D03*
X126450000Y-112050000D03*
X74250000Y-127750000D03*
X73750000Y-133750000D03*
X97750000Y-139500000D03*
X93500000Y-113500000D03*
X93500000Y-120000000D03*
X76500000Y-119250000D03*
X77250000Y-113250000D03*
X78750000Y-136500000D03*
X123750000Y-137750000D03*
X116500000Y-112500000D03*
X116250000Y-117750000D03*
X103000000Y-119250000D03*
X102500000Y-112250000D03*
X105250000Y-137000000D03*
D24*
X130846240Y-117885180D03*
X130846240Y-120185180D03*
X130846240Y-122485180D03*
D25*
X136646240Y-120185180D03*
D17*
X83750000Y-122250000D03*
X87750000Y-122250000D03*
D18*
X81500000Y-131000000D03*
X81500000Y-127000000D03*
D17*
X109750000Y-122250000D03*
X113750000Y-122250000D03*
D18*
X107250000Y-131000000D03*
X107250000Y-127000000D03*
M02*
